<?xml version="1.0" encoding="UTF-8"?>
<svg id="Layer_1" data-name="Layer 1" xmlns="http://www.w3.org/2000/svg" viewBox="0 0 914.82 1421.94">
  <defs>
    <style>
      .cls-1 {
        fill: #ffb2a2;
      }

      .cls-2 {
        fill: #cc603f;
      }

      .cls-3 {
        fill: #565b78;
      }

      .cls-4 {
        fill: #fff;
      }

      .cls-5 {
        fill: #fceae6;
      }

      .cls-6 {
        fill: #e68b75;
      }

      .cls-7 {
        fill: #4f342f;
      }

      .cls-8 {
        fill: #eb7754;
      }
    </style>
  </defs>
  <ellipse class="cls-5" cx="427.85" cy="624.83" rx="352.33" ry="444.93"/>
  <g>
    <path class="cls-8" d="M624.27,254.04c-3.34-2.35-14.65-7.18-14.9-11.99-.04-.86.27-1.69.59-2.49,3.42-8.68,8.83-17.9,8.59-27.38-.49-19.56-15.5-34.3-31.67-43.12-10.16-5.54-21.56-8.35-31.7-13.78-14.46-7.74-10.83-21.67-13.46-35.25-6.83-35.42-36.48-58.61-70.34-64.54-4-.7-7.54-2.87-9.93-6.15-5.86-8.03-23.43-21.15-64.37-7.93-22.04,7.12-34.81,21.69-45.89,40.83-.39.68-.75,1.39-1.04,2.12-2.38,6.17-2.96,12.62-7.79,17.2-4.86,4.6-10.82,6.56-16.54,9.96-10.13,6.02-19.27,13.82-26.25,23.35-10.11,13.8-14.57,30.74-12.15,47.13,1.08,7.28-3.53,14.2-10.57,16.34-11.04,3.36-21.67,7.96-30.3,15.78-11.95,10.83-17.45,27.28-15.44,43.19.91,7.24,3.34,14.22,7.33,20.35,3.78,5.8,9.96,10.66,6.26,19.07-2.69,6.1-10.22,9.17-15.78,11.93-14.66,7.29-24.03,18.63-22.67,35.8,3.07,38.59,49.97,43.94,78.75,33.38,9.68-3.55,18.54-9.06,28.26-12.47,14.23-5,25.36-1.32,34.72,9.87,11.58,13.84,20.55,26.54,39.46,30.24,16.55,3.24,33.37-.59,48.36-7.76,21.48-10.29,38.57-29.68,60.79-38.07,24.19-9.13,38.53,13.65,59.14,21,14.88,5.31,32.31,4.08,42.98-8.67,3.91-4.67,6.73-10.54,7.08-16.7.62-10.86-12.55-23.12-1.64-32.81,2.19-1.94,6.87-2.94,9.46-4.33,3.89-2.09,7.63-4.48,11.05-7.28,5.71-4.67,10.57-10.36,13.25-17.31,3.79-9.85,2.06-20.44-3.48-29.26-2.89-4.6-6.36-7.6-10.13-10.25Z"/>
    <path class="cls-1" d="M613.64,706.44c-3.92-25.42-3.49-50.62-4.64-76.29-1.02-22.73-.24-45.86-2.75-68.48-2.23-20.03-11.05-39.77-12.59-59.77-.08-3.51-.19-7.03-.3-10.54,0-.41,0-.81.02-1.22.01-.31-.02-.58-.07-.84-.91-28.81,3.5-69.28.91-98-2.85-31.7-12.21-73.38-29.28-98.35-1.59-2.32,3.22,12.36,1.66,13.78-17.79-3.37-39.99-6.59-51.3,10.72-12.39,18.97-8.44,49.06-5.72,70.07,3.77,29.19,12.99,57.22,23.21,84.71,4.66,12.54,5.14,25.46,7.39,38.6-.88,33.85,2.44,67.52,9.46,100.7,7.96,37.63,40.33,113.36,48.38,138.71,1.66,5.23,11.33-22.54,15.88-26.99,3.97-3.88.41-12.42-.26-16.79Z"/>
    <path class="cls-1" d="M329.57,253.98c-12.42,1.49-37.96,21.07-47.65,31.47-12.89,13.84-28.11,24.43-42.33,36.69-8.51,7.34-16.57,15.18-24.25,23.38-19.49,20.79-36.73,43.65-52.91,67.07-9.16,13.26-13.89,38.91,8.23,42.79,11.88,2.09,59.3,10.83,52.67.76-17.25-26.17,36.95-43.42,63.73-59.99,30.4-18.81,56.33-33.55,67.14-62.53,8.27-22.15-15.2-80.79-24.65-79.65Z"/>
    <path class="cls-1" d="M579.98,374.69l-.76-7.33c-.55-17.7-1.77-35.63-5.14-52.91-3.14-16.13-11.88-28.37-26.3-36.35-11.98-6.63-25.08-9.23-38.35-11.92-11.66-2.36-29.31-2.66-39.12-9.49-11.65-8.12-8.47-25.9-7-37.91,1.39-11.3,2.9-22.58,4.51-33.84,1.46-2.47.25-6.74-3.61-7.08-15.23-1.34-30.45-1.83-45.71-1.54-3.16.06-6.23-.64-9.27-1.48-2.44-.68-5.25.41-5.3,3.29-1.13,1.37-1.37,3.39-.69,4.96.81,1.89,1.6,3.8,1.81,5.85,2.17,21.2,11.61,60.27-18.12,66.98-4.74,1.07-9.82,1.34-15.13.84-14.08-1.33-28.03-6.08-42.22-2.77-12.99,3.03-22.99,12.3-31.82,21.8-11.26,12.13-21.49,25.18-30.99,38.73-1.7,2.43-.42,4.77,1.64,5.81.39,1.15,1.32,2.1,2.95,2.41,15.68,2.97,31.72,1.39,47.43,4.28,9.76,1.79,19.04,4.87,27.73,9.26,3.49,1.76,11.45,3.83,9.25,7.07-12.77,18.89-16.5,39.52-12.8,36.14,29.64-27.12,51.58,6.91,89.05,21.14,16.58,6.29,65.32-4.22,82.7-10.19,15.67-5.38,30.22-12.16,46.25-12.12,4.22.01,8.14,1.72,11.79,3.85,2.61,1.53,6.81.34,6.74-3.59,0-.21-.01-.43-.01-.64.53-.99.72-2.17.5-3.25Z"/>
    <path class="cls-6" d="M405.04,188.93c1.19,11.64,4.56,28.64,2.45,42.73,10.24,4.89,23.31,3.63,34.11.57,6.93-1.96,14.38-4.88,19.52-10.13.74-.75,1.41-1.55,2.06-2.36.04-.32.08-.66.12-.97,1.39-11.3,2.9-22.57,4.51-33.84,1.46-2.47.25-6.74-3.61-7.08-15.23-1.34-30.45-1.83-45.71-1.54-3.16.06-6.23-.64-9.27-1.48-2.44-.68-5.25.41-5.3,3.29-1.13,1.37-1.37,3.39-.69,4.96.81,1.89,1.6,3.8,1.81,5.85Z"/>
    <path class="cls-1" d="M516.51,1066.73c1.78-9.35,1.33-20.14,2.41-27.26,3.3-21.83,7.72-43.47,11.48-65.23,10-57.89,24.25-157.77,29.54-216.31,6.37-70.51,4.88-103.5-11.5-172.68-.89-3.76-6.23-2.63-6.43.72-31.72,22.64-61.13,49.43-84.94,80.38-12.05,15.66-13.45,31.53-14.94,50.69-1.78,22.92-3.01,45.88-3.68,68.86-1.31,44.52-.56,89.1,2.27,133.55,1.46,22.94,3.46,45.85,6.02,68.7,2.19,19.61,3.29,40.69,8.89,59.68,4.75,16.14,15.92,29.86,32.58,34.5,6.8,1.89,12.11,4.67,18.55,1.08,5.7-3.18,8.38-9.51,9.75-16.69Z"/>
    <path class="cls-1" d="M358.83,1304.23c13.58.25,27.22.19,40.58-1.52-.44-51.53.8-103.14,9.46-154.05,4.13-24.25,9.05-48.69,5.81-73.37-3.29-25.05-9.67-47.94-7.09-73.53.31-3.12-3.22-3.91-5.24-2.41-8.15-3.14-16.29-6.28-24.44-9.41-6.29-2.42-14.97-7.54-21.77-8.01-10.38-.71-11.96,10.56-13.27,18.55-5.63,34.48-7.4,69.98-10.85,104.74-3.42,34.48-.03,66.15,6.61,100.01,6.48,33.05,13.33,66.02,20.19,99Z"/>
    <path class="cls-1" d="M386.41,1366.47c1.38-1.57,2.84-2.88,5.2-4.08,3.52-1.79,7.52-2.86,10.1-6.06,2.81-3.47,2.78-9.36,2.84-13.55.09-6.84-.72-13.71-1.64-20.48-.95-6.98-3.36-14.48-3.51-21.49,0-.07-3.08.07-3.08,0-13.05,1.29-21.9-5.01-35.14-5.18.05.18-4.74-2.01-4.55-2,.14,0,1.61,8.82,2.5,13.76.39,2.17.16,4.39-.69,6.43-3.96,9.55-10.07,21.66-22.13,32.26-3.19,2.81-15.11,13.05-18.37,16.46-2.97,3.09-15.01,3.27-11.01,11.77,1.26,2.67,8.52,2.47,10.81,2.64,7.41.54,14.57,1.17,21.99.98,8.18-.21,16.35-.61,24.51-1.17,7.02-.48,14.72-1.11,19.53-7.04.97-1.2,1.79-2.27,2.65-3.24Z"/>
    <path class="cls-1" d="M522.64,1303.95c-13.54,1-27.17,1.71-40.61.74-2.42-51.47-6.53-102.94-18.01-153.29-5.47-23.98-12.07-38.95-10.21-63.77,1.89-25.19,2.67-37.1-.68-49.64-.81-3.03,7-37.41,9.1-36.03,7.96-3.59,15.92-7.17,23.88-10.76,6.14-2.77,14.52-8.36,21.29-9.21,10.33-1.29,19.56,9.41,18.44,17.43-3.4,24.5,7.11,69.81,12.49,104.33,5.33,34.23,3.71,66.05-1.04,100.23-4.63,33.36-9.64,66.66-14.66,99.97Z"/>
    <path class="cls-1" d="M567.3,1378.45c-1.05-4.08-3.49-7.19-6.45-9.92-5.39-4.98-12.53-8.68-16.22-14.7-6.68-10.92-16.39-23.58-21.17-35.96-.89-2.31-1.21-4.89-.96-7.43.61-6.09,1.61-17.18,1.74-17.2.19-.02-4.47,2.99-4.43,2.77-13.21,1.11-21.7,9.43-34.8,8.75,0,.09-3.08.12-3.08.21-3.35,33.86-4.48,40.41-6.66,53.12-1.03,6.05,2.26,12.05,7.26,12.76,5.19.73,8.58,4.27,12.63,6.41,3.1,1.64,4.48,4.15,6.85,6.94.06.07.12.14.19.22,1.51,1.73,3.51,2.71,5.58,2.73.79,0,1.58.03,2.37.08,11.16.69,26.25.51,37.37-.02,6.38-.29,23.08,4.09,19.77-8.76Z"/>
    <path class="cls-6" d="M488.28,272.62c-14.6,1.17-28.76,4.64-42.25,10.36-1.29.55-.58,2.63.72,2.07,13.32-5.65,27.27-9.08,41.7-10.24,1.41-.11,1.25-2.3-.17-2.19Z"/>
    <path class="cls-6" d="M419.08,282.78c-14.54-4.56-29.38-7.87-44.48-9.9-1.4-.19-1.61,2-.21,2.19,14.91,2.01,29.57,5.26,43.93,9.77,1.35.42,2.12-1.63.77-2.06Z"/>
    <path class="cls-1" d="M373.69,144.33c-5.21,2.41-7.07,6.05-6.68,11.84.64,9.42,6.46,21.75,16.54,24.05,7.21,1.64,10.16-5.53,10.4-11.41.38-9.36-7.13-30.43-20.26-24.47Z"/>
    <path class="cls-1" d="M408.68,967.74c.19-7.58.68-15.15,1.85-22.67,4.21-27.02,9.78-53.7,12.94-80.94,6.82-58.75,8.5-118.09,4.96-177.12,2.31.05,4.64-2.21,3.09-4.72-13.51-21.84-29.58-41.95-48.23-59.63-16.94-16.05-36.97-33.58-59.19-41.81-1.06-1.24-3.2-1.62-4.67-.6-.91.53-1.49,1.55-1.61,2.62-25.01,64.92-20.91,135.55-13.9,203.47,7.02,68.02,17.87,135.59,32.25,202.43,3.9,18.11,3.32,38.03,1.19,56.31-1.33,11.46,11.45,27.82,19.13,36.63,5.44,6.23,15.6,14.61,24.56,13.58,10.39-1.19,8.86-14.25,10.59-22.04,3.39-15.28,10.73-29.38,13.9-44.62,4.18-20.08,2.64-40.55,3.16-60.88Z"/>
    <path class="cls-1" d="M461.83,71.06c-12.55-7.82-27.78-8.62-43.55-4.46-13.25,3.49-25.54,11.05-32.58,23.08-16.01,27.35-10.16,60.4,1.65,88.57,10.27,24.52,32.94,47.4,60.87,37.66,28.92-10.09,37-43.82,40.07-70.78,1.61-14.1,1.18-28.71-3.26-42.29-2.14-6.56-5.22-12.8-9.24-18.41-4.1-5.73-8.81-10.14-13.97-13.35Z"/>
    <path class="cls-3" d="M551.9,613.05c8.34-9.89-2.92-57.53-11.8-85.79-4.8-15.26-11.25-79.09-5.42-90.02,2.99-5.59,9.38-15.35,11.73-27.58,2.2-11.46.24-23.25-3-34.26-7.01-23.78-13.37-42.54-21.75-65.68-5.41-14.96-21.31-47.97-29.8-49.65-1.02-.2-22.65-9.27-23.33-8.76-1.33.63-2.93,2.35-1.81,3.98,36.5,53.18,44.84,88.81,33.92,94.43-43.62,22.46-139.71,7.86-138.5-8.88,2.51-34.86,39.95-92.89,39.39-93.63-.62-1.84-26.45,9.56-26.63,10.34-24.76,31.29-39.79,66.88-53.04,105.34-6.14,17.83-10.69,39.97-4.14,58.43,2.37,6.69,6.2,12.17,10.86,16.84,4.58,4.59,3.64,49.39-.51,60.95-10.1,28.15-20.07,73.64-20.03,99.87,0,2.07,4.1,2.47,5.92,3.2,10.83,4.32,42.89,17.57,73.48,69.09,10.64,17.93,15.71,25.86,29.02,41.58,9.87,11.65,37.95,10.54,45.58,1.16,20.53-25.24,42.54-57.19,67.8-77.41,1.91-1.53,23.88-22.65,22.07-23.55Z"/>
    <path class="cls-6" d="M472.93,1059.81c-6.38-12.75-10.29-26.35-11.64-40.55-.13-1.4-2.33-1.41-2.2,0,1.38,14.59,5.38,28.56,11.94,41.66.63,1.26,2.53.15,1.9-1.11Z"/>
    <path class="cls-6" d="M491.17,1037.84c.26-1.38-1.86-1.97-2.12-.58-1.65,8.84-2.3,17.71-1.89,26.7.06,1.41,2.26,1.42,2.2,0-.4-8.79.19-17.46,1.81-26.12Z"/>
    <path class="cls-6" d="M400.91,1025.67c-5.86,14.49-10.67,29.34-14.41,44.51-.34,1.37,1.78,1.96,2.12.58,3.74-15.18,8.55-30.02,14.41-44.51.53-1.31-1.59-1.88-2.12-.58Z"/>
    <path class="cls-6" d="M369.38,1049.16l-7.2-28.77c-.34-1.37-2.46-.79-2.12.58,2.4,9.59,4.8,19.18,7.2,28.77.34,1.37,2.46.79,2.12-.58Z"/>
    <path class="cls-6" d="M369.56,1353.12c-5.29,6.43-9.07,13.68-11.27,21.71-.37,1.37,1.74,1.95,2.12.58,2.1-7.67,5.65-14.6,10.7-20.74.89-1.08-.66-2.65-1.55-1.55Z"/>
    <path class="cls-6" d="M352.72,1355.32c-5.59,4.6-9.95,10.32-12.9,16.93-.57,1.28,1.32,2.4,1.9,1.11,2.88-6.46,7.09-12,12.55-16.49,1.09-.9-.47-2.44-1.55-1.55Z"/>
    <path class="cls-6" d="M335.23,1358.56c-5.08,3.09-9.04,7.54-11.45,12.98-.57,1.28,1.32,2.4,1.9,1.11,2.27-5.11,5.88-9.28,10.66-12.19,1.21-.73.1-2.63-1.11-1.9Z"/>
    <path class="cls-6" d="M526.86,1384.63c-1.78-6.65-4.24-12.9-7.4-18.74-.78-1.44-2.68-.09-1.9,1.36,3.06,5.65,5.45,11.64,7.18,18.09.44,1.64,2.56.94,2.12-.72Z"/>
    <path class="cls-6" d="M546.06,1380.98c-1.93-6.3-5.2-11.52-9.68-15.4-1.16-1-2.25,1.33-1.11,2.33,3.97,3.45,6.96,8.2,8.67,13.79.49,1.61,2.62.91,2.12-.72Z"/>
    <path class="cls-7" d="M400.02,132.56c-.2-5.04,1.33-8.63,5.1-9.3,3.78-.67,5.62,3.91,5.82,8.95.2,5.04-1.08,9.09-5.1,9.3-3.8.19-5.62-3.91-5.82-8.95Z"/>
    <path class="cls-7" d="M453.91,127.95c-.2-5.04,1.33-8.63,5.1-9.3,3.78-.67,5.62,3.91,5.82,8.95.2,5.04-1.08,9.09-5.1,9.3-3.8.19-5.62-3.91-5.82-8.95Z"/>
    <path class="cls-8" d="M472.44,99.27c-6.36-5.52-23.13-9.83-25.59,2.1-1.76,8.55,14.86,8.38,19.66,8.47,2.82.05,6.92.27,8.53-2.62,1.53-2.76-.5-6.13-2.6-7.95Z"/>
    <path class="cls-8" d="M413.47,101.45c-3.52-3.75-10.26-2.87-14.45-1.04-4.77,2.08-9.77,5.86-12.22,10.53-3.88,7.39,7.81,7.42,11.67,6.3,4.92-1.42,22.56-7.73,15-15.79Z"/>
    <path class="cls-6" d="M560.1,1381.46c-1.78-5.12-4.53-9.54-8.09-13-1.1-1.07-2.66.83-1.55,1.91,3.43,3.34,6.03,7.52,7.75,12.46.55,1.59,2.45.22,1.9-1.36Z"/>
    <path class="cls-8" d="M548.67,186.09c-3.66-6.89-10.13-10.63-15.19-16.28-8.42-9.4-2.75-20.16-2.59-31.12.1-7.11-1.7-14.3-5.23-20.49-4.56-7.98-13.18-13.05-16.06-21.97-.26-.8-.82-1.26-1.45-1.43-1.27-.35-2.37-1.11-2.84-2.34-.84-2.22-1.75-4.42-2.72-6.6-5.76-12.91-22.6-12.44-34.18-20.46-10.91-7.56-15.96-27.05-29.5-28.53-26.24-2.87-57.77,16.16-72.9,36.59-12.83,17.32-13.98,37.59-15.13,58.05-.06,1.07-.57,2.1-1.44,2.73-11.47,8.37-28.1,9.1-37.02,21.21-3.93,5.33-4.73,11.31-4.23,17.8.37,4.87,2.88,10.86,1.66,15.53-1.71,6.53-5.28,6.79-9.82,10.03-9.47,6.75-15.87,18.63-11.64,30.26,2.1,5.77,6.24,9.56,11.25,12,1.01.49,1.72,1.44,1.93,2.55.13.69.6,1.3,1.5,1.53,3.53.91,6.9.74,10.06-.19.42-.12.87-.17,1.31-.14,1.4.12,2.79.2,4.15.23,1.45.03,2.14-1.09,2.11-2.21-.04-1.05.55-2.03,1.37-2.67,3.89-3.01,7.3-6.87,10.12-10.64,4.11-5.49,6.35-11.59,9.65-17.5,3.75-6.73,7.58-9.28,15.6-9.5,2.44-.07,4.5.83,7,.47,17.16-2.5,18.2-26.35,17.09-47.42-.06-1.09.38-2.11,1.17-2.86.74-.71,1.47-1.45,2.17-2.22,3.78-4.17,6.75-9.11,8.7-14.39,1.16-3.14,1.22-6.71,2.37-9.75,4.46-11.85,7.6-10.28,15.81-12.98,18.71-6.15,27.22-21.35,36.88-36.33,1.72-2.67,5.79-2.04,6.62,1.02,2.03,7.42,5.84,16.59,7.26,18.75,5.12,7.75,13.96,12.27,18.53,20.59.86,1.57,1.62,3.2,2.3,4.86.18.43.27.9.29,1.37.16,7.43-1.81,14.76-6.13,21.35-5.39,8.21-12.89,13.87-16.08,23.5-3.73,11.26-2.17,26.35,8.11,32.77,1.46.91,2.13,2.64,1.64,4.29-2.22,7.61.66,15.83,7.47,20.84,9,6.63,19.95,5.74,30.23,2.84,1.03-.29,2.15-.16,3.03.45.19.13.43.24.7.31,25.65,6.45,49.12-19.29,36.07-43.89Z"/>
    <path class="cls-1" d="M241.5,492.11c-8.41-14.19-14.47-29.52-22.32-44-7.47-13.79-15.57-22.85-29.89-29.46-3.31-1.53-23.02-12.4-25.52-8.64-20.7,31.17-3.64,67.77,18.09,93.07,29.09,33.87,98.69,96.57,100.7,95.88,8.85-3.03,15.59-9.52,19.06-18.2.61-1.53-42.46-58.86-60.13-88.66Z"/>
    <path class="cls-1" d="M704.85,748.37c-7.51-5.87-14.71-13.31-24.81-13.43-4.22-.05-8.45.25-12.69.68-17.28-1.83-32.97-8.5-48.25-16.22-6.34-3.32-6.2-21.53-6.52-20.75-2.46,5.85-10.86,20.64-13.32,26.5-1.72,4.09-5.27,9.33-5.02,13.85.03.54.24.94.52,1.27,2.18,7.65,2.18,14.7,10.04,18.79,6.4,3.33,14.72,4.83,21.6,7.04l22.62,7.28c.69.22,1.27.1,1.72-.2,2.67.38,5.74.47,7.14-1.39,1.73-2.3-.6-5.34-2.13-7.11-4.93-5.74-12.65-4.31-18.75-7.79-1.05-.6-2.07-1.37-2.54-2.48-2.75-6.45,10.63-3.59,13.04-3.44,10.36.63,16.51,3.89,25,9.08,4.88,2.98,10.43,5.35,15.89,7.03,2.58.79,5.82,1.91,8.72,1.59,2.11-.24,8.35-2.81,4.37-5.19-6.64-3.98-11.43-9.6-17.57-14.07-2.14-1.56-4.61-2.75-7.2-3.76,5.12,1.99,11.36,2.24,16.72,4.27,2.29.86,4.69,2.51,7.19,2.65,1.79.1,7.33-1.77,4.22-4.2Z"/>
    <path class="cls-1" d="M335.7,547.11c-.83-.19-1.09-1.27-.44-1.82,2.98-2.49,6.33-2.49,9.79-1.27,6.07,1.55,12.2,6.22,17.76,3.92,1.13-.47,1.43-1.93.54-2.76-3.07-2.9-6.1-5.76-9.5-8.56-3.02-2.48-8.43-4.97-12.56-5.65-4.39-.73-8.76,1.89-12.64,5.46-.55.51-1.39-.08-1.11-.78.8-1.97,1.37-4.01,1.57-6.18.16-1.81-2.58-3.02-3.75-1.55-3.95,4.97-9.06,10-11.86,15.76-1.24,2.55-1.57,5.32-2.34,8.02-1.5,5.26-3.68,11.08-7.07,15.44-1.98,2.54-5.33,4.84-8.47,2.79-2.18-1.43-3.16-3.96-5.02-5.68-.08-.07-13.91,30.39-13.77,30.54,4.43,4.89,7.08,10.26,13.24,13.72,12.34,6.93,24.72-11.07,29.66-19.85,1.22-2.17,1.38-4.87,3.1-6.76,2.56-2.81,8.24.55,10.89,2.87,3.27,2.86,7.88,4.99,11.41,7.59,1.63,1.2,3.66-.77,3.23-2.48-1.52-6-5.77-12.18-10.52-16.15-.69-.58-1.45-1.03-2.23-1.43-1.25-3.82,7.97,1.12,12.02,1.42,5.41.41,9.98,4.02,13.54-2.73.11-.2,5.12-3.69,3.66-6.53-4.67-5.68-18.64-14.96-29.14-17.33Z"/>
    <path class="cls-6" d="M677.44,745.31c-11.81-.71-22.71-.21-34.28,2.24-1.38.29-.8,2.41.58,2.12,11.37-2.41,22.13-2.86,33.7-2.16,1.41.08,1.41-2.11,0-2.2Z"/>
    <path class="cls-6" d="M688.28,761.32c-5.74-3.77-11.48-7.55-17.22-11.33-1.18-.78-2.29,1.12-1.11,1.9,5.74,3.78,11.48,7.55,17.22,11.33,1.18.78,2.29-1.12,1.11-1.9Z"/>
    <path class="cls-6" d="M359.64,567.71c-9.46-7.55-20.25-15.31-32.95-11.66-1.36.39-.78,2.51.58,2.12,11.92-3.43,22,4.06,30.81,11.09,1.09.87,2.66-.67,1.55-1.55Z"/>
    <path class="cls-6" d="M331.54,568.88c-2.32-.23-4.64-.47-6.96-.7-1.41-.14-1.4,2.06,0,2.2,2.32.23,4.64.47,6.96.7,1.4.14,1.4-2.06,0-2.2Z"/>
    <path class="cls-6" d="M325.48,539.15c-5.98,4.01-10.76,9.3-14.09,15.69-.65,1.25,1.24,2.36,1.9,1.11,3.16-6.05,7.64-11.1,13.31-14.9,1.17-.78.07-2.69-1.11-1.9Z"/>
    <path class="cls-6" d="M554.11,477.41c-.64-1.26-2.53-.15-1.9,1.11,6.56,13.03,9.23,27.27,7.91,41.79-.13,1.41,2.07,1.4,2.2,0,1.35-14.91-1.48-29.54-8.21-42.9Z"/>
    <path class="cls-6" d="M430.22,159.98c-7.38-7.64-3.93-18.22-2.66-27.58.19-1.38-1.93-1.98-2.12-.58-1.4,10.32-4.85,21.35,3.22,29.72.98,1.02,2.53-.53,1.55-1.55Z"/>
    <path class="cls-6" d="M442.56,155.74c-1.93-.52-3.86-1.04-5.79-1.56-1.37-.37-1.95,1.75-.58,2.12,1.93.52,3.86,1.04,5.79,1.56,1.37.37,1.95-1.75.58-2.12Z"/>
    <path class="cls-6" d="M451.72,176.48c-9.96-4.57-22.51-7.44-30.8,1.6-.45.19.16,2.68.81,2.68.12.05,19.2-.97,28.57-1.8.15.03,1.7-2.36,1.42-2.48Z"/>
    <path class="cls-4" d="M437.45,176.8c-3.16.15-17.54-.08-17.71,3.11-.02.29.15.49.38.62-.01.1,0,.22.06.35,1.98,4.29,11.64,5.08,16.75,4.56,3.89-.39,14.68-5.72,15.52-7.58,1.47-3.26-12.54-1.17-14.99-1.06Z"/>
    <path class="cls-6" d="M441.44,192.63c-2.25.39-5.52,1.59-7.59.22-1.18-.79-2.28,1.12-1.11,1.9,2.67,1.78,6.39.5,9.28,0,1.39-.24.8-2.36-.58-2.12Z"/>
    <path class="cls-2" d="M517.42,258.87c-8.62-.74-10.23-10.59-13.43-16.83-2.19-4.27-5.23-7.16-9.68-8.96-5.49-2.23-12.14-2.58-16.36-7.21-4.66-5.11-4.22-13.16-3.89-19.58.07-1.41-2.12-1.41-2.2,0-.31,6.1-.56,13.05,2.65,18.53,3.05,5.21,8.38,7.06,13.88,8.66,4.07,1.19,8.21,2.4,11.14,5.65,3.02,3.36,4.04,7.96,5.91,11.97,2.4,5.13,6.06,9.47,11.97,9.98,1.41.12,1.4-2.08,0-2.2Z"/>
    <path class="cls-2" d="M578.58,257.77c-2.96-1.94-6.11-3.57-9.39-4.89-1.65-.66-3.62-1.01-5.2-1.79-3.98-1.98-3.96-5.97-2.92-9.71,1.77-6.39,1.8-13.09.25-19.54-3.1-12.9-12.27-24.11-24.78-28.81-7.73-2.9-18.25-3.94-22.38-12.1-2.46-4.87-1.52-10.86-1-16.1.54-5.46,1.29-10.89,1.92-16.34,2.22-19.23,2.56-39.87-10.06-55.82-.88-1.11-2.42.46-1.55,1.55,12.68,16.03,11.46,37.18,9.17,56.31-1.68,14.01-7.09,32.35,8.82,39.64,6.59,3.02,13.93,3.96,20.21,7.73,7,4.2,12.36,10.86,15.49,18.34,3.14,7.51,4.04,15.92,1.99,23.84-1.1,4.26-3.23,9.48,1.58,12.18,4.11,2.3,9.11,3.03,13.33,5.36,4.08,2.26,7.85,5.05,11.15,8.35,7,6.99,11.38,15.94,11.45,25.91.01,1.41,2.21,1.42,2.2,0-.11-14.26-8.63-26.44-20.29-34.1Z"/>
    <path class="cls-2" d="M578.07,193.49c-.84-1.12-2.74-.03-1.9,1.11,10.37,13.87,6.29,31.22,2.18,46.59-.37,1.37,1.75,1.95,2.12.58,4.25-15.91,8.31-33.95-2.4-48.28Z"/>
    <path class="cls-2" d="M379.68,183.94c-1.18,11.33-9.87,15.77-19.87,18.22-5.83,1.43-12.13,2.95-16.32,7.6-4.02,4.47-4.17,10.42-4.38,16.11-.36,9.43-1.68,20.64-11.67,24.73-1.29.53-.72,2.65.58,2.12,5.9-2.42,9.69-7.29,11.55-13.33,2.9-9.43-1.17-22.67,7.16-29.62,7.1-5.92,17.33-4.91,25.12-9.51,5.97-3.53,9.32-9.55,10.02-16.33.15-1.4-2.05-1.39-2.2,0Z"/>
    <path class="cls-2" d="M386.42,67.99c-23.08,13.05-38.91,37.02-42.56,63.23-.95,6.81-1.07,13.72-.27,20.56.41,3.5,1.21,6.96,1.43,10.49.4,6.4-2.47,10.27-8.02,13.19-13.6,7.16-26.4,15.71-36.38,27.58-10.64,12.66-17.36,28.28-17.71,44.91-.03,1.41,2.17,1.41,2.2,0,.45-21.08,11.49-39.89,27.11-53.53,7.63-6.67,16.19-11.94,25.13-16.66,7.09-3.74,10.46-8.03,9.82-16.3-.66-8.65-2.37-16.75-1.64-25.5.77-9.29,3.18-18.47,6.94-27,7.24-16.4,19.44-30.23,35.06-39.07,1.23-.7.12-2.59-1.11-1.9Z"/>
    <path class="cls-2" d="M321.65,171.52c-2.59-6.5-3.82-13.19-3.69-20.19.03-1.41-2.17-1.41-2.2,0-.13,7.19,1.11,14.08,3.77,20.77.52,1.3,2.64.73,2.12-.58Z"/>
    <path class="cls-2" d="M442.35,46.44c-1.38-.26-1.97,1.86-.58,2.12,9.81,1.85,15.56,10.98,12.82,20.62-.39,1.36,1.73,1.94,2.12.58,3.04-10.72-3.37-21.25-14.36-23.32Z"/>
    <path class="cls-6" d="M556.73,618.68c2.03,7.58,3.71,15.23,5.04,22.96.23,1.31-1.79,1.88-2.01.56-1.33-7.73-3.01-15.38-5.04-22.96-.35-1.3,1.67-1.85,2.01-.56Z"/>
  </g>
</svg>