<?xml version="1.0" encoding="UTF-8"?>
<svg id="Layer_1" data-name="Layer 1" xmlns="http://www.w3.org/2000/svg" viewBox="0 0 914.82 1421.94">
  <defs>
    <style>
      .cls-1 {
        fill: #873b2d;
      }

      .cls-2 {
        fill: #4d3028;
      }

      .cls-3 {
        fill: #ac5544;
      }

      .cls-4 {
        fill: #e06a58;
      }

      .cls-5 {
        fill: #ffa185;
      }

      .cls-6 {
        fill: #fceae6;
      }

      .cls-7 {
        fill: #de6f57;
      }
    </style>
  </defs>
  <path class="cls-6" d="M550.9,753.24c-12.39-16.99-12.39-37.93,0-54.93l132.25-181.4,152.84-209.64c26.7-36.62-6.67-82.39-60.07-82.39H164.57c-53.39,0-86.76,45.77-60.07,82.39l152.84,209.64,132.25,181.4c12.39,16.99,12.39,37.93,0,54.93l-132.25,181.4-152.84,209.64c-26.7,36.62,6.67,82.39,60.07,82.39h611.35c53.39,0,86.76-45.77,60.07-82.39l-152.84-209.64-132.25-181.4Z"/>
  <g>
    <path class="cls-5" d="M582.87,366.38c15.34-10.34,32.76-15.74,51.27-15.7.29,0,.56.04.82.08,1.9-1.3,4.45-7.55,6-5.04,15.39,24.8,49.34,66.17,62.63,100.6,1.78,4.62,3.8,9.18,5.58,13.72-.08.1-.18.17-.25.27-6.86,8.96-18.87,13.2-30.26,13.01-4.5-3.95-7.36,11.21-11.66,7.05-.6-.58-.51-9.06-3.99-12.07-56.19-48.68-76.63-94.81-91.54-103.59-2.8-1.38,8.03,3.93,11.39,1.66Z"/>
    <path class="cls-3" d="M590.2,213.99c.26-10.04-5.27-21.18-10.81-28.24-5.79-7.38-16.66-11.29-19.32-20.72-2.29-8.11-1.18-16.74-2.65-24.99-1.59-8.92-3.99-17.61-7.56-25.95-7.18-16.8-17.75-29.14-33.08-38.79-7.45-4.69-15.9-8.04-24.71-9.12-19.13-2.34-21.21,2.64-32.01,1.83-36.45-2.75-70.6,29.95-75.16,65.09-1.61,12.4,3.47,28.43-.85,40.19-3.36,9.15-18.75,13.85-25.07,21.69-10.83,13.44-11.76,31.83-.44,45.11.12.32.33.62.68.89,6.09,4.73,12.73,3.19,19.4.41,14.02-5.85,23.39-2.86,37.05,2.51,11.16,4.39,18.82,3.38,30.04-.17,7.82-2.48,15.52-5.39,23.5-7.35,10.84-2.66,19.69-1.13,30.12,2.42,6.9,2.35,11.92,3.59,18.95,1.26,8.27-2.74,14.2-8.54,23.31-9.72,9.84-1.27,18.81,3.36,28.58,2.94,11.17-.48,19.72-7.85,20.02-19.3Z"/>
    <path class="cls-5" d="M449.15,993.93c1.75-2.38,1.58-6.4-1.94-7.58-14.2-4.76-28.66-9.51-43.29-12.54-9.08-1.88-17.12-1.82-24.73,4.12-2.19.63-4.17,2.63-3.93,5.58,2.49,31.74-3.36,61.09-9.89,91.87-5.9,27.8-9.9,55.79-7.02,84.09,14.09,138.68-.72,172.46,2.76,169.62,10.97-8.95,22.97.21,33.51,9.57,1.22,4.46,6.83-61.83,11.54-89.94,4.75-28.34,18.14-54.97,23.14-83.25,4.88-27.61,1.47-56.71,2.96-84.65,1.59-29.88,9.77-57.93,16.9-86.89Z"/>
    <path class="cls-5" d="M624.59,316.77c-5.33-13.46-12.86-21.72-23.12-29.5-12.58-9.53-28.16-10.59-43.36-11.15-7.76-.28-15.57-.39-23.23-1.73-9.24-1.62-13.39-2.73-20.34-8.63-6.04-5.13-10.7-12.61-11.49-25.77-.08-1.38-5.71,6.14-6.76,6.48-12.96-1.6-25.71-1.29-38.62.7-1.19.18-2.01.71-2.55,1.4-.78.49-2.52-4.54-2.69-3.45-3.98,25.03-29.07,30.34-43.54,34.08-14.97,3.87-28.88,3.31-42.18,12.47-20.57,14.17-27.3,37.8-28.16,61.44-.06.29-.12.58-.13.9-.71,15.94-.45,31.84.77,47.76.12,1.51.82,2.63,1.79,3.36.75,3.19,4.78,5.52,7.56,2.4,14.84-16.65,57.39-29.81,58.85-29.64,23.57,2.68,47.28,2.9,70.86.15,22.63-2.64,44.9-7.73,67.75-7.55.47.39,1.05.69,1.76.89,11.81,3.23,22.65.61,34.14-2.9,14.61-4.47,51.64-9.17,66.94-9.92,1.23-.06-18.23-26.61-24.25-41.8Z"/>
    <path class="cls-5" d="M440.76,274.8c-1.16,1.2-.91,3.18.48,4.08,10.88,7.03,22.55,11.36,36.7,9.35,11.99-1.7,22.9-6.97,32.84-13.83,1.17-.81,1.42-2.43.67-3.65-7.2-11.57-8.79-26.07-8.49-39.37.36-16.11,3.45-31.77,5.49-47.75.23-1.83-.49-3.08-1.61-3.76-.96-1.22-2.49-1.95-4.42-1.41-17.09,4.73-34.17,9.46-51.26,14.19-.94-.02-1.85.22-2.58.71-.16.04-.31.09-.47.13-4.07,1.13-2.19,6.94.71,9.08.59.43.97,1.09,1.05,1.83,1.65,14.82,3.19,28.41,2.46,43.4-.57,11.69-4.9,20.07-11.57,27Z"/>
    <path class="cls-7" d="M448.82,202.58c.59.43.97,1.09,1.05,1.83,1.48,13.32,2.86,25.65,2.6,38.88,18.87,3.25,39.54-1.21,51.01-21.49,1.04-12.78,3.33-25.38,4.96-38.17.23-1.83-.49-3.08-1.61-3.76-.96-1.22-2.49-1.95-4.42-1.41-17.09,4.73-34.17,9.46-51.26,14.19-.94-.02-1.85.22-2.58.71l-.47.13c-4.07,1.13-2.19,6.94.71,9.08Z"/>
    <path class="cls-5" d="M395.44,381.65c-3.37-14.37-15.6-24.35-19.45-38.57-.38-1.39-1.63-1.8-2.72-1.54-.48-.32-.95-.63-1.43-.95-.51-1.92-3.39-3.47-5.6.83-4.52,8.79-15,12.17-24.41,9.17-.96-.31-1.15-.01-1.47.19-.87.25-1.62.93-1.67,2.09-2.05,52.38-2.92,104.8-2.67,157.22.03,5.77-.77,11.51-2.38,17.04-3.85,13.23-8.06,26.36-11.05,39.83-4.16,18.72-6.41,37.81-8.29,56.88-4.08,41.41-6.07,102.02-20.56,119.71-.33.4-1.51,3.59-1.4,3.97-.07.03-.14.06-.21.09-2.69,1.2,25.81-6.92,35.17-15.91,1.19.95,28.11-78.42,39.59-115.98,5.09-16.64,6.8-31.95,8.43-49.37,1.12-11.99.24-23.98-.23-35.97-.24-6.21.44-12.41,1.87-18.46,6.71-28.29,12.1-56.86,16-85.69,1.92-14.18,5.81-30.41,2.48-44.6Z"/>
    <path class="cls-5" d="M461.03,874.68c1.25-40.63,3.48-89.37,1.42-129.97-2.17-42.87-2.9-62.28-14.37-96.7-9.47-28.4-20.14-78.37-55.98-79.01-2.62-.05-4.17,1.85-4.58,3.98-1.62-.44-3.4.06-4.52,2.09-36.71,66.06-44.91,144.04-39.69,219.37,2.83,40.86,9.27,81.28,16.29,121.53,3.74,21.48,7.66,42.92,11.26,64.43,3.63,21.7,7.38,43.28,3.4,65.23-.46,2.55,36.5,48.56,39.33,43.06,16.71-32.43,33.72-65.53,40.51-102.16,6.76-36.46,5.8-74.82,6.94-111.83Z"/>
    <path class="cls-5" d="M656.28,1389.03c.12-.21.21-.43.26-.66.55-2.66-1.39-7.01-5.63-10.32-2.77-2.15-15.36-7.22-24.11-10.61-6.73-2.6-28.98-22.66-34.16-29.96-4.73-6.65-6.66-14.23-7.94-22.24-12.36-76.84-9.9-164.33-11.19-242.29,0-.54.03-1.08.11-1.62,1.14-7.9,2.65-23.07,2.16-31.14-1.23-20.05-5.25-32.12-4.13-52.34.16-2.85-1.75-4.46-3.87-4.75-1.56-.22-3-.99-4.28-1.93-12.53-9.22-24.66-18.99-36.22-29.51-10.66-9.7-20.28-21-32.12-29.18-3.22-2.22-12.14-10.24-12.14-9.34.07,16.69,5.93,48.38,8.62,64.86,2.79,17.1,7.82,33.7,10.74,50.76,3.2,18.71.48,36.31-.34,55.01-.72,16.54,1.38,33.07,3.29,49.51,6.7,57.72,33.3,94.22,41.78,191.11,1.32,15.02-8.5,36.4-4.74,50.8,2.6,9.96,22.03,7.64,29.42,7.27,5.92-.3,10.74-.25,16.52,1.43,8.59,2.49,16.9,6.43,25.91,7.21,6.6.58,39.64,1.98,42.06-2.07Z"/>
    <path class="cls-5" d="M507.5,180.04c-.02-4.41,1.57-9.43,2.8-12.75,2.4-6.49,7.21-11.08,13.51-13.57,5.64-2.23,9.6,3.42,9.02,8.9-.86,8.06-8.91,28.96-19.5,26.27-4.06-1.03-5.8-4.76-5.82-8.85Z"/>
    <path class="cls-7" d="M515.39,177.29c1.92-3.84,3.98-7.6,6.23-11.25,1.5-2.44,2.88-5.32,5.9-5.98,1.44-.31,2.05,1.9.61,2.21-3.01.66-5,5.64-6.41,8.08-1.54,2.65-2.98,5.36-4.35,8.1-.66,1.32-2.64.16-1.98-1.16Z"/>
    <path class="cls-5" d="M438.94,184.25c.02-4.41-1.57-9.43-2.8-12.75-2.4-6.49-7.21-11.08-13.51-13.57-5.64-2.23-9.6,3.42-9.02,8.9.86,8.06,8.91,28.96,19.5,26.27,4.06-1.03,5.8-4.76,5.82-8.85Z"/>
    <path class="cls-5" d="M575.59,594.81c.11-2.9-2.19-6.27-5.74-5.7-28.13,4.56-49.91,30.52-64.47,55.08-16.08,27.14-25.36,58.59-29.5,90.32-5.12,39.26-2.97,78.94.67,118.23,3.42,36.95,7.32,74.02,14.38,110.41,3.86,19.9,7.46,40.03,14.32,59.05,4.48,12.43,17.88,46.2,33.27,44.73,12.69-1.21,27.96-5.66,30.06-20.73,46.85-336.43,30.08-407.29,7.02-451.41Z"/>
    <path class="cls-5" d="M523.11,133.83c-1.73-18.18-6.6-37.19-20.31-49.24-12.2-10.73-30.57-12.89-45.73-8.1-19.81,6.26-34.56,23.99-36.45,44.77-1.48,16.21.55,33.22,5.01,48.85,4.72,16.55,14.4,41.14,26.02,51.88,12.46,11.52,33.46,11.52,46.51-.73,13.96-13.12,22.54-53.52,21.92-75.58-.13-4.54,3.48-7.05,3.02-11.84Z"/>
    <path class="cls-7" d="M575.65,348.79c-3.52,9.27-7.04,18.53-10.55,27.8-.52,1.38,1.69,1.98,2.21.61,3.52-9.27,7.04-18.53,10.55-27.8.52-1.38-1.69-1.98-2.21-.61Z"/>
    <path class="cls-7" d="M398.72,369.82c-5.12-5.03-10.26-10.22-12.48-17.21-.45-1.4-2.66-.8-2.21.61,2.36,7.39,7.65,12.9,13.07,18.23,1.05,1.03,2.68-.59,1.62-1.62Z"/>
    <path class="cls-5" d="M588.34,566.75c-4.41-2.24-7.35-4.49-17.51-15.21-4.51-4.76-10.34-8.38-15.6-12.23-5.27-3.86-7.68,7.02-2.34,10.93,4.65,3.4,5.13,3.16,9.31,7.13,4.85,4.61,8.7,10.68,12.81,15.97,4.01,5.16,19.23-3.58,13.32-6.59Z"/>
    <path class="cls-3" d="M456.39,136.64c-.36-1.82-1.56-3.47-3.37-3.94-5.72-1.48-11.28-.6-16.53,2.01-4.18,2.08-9.08,5.28-6.57,10.51,1.71,3.54,6.35,2.29,9.24,1.26,3.99-1.42,7.11-3.1,11.43-3.56,1.88-.2,3.91-.73,5.03-2.26.82-1.13,1.04-2.63.77-4.02Z"/>
    <path class="cls-3" d="M508.95,132.64c-4.03-3.04-11.5-4.05-14.97-4.02-3.7.04-8.55,1.56-9.24,5.76-.26,1.56.21,3.24,1.3,4.39,1.62,1.71,4.23,2.02,6.59,1.87,4.76-.31,8.96-.34,13.54,1.28,2.59.91,4.85-.71,5.37-3.29.51-2.55-.64-4.51-2.6-5.98Z"/>
    <path class="cls-4" d="M559.29,480.91c6.11-12.15,6.52-24.83,10.13-37.72,1.49-5.31,5.36-9.4,7.84-14.21,10.89-21.12,6.37-49.97-8.06-67.19-5.34-6.37-19.86-8.24-27.68-8.33-20.87-.24-41.41,6.28-61.64,10.59-13.47,2.87-34.07-5.63-51.31-7.64-8.79-1.03-18.23-2.48-26.93-.17-9.94,2.64-14.02,12.35-17.94,21.09-5.17,11.52-8.85,24.03-7.4,35.96,1.24,10.23,6.19,18.75,12.63,26.23,3.82,4.44,3.87,21.72,5.4,27.86,2.56,10.32,8.48,26.46,11.46,36.67,4.38,15.02-1.19,28.3-13.58,45.81-7.16,10.13-17.75,30.53-22.72,41.83-.99,2.24-1.15,5.19.65,6.86,21.29,19.78,61.65,70.01,82.28,121.97,3.82,9.62,24.22,20.41,35.24-2.57,43.71-91.12,69.69-107.17,90.65-116.84,7.46-3.44-9.42-31.82-16.11-43.63-6.6-11.65-12.12-25.09-12.05-38.88.06-12.05,3.74-26.91,9.15-37.67Z"/>
    <path class="cls-5" d="M583.63,571.77c13.28-8.35,39.32-48.12,57.73-69.99,5.49-6.52,26.4-29.16,18.75-36.01-3.29-2.95,15.52-17.06,27.95-23.37,5.33,2.21,10.71,4.26,16.33,5.63,5.03,10.69,11.09,23.18,7.62,37.21-1.42,5.71-50.56,64.9-109.16,100.77-1.06.65-11.33,1.82-11.57,1.32-2.19-4.71-5.69-6.86-8.31-10.95-.97-1.51-1.03-3.53.67-4.6Z"/>
    <path class="cls-3" d="M533.18,139.01c-.45-.54-.93-1.02-1.41-1.5-.36-5.5-.22-11.08.51-17.33.91-7.84.81-14.7-3.94-21.29-9.88-13.72-25.49-20.19-41.64-24.82-13.18-3.78-27.89-6.95-34.48,2.39-7.03,2.37-13.46,6.01-19.11,10.84-10.06,5.55-18.44,13.56-22.97,24.96-5.18,13.05-8.48,32.33-4.59,45.18,2.34-1.79,11.76,1.65,14.61,2.67,7.47,2.67,3.84-7.82,5.95-17.94,2.47-11.9,10.5-20.7,18.59-29.28.44-.46.92-.95,1.54-1.05,1.54-.26,3.48,5.13,4.32,6.29,9.67,13.5,28.62,13.29,43.47,12.88,1.5-.04,3.02-.1,4.48.26,8.83,2.19,7.23,17.18,10.43,23.6,3.98,7.96,10.06,14.61,14.21,22.46,4.75,8.97,5.7,19.08,3.74,28.99-.57,2.88,3.85,4.12,4.42,1.22,1.92-9.75,7.3-48.11,7.45-49.57.74-6.85-1.17-13.63-5.57-18.97Z"/>
    <path class="cls-7" d="M473.71,181.43c7.92-8.7,3.01-20.43.83-30.51-.31-1.44,1.97-1.69,2.28-.26,2.38,10.96,7.23,22.81-1.31,32.2-.99,1.09-2.79-.34-1.79-1.43Z"/>
    <path class="cls-7" d="M463.44,176.23c2.45-1.49,5.27-1.98,8.06-1.2,1.4.39,1.06,2.66-.36,2.26-2.17-.61-4.38-.41-6.33.78-1.25.76-2.63-1.07-1.37-1.84Z"/>
    <path class="cls-7" d="M476.79,202.9c-1.67.34-3.33.54-5.03.61-1.47.06-1.48,2.35,0,2.29,1.9-.08,3.78-.31,5.64-.69,1.44-.3.83-2.51-.61-2.21Z"/>
    <path class="cls-7" d="M431.06,181.51c-1.92-3.84-3.98-7.6-6.23-11.25-1.5-2.44-2.88-5.32-5.9-5.98-1.44-.31-2.05,1.9-.61,2.21,3.01.66,5,5.64,6.41,8.08,1.54,2.65,2.98,5.36,4.35,8.1.66,1.32,2.64.16,1.98-1.16Z"/>
    <path class="cls-7" d="M545.3,281.06c-17.51,2.77-35.06,5.78-51.07,13.75-1.32.66-.16,2.64,1.16,1.98,15.82-7.87,33.23-10.78,50.53-13.52,1.45-.23.84-2.44-.61-2.21Z"/>
    <path class="cls-7" d="M459.91,294.2c-14.36-3.99-29.03-6.02-43.93-6.09-1.48,0-1.48,2.29,0,2.29,14.7.07,29.16,2.08,43.32,6.01,1.42.4,2.03-1.82.61-2.21Z"/>
    <path class="cls-7" d="M363.21,501.78c-4.77,9.5-7.1,19.64-6.91,30.27.03,1.47,2.32,1.48,2.29,0-.18-10.25,2-19.95,6.6-29.12.66-1.31-1.32-2.48-1.98-1.16Z"/>
    <path class="cls-7" d="M382.73,1032.01c.05-14.76,2.82-29.4-.59-43.98-.36-1.52-2.6-1.02-2.24.51,3.53,15.08.3,30.26.55,45.52.24,14.33,6.94,27.1,7.46,41.26.06,1.55,2.35,1.71,2.29.14-.55-14.95-7.53-28.27-7.47-43.46Z"/>
    <path class="cls-7" d="M412.45,1031.59c-3.3,8.14-6.33,16.38-9.1,24.74-.49,1.48,1.68,2.26,2.17.78,2.77-8.36,5.8-16.61,9.1-24.74.58-1.44-1.59-2.21-2.17-.78Z"/>
    <path class="cls-7" d="M542.67,1074.27c-1.88-12.07-5.64-23.44-11.27-34.08-.73-1.38-2.76-.24-2.03,1.14,5.53,10.45,9.22,21.62,11.06,33.48.24,1.56,2.48,1.02,2.24-.54Z"/>
    <path class="cls-7" d="M569.77,1041.19c-3.79,17.92-7.99,35.73-12.59,53.42-.4,1.53,1.78,2.3,2.18.77,4.61-17.7,8.81-35.5,12.59-53.42.32-1.54-1.85-2.31-2.18-.77Z"/>
    <path class="cls-5" d="M330.18,716.58c-10.34,9.57-34.02,23.22-33.42,23.67-5.24,7.97-23.37,13.96-34,15.99-7.39,1.41-13.78,2.36-19.97,7.01-6.99,5.25-8.63,14.4-11.92,21.99-.25.58-7.91,9.79-9.67,11.96-4.64,5.69-.6,9.95,7.59,6.78.31-.12.64.11.62.44-.07,1.14,2.4,4.93,8.07,1.64,2.54-1.47,4.86-4.32,6.92-6.12,12.29-10.71,26.5-20.11,43.41-20.07,2.57,0,8.8-.28,9.72,3.07,1.31,4.76-9.58,10.59-12.37,12.35-3.88,2.46-6.8,5.16-6.94,9.97-.12,4.06,5.92,6.61,7.83,3.24,2.71-4.79,8.18-5.86,9.75-7.48,2.73-2.81,5.99-5.04,9.35-7.04,3.22-1.92,6.79-3.22,9.1-6.3,3.13-4.16,3.29-9.92,3.69-15.18.12-3.7.24-7.4.97-11.01.88-4.33,2.2-8.59,3.52-12.81,2.92-9.38,6.33-18.63,9.03-28.08.31-1.09.61-2.18.88-3.28.33-1.38-1.68-1.98-2.15-.75Z"/>
    <path class="cls-7" d="M272.03,769.8c-8.11,2.55-18.38,4.86-25.32,10.02-6.53,4.85-11.62,13.34-16.03,20.02-.81,1.24,1.17,2.38,1.98,1.16,4.36-6.62,9.1-14.64,15.6-19.37,6.73-4.91,16.51-7.14,24.39-9.61,1.4-.44.8-2.65-.61-2.21Z"/>
    <path class="cls-7" d="M249.92,767.87c-6.27,3.04-11.49,7.52-15.51,13.2-.85,1.21,1.13,2.35,1.98,1.16,3.79-5.36,8.79-9.52,14.69-12.38,1.33-.64.17-2.62-1.16-1.98Z"/>
    <path class="cls-5" d="M603.2,574.45c-2.65-2.42-5.62-4.38-8.95-5.72-3.37-1.36-10.66-3.35-11.07-3.59-2.93-1.73-5.69-3.76-8.57-5.57-1.98-1.24-4-2.42-6.05-3.54-2.59-1.42-4.7-2.76-6.9-4.73-2.04-1.82-4.06-3.65-6.2-5.36-3.88-3.1-8.85-6.74-14.1-6.38-8.35.57-17.14,11.51-22.16,17.31-4.32,4.98,5.91,6.59,10.26,1.58,2.82-3.25,6.58-6.62,11.04-7.63,2.54-.58,5.31.7,7.96,2.6,1.06.76,1.05,2.35-.05,3.05-.92.58-1.85,1.32-2.84,2.28-5.93,5.75-13.2,14.96-18.24,21.47-4.01,5.18,5.71,9.64,9.76,4.4.02-.03.05-.06.07-.09,1.79,2.25,7.08,1.1,9.52-1.68,4-4.56,6.4-7.02,11.85-9.23.3.5.2.34.5.84-5.42,4-9.04,12.25-10.88,18.47-1.88,6.35,7.69,4.32,9.56-2,.59-2.01,3.23-7.79,6.31-6.04,3.72,2.12,16.95,11.38,24.84,9.6,7.16-1.62,15.9-5.1,17.97-19.54,0-.04-3.51,1.24-3.51,1.2.37-.47.47-1.15-.11-1.68Z"/>
    <path class="cls-7" d="M567.02,558.36c-12.1-4.5-22.17,11.58-27.04,20.33-.72,1.29,1.26,2.45,1.98,1.16,4.26-7.65,13.8-23.24,24.45-19.28,1.38.52,1.98-1.7.61-2.21Z"/>
    <path class="cls-7" d="M628.01,1387.63c-3.51-3.72-7.6-6.6-12.21-8.64-1.36-.6-2.06,1.66-.71,2.26,4.24,1.88,8,4.57,11.23,7.98,1.03,1.09,2.73-.5,1.69-1.6Z"/>
    <path class="cls-7" d="M639.6,1387.32c-3.61-3.9-7.74-7.12-12.37-9.62-1.3-.7-2.55,1.28-1.24,1.99,4.45,2.41,8.44,5.47,11.92,9.23,1.02,1.1,2.72-.49,1.69-1.6Z"/>
    <path class="cls-7" d="M648.98,1385.3c-2.23-3.12-4.94-5.79-8.03-7.98-1.22-.87-2.46,1.13-1.24,1.99,2.94,2.08,5.46,4.62,7.58,7.59.88,1.23,2.57-.38,1.69-1.6Z"/>
    <path class="cls-5" d="M394.26,1366.17c3.54-27.11,3.14-32.48,2.85-42.74-1.08-4.88-3.64,2.41-8.05-1.2.29-.43.28-1.01-.34-1.35-9.07-4.95-8.8-27.47-27.29.6.09,1.5-3.43,14.07-4.51,15.5-7.15,9.42-12.78,19.56-18.88,29.69-3.72,6.17-7.01,8.89-10.75,15.01-.93,1.53-1.33,3.64-.31,5.1,3.79,5.44,13.37,3.29,18.71,3.84,14.6,1.51,27.32-.47,39.31.72,7.44,1.39,10.7-3.95,10.14-10.72-.4-4.77-1.5-9.61-.86-14.46Z"/>
    <path class="cls-7" d="M366.19,601.54c-8.01,22-13.93,44.64-17.7,67.74-.24,1.44,1.97,2.06,2.21.61,3.77-23.11,9.69-45.74,17.7-67.74.51-1.39-1.71-1.99-2.21-.61Z"/>
    <path class="cls-7" d="M380.52,1369.38c-1.74,4.95-3.13,10-4.16,15.17-.31,1.53,1.9,2.18,2.21.65,1.04-5.17,2.42-10.22,4.16-15.17.52-1.47-1.7-2.1-2.21-.65Z"/>
    <path class="cls-7" d="M366.4,1368.52c-2.18,5.16-3.82,10.49-4.88,16.04-.29,1.53,1.92,2.18,2.21.65,1.02-5.34,2.55-10.49,4.65-15.46.6-1.42-1.38-2.66-1.98-1.23Z"/>
    <path class="cls-7" d="M353.46,1371.33c-2.9,4.01-5.32,8.33-7.27,12.94-.6,1.42,1.38,2.66,1.98,1.23,1.94-4.62,4.36-8.93,7.27-12.94.9-1.24-1.09-2.45-1.98-1.23Z"/>
    <path class="cls-1" d="M411.46,164.84c-5.54,3.57-9.41,7.15-9.89,14.05-.34,4.88.93,10.16-2.54,14.29-2.46,2.92-6.49,4.27-9.82,5.9-10.49,5.14-15.89,16.51-9.65,27.3.74,1.28,2.72.12,1.98-1.16-3.63-6.28-3.04-14.55,2.17-19.85,4.04-4.12,10.05-5.14,14.6-8.51,3-2.23,4.74-5,5.34-8.7.59-3.62-.22-7.32.45-10.93.94-5.06,4.38-7.76,8.52-10.42,1.24-.8.09-2.78-1.16-1.98Z"/>
    <path class="cls-1" d="M427.26,225.59c-9.52-.75-15.45-9.56-12.87-18.69.4-1.42-1.81-2.03-2.21-.61-3.01,10.65,4.1,20.72,15.08,21.59,1.47.12,1.46-2.18,0-2.29Z"/>
    <path class="cls-1" d="M545.58,204.93c-3.3-7.76-10.69-14.2-16.14-20.39-.98-1.11-2.59.52-1.62,1.62,4.42,5.02,9.42,9.91,13.22,15.44,4.6,6.69,4.06,12.74.03,19.68-.74,1.28,1.24,2.43,1.98,1.16,3.3-5.67,5.22-11.16,2.52-17.51Z"/>
    <path class="cls-1" d="M458.16,83.85c-6.11,5.77-10.35,12.92-12.48,21.06-.37,1.43,1.84,2.04,2.21.61,2.04-7.78,6.04-14.52,11.89-20.04,1.07-1.01-.55-2.63-1.62-1.62Z"/>
    <path class="cls-1" d="M562.7,188.59c-4.14-6.97-10.14-12.6-17.61-15.86-2.68-1.17-6.23-1.53-7.33-4.67-.85-2.41-.19-5.99-.09-8.51.23-5.69.43-11.3-.25-16.97-2.28-19.12-12.36-36.71-29.62-45.92-1.3-.69-2.46,1.28-1.16,1.98,20.24,10.8,29.44,32.83,28.97,55.02-.11,5.4-2.8,15.36,2.83,18.95,3.52,2.25,7.91,2.95,11.47,5.38,4.5,3.07,8.04,7.08,10.82,11.75.75,1.27,2.74.12,1.98-1.16Z"/>
    <path class="cls-7" d="M490.79,191.65c-1.49.78-3,1.44-4.52,2.06-.23-.38-.65-.61-1.2-.43-3.86,1.29-7.68-.9-11.63-.27-3.56.57-7.06,2.5-10.38,3.87-1.14-.13-2.28-.27-3.43-.48-1.44-.26-2.06,1.95-.61,2.21,1.3.24,2.59.41,3.88.55.09.03.19.05.3.04,9.97,1.01,19.7-.86,28.74-5.57,1.31-.68.15-2.66-1.16-1.98Z"/>
    <path class="cls-2" d="M492.9,153.2c.02-4.41,1.57-7.49,5.07-7.93,3.5-.44,5.02,3.64,5,8.05-.02,4.41-1.36,7.91-5.07,7.93-3.5.02-5.02-3.64-5-8.05Z"/>
    <path class="cls-2" d="M443.76,156.38c-.11-4.41,1.36-7.53,4.84-8.07,3.49-.54,5.12,3.49,5.22,7.91.11,4.41-1.13,7.94-4.84,8.07-3.5.12-5.12-3.49-5.22-7.91Z"/>
  </g>
</svg>