<?xml version="1.0" encoding="UTF-8"?>
<svg id="Layer_1" data-name="Layer 1" xmlns="http://www.w3.org/2000/svg" viewBox="0 0 914.82 1421.94">
  <defs>
    <style>
      .cls-1 {
        fill: #9e5047;
      }

      .cls-2 {
        fill: #4d3028;
      }

      .cls-3 {
        fill: #612b2c;
      }

      .cls-4 {
        fill: #fff;
      }

      .cls-5 {
        fill: #2b1f1b;
      }

      .cls-6 {
        fill: #fceae6;
      }

      .cls-7 {
        fill: #783c3e;
      }

      .cls-8 {
        fill: #c26e62;
      }
    </style>
  </defs>
  <path class="cls-6" d="M671.27,384.93c2.73-12,4.21-24.42,4.33-37.14.97-103.47-90.1-189.19-202.66-190.63-114.88-1.47-208.51,83.7-208.51,188.97,0,14.11,1.68,27.87,4.88,41.1,15.19,62.94-6.45,128.83-55.83,174.61-64.72,60-104.7,142.59-104.7,233.77,0,183.22,162.37,332.3,361.69,332.08,199.3-.22,360.8-148.81,360.8-332.07,0-91.3-40.09-173.99-104.96-234.01-50.01-46.27-69.54-112.81-55.04-176.66Z"/>
  <g>
    <path class="cls-7" d="M544.57,158.47c-8.45-16.62-27.71-32.03-45.68-38.26-8.09-2.81-17.31-3.34-25.01.82-4.01,2.17-6.88,5.4-9.91,8.69-6.28,6.81-11.73,8.75-21.2,6.71-17.72-3.83-35.44-4.03-46.3,12.84-7.92,12.3-8.17,35.72,5.38,44.5,1.06.69,2.09.67,2.94.25,6.85,8.26,17.73,14.65,27.57,15.46,8.77.72,18.77-.29,27.28-2.57,4.21-1.13,8.16-2.81,11.81-5.13,4.21-2.68,8.26-8.43,14.14-5.77,2.71,1.23,4.92,4.86,7.62,6.49,3.36,2.03,7.22,3.22,11.16,3.58,7.86.72,15.56-1.97,22.07-6.08,14.61-9.23,18.81-22.5,17.95-38.26.62-.89.82-2.05.21-3.26Z"/>
    <path class="cls-8" d="M316.61,520.64c-6.51-7.99-12.39-16.34-17.44-25.28-12.24-21.63-15.72-49.49-27.69-71.76-.19-.35-.34-.71-.46-1.08-13.51-2.03-26.05-11.15-39.7-8.59-9.25,1.73-13.8-1.69-27.35,14.5-.91,22.63,11.21,33.42,19.39,45.02,23.9,33.93,54.93,63.11,90.15,85.89.08.05.16.08.23.12.75.84,2.17,1.78,3.36.87,5.6-4.27,13.94-21.51,13.94-21.51-2.23-6.05-10.39-13.23-14.43-18.18Z"/>
    <path class="cls-8" d="M389.46,348.37c-.2-.86-.44-1.76-.7-2.66.11-.29.2-.6.23-.95,2.72-29.2-40.44-82.44-69.4-60.96-2.8,2.08-6.09.9-8.68-1.43-.07-.06-.11-.02-.21.1-19.76,21.75-39.09,43.89-57.36,66.84-17.46,21.92-40.41,46.39-48.37,73.44-.55,1.88-.85,3.78-1,5.69,6.83-5.44,15.65-8.75,24.11-10.55,14.3-3.04,29.72,4.49,43.89,6.65-2.15-4.48-.61-7.46.56-8.67,22.24-22.94,51.45-36.53,73.22-60.49,4.37-4.81,8.64-9.7,13.02-14.5,3.56-3.9,12.55-7.58,18-4.99,3.52,1.67,5.2,10.97,5.98,14.28,1,4.23,7.73,2.44,6.72-1.79Z"/>
    <path class="cls-8" d="M459.97,1362.92c3.71-8.67-10.19-17.6-15.54-26.04-3.43-5.4-3.61-11.59-4.56-17.76-1.43-9.31-2.76-18.64-3.98-27.99,2.17-52.87,10.12-104.78,21.1-156.75,5.45-25.83,10.43-52.06,8.71-78.48-1.68-25.88-14.29-50.79-12.94-76.75.2-3.96-6.24-4.64-7.55-1.44-7.51-2.45-15.4-3.01-22.75-1.68-.69-.3-1.53-.42-2.5-.24-10.01,1.88-21.2,4.29-27.78,11.62-8.38,9.33-4.45,22.84-5.46,33.85-.72,7.82-2.11,15.51-3.79,23.14l-.79,3.06c-.07.29-.1.56-.1.83-5.02,21.57-11.87,42.78-11.94,65.22-.2,57.99,26.45,113.75,24.22,171.77-9.52,17.86-22.39,75.54-12.14,79.47,11.51,4.41,75.67,3.15,77.8-1.83Z"/>
    <path class="cls-8" d="M632.01,319.63c-9.28-29.83-21.57-52.06-46.53-70.27-11.04-8.05-24.14-11.72-37.82-12.57-11.9-.74-25.12,1.4-36.98-.7-10.5-1.86-17.69-11.32-17.07-21.63.25-4.06.7-8.08.98-11.86.97-12.89,2.54-25.7,4.59-38.47,2.3-1.46,1.62-6.01-2.01-6.31-16.65-1.38-33.27-1.68-49.96-.9-3.97.19-4.42,5.53-1.32,6.57.43,12.68.73,25.37.84,38.06.06,6.44.6,13.3-.7,19.63-1.42,6.8-7.74,11.62-14.81,11.56-6.49-.05-13.49-1.99-19.19-2.89-7.39-1.16-14.87-2.14-22.37-2.24-13.25-.17-26.05,2.5-37.57,8.94-25.45,14.24-31.82,34.2-51.82,57.47-1.97,2.29,1.48,12.83,3.77,12.82.49,1.06,1.48,1.89,3,1.98,22.05,1.2,43.75,4.9,63.23,14.51,2.52,9.95,5.77,19.64,17.25,21.11,21.45,2.75,43.73,2.82,65.33,4.21,21.03,1.35,42.05,2.71,63.08,4.06,7.26.47,17.26,3.03,24.23.07,6.23-2.64,10.96-9.94,15.26-15.41,20.71-5.38,42.31-5.26,63.86-4.82,1.78.04,2.84-1.01,3.21-2.28,1.63-.49,10.15-8.61,9.51-10.64Z"/>
    <path class="cls-1" d="M445.9,163.48c.43,12.68.73,25.37.84,38.06.03,3.11.17,6.32.16,9.53,12.71,1.81,25.46-2.74,35.24-11.36,6.84-6.02,11.58-13.47,15.02-21.53.62-4.69,1.28-9.37,2.03-14.05,2.3-1.46,1.62-6.01-2.01-6.31-16.65-1.38-33.27-1.68-49.96-.9-3.97.19-4.42,5.53-1.32,6.57Z"/>
    <path class="cls-8" d="M475.72,692.53c-2.46-22.62-24.73-24.89-28.59-47.33-3.46-20.08-6.72-41.55-18.52-58.92-19.96-29.38-60.4-41.84-94.36-30.11-.35.12-.65.29-.92.48-1.4-.52-3.02-.21-3.86,1.51-34.25,70.27-27.88,151.75-10.62,226.35,18.25,78.86,54.42,150.91,68.09,231.02,1.31,7.69,2.37,15.43,3.11,23.2.18,1.88,1.63,2.95,3.16,3.18,11.86,7.31,26.91,4.64,37.42-4.19,12.15-10.21,16.95-26.42,19.68-41.19,8.4-45.38,11.25-92.39,12.38-138.42,1.19-48.5,18.28-117.34,13.03-165.59Z"/>
    <path class="cls-8" d="M688.49,427.17c-7.39-34.53-28.83-62.54-47.5-91.61-16.21-25.24-22.28-57.29-45.76-77.62-1.12-.97-106.85,107.09-45.38,81.59,8.53-3.53,19.48,22.88,21.83,27.56,7.99,15.88,19.6,29.51,31.46,42.61,10.75,11.88,25.13,23.32,27.11,40.31.23,1.98-.05,4.02-.34,5.97-.2,1.32,20.44-13.01,30.51-10.91,11.64,2.42,22.97-3.05,26.09-14.32.63-.72,2.25-2.4,1.99-3.57Z"/>
    <path class="cls-8" d="M614.48,659.27c-3.33-37.39-14.03-73.96-34.63-107.99-.46-.76-1.08-1.21-1.74-1.44-.58-1.42-1.99-2.41-3.91-1.7-58.56,21.58-91.25,76.9-106.08,133.11-9.09,34.48-13.25,70.19-17.24,105.5-4.27,37.85-7.3,75.84-9.06,113.88-1.36,29.34-2.12,58.95,2.25,87.93-1.02,12.05-1.89,24.36,0,35.88,2.19,13.29,10.31,24.03,19.18,33.96-.15.69-.08,1.46.35,2.25,6.36,11.74,22.15,10.13,31.97,3.58,15.02-10.02,18.78-28.28,23.78-44.06.32-1,.16-1.86-.27-2.54-3.98-6.31,9.29-37.9,11.57-45.17,4.91-15.66,10.65-31.05,16.76-46.28,12.1-30.19,25.76-59.73,37.43-90.09,21.7-56.43,34.9-117.64,29.63-176.81Z"/>
    <path class="cls-1" d="M563.58,305.54c-3.16,12.45-11.46,22.68-16.55,34.36-.57,1.32,1.43,2.47,2.01,1.14,5.17-11.86,13.58-22.25,16.79-34.9.36-1.41-1.88-2.01-2.24-.6Z"/>
    <path class="cls-1" d="M380.94,331.77c-7.1-9.28-11.87-19.68-14.21-31.01-.29-1.42-2.53-.82-2.24.6,2.38,11.52,7.22,22.1,14.45,31.54.88,1.15,2.9.03,2.01-1.14Z"/>
    <path class="cls-8" d="M558.52,1328.73c-1.43-2.95-2.29-6.14-2.48-9.4-1.07-17.78-1.55-26.88-5.36-44.11-3.81-17.27-2.9-42.66-3.96-60.43-2.63-44.12,10.06-88.26,4.33-132.17-2.66-20.38-10.8-39.04-17.92-58.22-3.97-10.69-14.78-19.17-4.92-45.09,2.44-6.41-5.15-4.48-9.28-10.29-7.68-10.79-24.57,4.43-31.07,9.37-14.89,11.32-27.04,25.28-36.56,41.07-2.04-.51-4.45.51-4.25,3.1,3.65,47.52,7.34,95.48,20.01,141.71,12.14,44.31,42.67,88.59,37.79,135.71-2.2,6.72-4.08,13.5-5.22,20.55-1.18,7.34-1.79,14.98-5.65,21.58-.03.04-14.51,15.3-7.8,20.39,6.41,4.87,62.85.4,71.65-.64,4.77-.56,8.02-4.97,7.44-9.59-.87-6.97-4.05-18.01-6.73-23.55Z"/>
    <path class="cls-8" d="M509.39,78.08c-6.58-13.02-18.98-21.49-37.3-21-18.78.51-38.72,8.14-50.22,22.44-11.84,14.73-14.09,34.17-11.77,52,1.46,11.17,4.61,22.21,9.37,32.54,6.88,14.93,15.82,28.34,34.29,30.77,20.93,2.76,41.82-6.04,49.23-21.83,11.02-23.46,14.31-50.92,11.63-76.35-.72-6.78-2.46-13.08-5.23-18.58Z"/>
    <path class="cls-4" d="M470.75,151.24l-24.31,4.89c-.38.08-.6.29-.71.56-.48.36-.73,1.05-.18,1.6,2.78,2.81,6.63,5.57,10.89,4.94,6.15-.91,12.72-4.93,15.56-10.41.44-.86-.28-1.77-1.25-1.57Z"/>
    <path class="cls-2" d="M584.38,555.62c-6.14-18.39-18.08-44.77-27.6-61.72-5.25-9.35-9.77-18.98-10.8-29.78-3.43-35.69,17.56-59.85,20.97-90.14,1.27-11.31-4.5-25.71-11.2-35.76-9.61-14.4-32.89-11.16-47.6-8-12.47,2.68-23.44,9.68-35.63,12.36-7.36,1.62-15.33-1.25-21.88-4.28-19.57-9.06-46.28-25.62-68.58-16.83-19.41,7.65-26.57,39.98-23.02,56.93,4.89,23.39,16.88,37.83,20.73,58.45,4.54,24.27-14.48,47.53-26.58,67.31-11.7,19.14-22.7,38.58-28.58,60.22-1.47,5.42,14.58,5.18,17.86,5.98,53.03,12.96,70.8,74.92,98.65,113.43,3.62,5.01,6.83,6.98,13.35,7.77,8.87,1.07,18.66-.77,20.1-3.19,12.7-21.4,23.56-57.04,41.25-80.45,34.86-46.13,69.62-49.17,68.56-52.32Z"/>
    <path class="cls-8" d="M602.39,547.5c-3.18-6.58-10.83-17.95-16.7-23.16-7.3-6.48-16.28-11.58-23.78-18-1.76-1.5-5.05-1.15-6.18.94-2.87,5.27,3.41,13.49,7.29,16.55,5.23,4.13,11.99,5.93,17.99,8.72.71.33,1.4.44,2.05.41,2.69,3.72,4.55,7.85,6.7,12.3,1.9,3.95,14.57,6.24,12.64,2.23Z"/>
    <path class="cls-1" d="M475.06,150.68c-1.13.16-2.26.29-3.45.39-4.39.13-7.71-1.05-12.1-.92-3.37.1-8.72-.77-11.62,1.06-2.64,1.67-2.91,4.45-3.12,4.72-.79,1.02-1.82,1.42-3.38,2.06-1.31.54-.18,2.38,1.12,1.85,3.08-1.27,5.38-3.23,8.66-4.16,6.55-1.86,13.55-2.26,20.34-2.46.03,0,.06,0,.13-.01,1.34-.13,2.68-.27,4.01-.46,1.4-.2.81-2.26-.59-2.07Z"/>
    <path class="cls-8" d="M683.1,410.81c-2.39-6.08-14.42-13.31-24.73-5.92-11.42,8.18-23.77,28.73-26.39,41.28-20.3,97.15-36.48,122.43-34.85,123,7.47,2.6,14.94,5.19,22.4,7.79.37.13.72.18,1.05.19,1.49.75,3.43.61,4.51-1.21,15.14-25.71,38.35-59.53,51.13-86.41,5.4-11.35,12.52-28.46,14.1-41.02,1.63-13.01-2.73-25.62-7.22-37.69Z"/>
    <path class="cls-7" d="M489.34,90.8c-1.8-1.45-4.58-2.48-5.99-3-4.59-1.7-9.74-2.41-14.57-1.24-2.67.65-5.2,2.38-5.41,5.28-.14,1.94.91,3.69,2.7,4.56,1.15.56,2.45.77,3.74.9,5.26.53,10.56.11,15.8-.39,1.61-.15,3.51-.05,4.63-1.4,1.52-1.84.69-3.43-.9-4.71Z"/>
    <path class="cls-7" d="M434.82,97.35c-3.46-2.93-9.7-.64-12.95,1.47-4,2.59-6.7,6.17-8.5,10.45-.08.18-.12.36-.16.53-.41,1.7.03,3.27,1.82,4.08,2.05.93,3.56-.49,5.11-1.66,3.17-2.38,21.68-8.95,14.69-14.88Z"/>
    <path class="cls-8" d="M615.49,564.17c-.54-.22-.96-.6-1.21-1.08-4.84-9.23-32.15-38.57-38.75-42.27-8.7-4.88-13.42-3.05-22.64,2.51-3.43,1.43-6.76,3.06-9.94,4.94-5.19,3.06-14.11,7.28-12.6,13.69.36,1.55,2.05,2.34,3.65,2.48,5.56.48,20.74-11.8,22.25-6.98.01.05,0,.1,0,.15-.04,1.09-25.35,13.66-26.05,22.77-.16,2.05,2.57,4.01,4.79,3.25.44-.15.86-.33,1.29-.5.22,1.94,1.6,3.09,3.76,3.32,4.21.44,9.16-.84,13.55-1.6-1.63.72-3.22,1.58-4.74,2.63-1.6,1.11-1.32,3.62,0,4.77,1.84,1.61,7.13.72,12.14-.64,6.84-1.86,14.08-.24,19.66,4.01,6.28,4.78,15.19,12.56,34.92,9.69,7.62-1.11,17.7-23,17.7-23,0-4.34-13.56,3.54-17.78,1.84Z"/>
    <path class="cls-8" d="M406.7,514.26c-13.06-6.94-26.86-14.54-36.5-13.07-2.55.39-10.7,3-12.75,4.54.6-.77,1.23-1.53,1.82-2.31,2.46-3.24-.16-10.09-2.96-7.7-6.16,5.26-15.58,13.39-19.95,20.29-4.74,7.5-7.18,16.84-13.67,23.22-.97.96-22.3,10.43-21.55,11.74,7.09,12.48,19.2,14.54,20.76,14.67,7.3.6,11.94-7.01,15.11-9.74,1.23-1.05,2.14-2.35,2.92-3.75,1.13-2.02,5.76-3.88,7.56-2.53,2.8,2.09,3.14,4.52,7.26,8.44,2.56,2.43,11.86,3.78,10.69.67-1.96-5.24-3.72-9.26-6.29-12.69-.88-1.17.54-2.63,1.79-1.84,5.21,3.33,9.29,8.23,15.02,10.94,1.54.73,5.65,1.77,6.65.88,1.77-.72,3-2.65,1.68-4.68-3.55-5.46-7.24-10.97-12.61-14.91-1.82-1.33-3.84-2.37-5.92-3.27-1.05-.45-2.12-.87-3.19-1.27-.42-.16-3.6-.66-2.78-1.49.16-.16.39-.21.62-.25,3.16-.54,6.4.21,9.44,1.02,2.97.79,5.83,1.93,8.59,3.24,1.78.85,3.52,1.78,5.23,2.77,1.98,1.14,3.85,2.72,5.9,3.71,7.13,4.88,13.91-1.22,11.31-3.84-6.29-6.35-14.12-11.73-22.03-16.11-2.88-1.6-6.07-2.55-9.32-3.15-1.56-.29-3.14-.4-4.72-.53-1.23-.1-2.72.32-3.88-.2-1.12-.51-.13-.87.63-1.16,1.29-.49,2.62-.51,3.95-.83,1.73-.41,3.51-.53,5.28-.44,3.75.2,7.37,1.36,10.92,2.44,4.26,1.3,8.51,2.6,12.93,3.28,3.07.48,6.39,1.25,9.49.59,2.99-.64,6.62-4.52,2.57-6.67Z"/>
    <path class="cls-7" d="M572.27,123.44c-2.23-1.97-4.73-3.75-7.46-5.27-2.96-1.65-7.36-3.2-9.09-6.36-1.2-2.18-1-5.95-1.45-8.34-1.66-8.66-4.57-16.6-9.96-23.76-5.86-7.76-13.48-13.63-22.15-17.46-.29-.13-.56-.3-.79-.51-7.13-6.34-16.13-10.08-25.81-10.93-.87-.08-3.82-3.78-4.69-4.46-2.18-1.71-4.58-3.17-7.08-4.39-4.18-2.02-8.77-3.6-13.4-4.26-10.91-1.55-28.51,2.54-34.95,12.6-.64,1.01-1.86,1.52-3.08,1.45-1.25-.08-2.78-.3-4.83-.53-16.03-1.81-30.63,5.18-37.63,19.44-3.31,6.73-4.74,14.27-4.69,21.7.04,6.14,2.9,12.46,2.51,18.78-.21,3.36-.69,5.61-3.67,6.94-2.91,1.3-6.72,1.32-9.8,2.61-12.33,5.19-22.85,16.6-26.11,29.31-3.75,14.61,4.08,27.64,16.44,33.58.6.29,1.09.72,1.43,1.28,7.05,11.75,21.47,23.08,35.62,14.39,5.36-3.29,8.44-8.93,8.05-15.03-.3-4.76-2.68-8.86-4.13-13.31-1.6-4.9-1.26-8.81.24-12.59.19-.12.38-.26.55-.42,5.11-4.75,8.58-10.45,9.33-17.38,1-9.25-5.83-18.25-.23-26.84,4.81-7.38,11.64-13.38,16.4-20.89.32-.5.63-1,.93-1.51,1.15-1.9,3.83-2.19,5.4-.6,6.89,7.04,23.88,3.22,32.26,1.28,3.25-.75,7.13-1.73,9.91.66,2.4,2.07,4.04,7.89,6.15,10.62,1.44,1.85,2.99,3.61,4.69,5.25,8.35,8.06,15.98,17.52,27.52,18.73,1.02.11,1.98.62,2.52,1.47,12.18,18.76,1.79,41.76-15.49,54.98-7.6,5.82,13.57,12.81,16.96,12.67,7.5-.3,13.56-5.01,19.62-8.8,15.8-1.07,30.73-8.26,38.22-22.41,7.96-15.05,3.62-31.18-8.24-41.67Z"/>
    <path class="cls-7" d="M503.04,83.14c-1.69.04-2.7,1.08-3.05,2.31-.16.15-.32.32-.46.52-4.39,6-7.04,12.67-7.38,20.07-.15,3.36.17,6.71.97,9.99.41,1.68,1.49,3.49,1.72,5.16.64,4.62,1.45,2.31-2.01,4.4-6.12,3.71-11.51,4.74-15.96,11.06-3.77,5.36-5.61,12.01-4.83,18.48.7,5.8,3.4,9.51,7.65,13.36,2.19,1.98,2.69.53,4.22,3.58,1.39,2.75.21,2.44.46,4.92.25,2.5.04,4.32,1.12,6.72,5.43,12.1,19.22,10.04,29.9,5.88.72.87,1.86,1.41,3.3,1.08,30.86-7.09,24.31-35.23,26.15-59.27,1.61-21.05-18.33-48.84-41.8-48.25Z"/>
    <path class="cls-7" d="M421.04,150.75c-7.09-7.65-4.27-18.27-1.6-27.09,1.48-4.89,2.3-9.4,1.82-14.55-.26-2.81-.85-5.59-1.77-8.27-.61-1.78-3.56-5.72-3.45-7.37.23-3.16-4.46-5.38-6.05-2.03-6.81,14.36-11.85,29.14-15.07,44.64-3.07,14.76-5.53,29.46-13.73,42.23-1.56-.36-14.75,4.58-15.21,6.54-2.01,8.68,5.19,17.1,12.19,21.54,7.49,4.75,17.15,5.18,25.49,2.46,9.63-3.14,14.29-10.5,21.66-16.59,3.74-3.09,5.82-8.14,6.48-12.85,1.46-10.43-3.71-21.05-10.77-28.66Z"/>
    <path class="cls-1" d="M531.12,261.41c-14.45,1.34-28.35,4.91-41.59,10.68-1.36.59-.18,2.53,1.17,1.94,12.86-5.6,26.38-9.07,40.42-10.37,1.48-.14,1.49-2.39,0-2.25Z"/>
    <path class="cls-1" d="M440.93,272.12c-7.31-4.98-15.09-9.09-23.35-12.4-1.38-.55-1.98,1.62-.62,2.17,8.07,3.23,15.65,7.3,22.79,12.17,1.23.84,2.39-1.11,1.17-1.94Z"/>
    <path class="cls-1" d="M450.3,138.98c-8.81-8.18-7.37-18.23-5.07-28.78.29-1.34-1.84-1.92-2.13-.57-2.47,11.31-3.71,22.18,5.64,30.86,1.03.95,2.59-.56,1.56-1.51Z"/>
    <path class="cls-1" d="M462.26,134.92c-2.15-2-4.71-3.42-7.59-4.17-1.38-.36-1.96,1.71-.59,2.07,2.52.66,4.74,1.86,6.62,3.62,1.02.96,2.59-.56,1.56-1.51Z"/>
    <path class="cls-1" d="M464.6,166.8c-2.83,1.35-5.88,2.53-9.1,2.11-1.39-.19-1.99,1.88-.59,2.07,3.88.52,7.36-.68,10.81-2.32,1.28-.61.16-2.46-1.12-1.85Z"/>
    <path class="cls-1" d="M467.37,1066.74c-6.23-12.07-14.09-24.3-18.31-37.19-4.47-13.64-.71-27.98-.62-41.92,0-.36-.14-.63-.35-.81-.86-74.21-1.48-148.69,7.73-222.49,2.73-21.9,6.38-43.69,11.05-65.28.31-1.41-1.93-2.02-2.24-.6-16.24,75.02-19.34,151.84-19.32,228.27,0,21.87.26,43.73.52,65.59,0,.19.05.35.12.49-.7,12.5-3.09,25.15.88,37.34,4.27,13.12,12.21,25.47,18.54,37.73.67,1.3,2.67.16,2.01-1.14Z"/>
    <path class="cls-1" d="M490.4,1006.32c-.75,8.36-5.29,15.54-7.86,23.41-2.28,7.01-3.28,14.26-3.32,21.59,0,1.45,2.32,1.45,2.32,0,.05-8.47,1.5-16.75,4.57-24.7,2.61-6.76,5.96-13,6.62-20.3.13-1.44-2.19-1.43-2.32,0Z"/>
    <path class="cls-1" d="M459.93,1112.91c-5.47-23.78-8.68-47.94-9.6-72.29-.05-1.44-2.38-1.45-2.32,0,.93,24.55,4.17,48.91,9.69,72.89.33,1.41,2.57.81,2.24-.6Z"/>
    <path class="cls-1" d="M438.22,1013.48c-1.24,12.31-8.23,22.99-11.61,34.75-.4,1.4,1.84,1.99,2.24.6,3.45-11.98,10.43-22.79,11.69-35.35.14-1.44-2.18-1.43-2.32,0Z"/>
    <path class="cls-1" d="M508.53,1342.23c-3.47,5.72-5.53,11.89-6.25,18.49-.16,1.44,2.17,1.43,2.32,0,.68-6.2,2.68-11.98,5.94-17.35.76-1.25-1.25-2.39-2.01-1.14Z"/>
    <path class="cls-1" d="M524.35,1341.17c-3.44,6.28-4.89,13.08-4.24,20.17.13,1.43,2.46,1.44,2.32,0-.62-6.7.66-13.08,3.92-19.03.7-1.28-1.31-2.42-2.01-1.14Z"/>
    <path class="cls-1" d="M540.86,1342.4c-.36-1.41-2.6-.81-2.24.6,1.23,4.85,1.33,9.68.27,14.57-.31,1.41,1.93,2.02,2.24.6,1.14-5.28,1.06-10.53-.27-15.77Z"/>
    <path class="cls-1" d="M435.43,1339.37c-.69-1.29-2.69-.15-2.01,1.14,3.49,6.54,5.65,13.45,6.46,20.77.16,1.42,2.48,1.44,2.32,0-.86-7.72-3.11-15.01-6.78-21.91Z"/>
    <path class="cls-1" d="M421.31,1342.92c-.38-1.4-2.62-.81-2.24.6,1.54,5.67,1.97,11.37,1.31,17.19-.16,1.44,2.16,1.43,2.32,0,.68-6.03.2-11.93-1.4-17.79Z"/>
    <path class="cls-1" d="M401.33,1346.67c-.05-1.44-2.38-1.45-2.32,0,.18,5.08-.04,10.13-.65,15.18-.17,1.44,2.15,1.42,2.32,0,.61-5.05.83-10.1.65-15.18Z"/>
    <path class="cls-1" d="M575.66,530.57c-4.5.13-8.84.93-13.08,2.43-1.39.49-.79,2.67.62,2.17,4.03-1.43,8.16-2.22,12.46-2.35,1.49-.04,1.5-2.29,0-2.25Z"/>
    <path class="cls-1" d="M577.68,543.25c-14.39.87-27.57,6.5-37.9,16.24-1.07,1.01.57,2.6,1.64,1.59,9.88-9.32,22.49-14.75,36.26-15.58,1.49-.09,1.5-2.34,0-2.25Z"/>
    <path class="cls-1" d="M584.4,556.37c-10.01-.97-19.61,1.33-28,6.68-1.24.79-.08,2.74,1.17,1.94,8.1-5.17,17.18-7.31,26.83-6.38,1.49.14,1.48-2.11,0-2.25Z"/>
    <path class="cls-1" d="M356.36,540.77c-2.98-2.29-6.61-3.14-10.34-2.32-1.46.32-.84,2.49.62,2.17,2.85-.62,5.78-.02,8.08,1.75,1.16.89,2.81-.69,1.64-1.59Z"/>
    <path class="cls-1" d="M353.42,506.95c-4.17,2.08-7.88,4.82-11.05,8.16-1.01,1.06.63,2.66,1.64,1.59,3.05-3.21,6.58-5.81,10.58-7.81,1.33-.66.16-2.61-1.17-1.94Z"/>
    <path class="cls-1" d="M592.05,579.69c-6.43-1.67-7.92-10.53-14.27-11.67-6.45-1.15-15.11,2.86-20.98,4.89-1.4.49-.8,2.66.62,2.17,6.29-2.18,17.44-7.48,23.08-2.63,3.77,3.24,5.75,8.06,10.94,9.41,1.45.38,2.06-1.79.62-2.17Z"/>
    <path class="cls-3" d="M527.99,144.72c-1.38-2.96-3.42-5.64-5.89-7.84-2.43-2.16-5.56-3.02-8.08-4.83-4.49-3.22-.17-10.48.81-14.74.82-3.54,1.26-7.15.61-10.75-1.26-6.93-6.14-12.44-10.77-17.57-.94-1.04-2.5.48-1.56,1.51,5.7,6.32,11.11,12.96,10.36,21.85-.34,4.06-1.72,7.98-2.93,11.85-.57,1.83-2.14,4.93-1.46,6.98.41,1.25,1.33,1.59,2.4,2.21,3.61,2.11,7.17,3.01,10.23,6.11,6.4,6.5,7.67,15.71,4.47,23.93-.07.17-.08.33-.07.47-3.78,11.05-10.69,21.07-22.64,24.78-1.35.42-.77,2.49.59,2.07,13-4.04,20.49-14.95,24.46-27.07.05-.16.06-.3.05-.44,2.17-6.07,2.2-12.58-.58-18.52Z"/>
    <path class="cls-3" d="M546.13,140.43c-.74-1.17-2.66-.1-1.91,1.08,7.2,11.39,2.13,24.58-8.37,32.05-1.14.81-.03,2.67,1.12,1.85,11.49-8.17,17.05-22.49,9.17-34.98Z"/>
    <path class="cls-3" d="M525.95,69.32c-1.16-.8-2.27,1.05-1.12,1.85,16.74,11.62,4.69,32.76-3.84,45.23-.79,1.15,1.13,2.23,1.91,1.08,9.31-13.62,20.93-35.74,3.04-48.16Z"/>
    <path class="cls-3" d="M489.96,63.29c-1.84-7.03-12.35-10.55-18.88-11.16-1.42-.13-1.41,2.01,0,2.14,5.47.51,15.19,3.62,16.74,9.59.35,1.34,2.48.77,2.13-.57Z"/>
    <path class="cls-3" d="M428.78,186.14c-1.6,4.24-4.78,7.57-8.96,9.56-1.28.61-.16,2.46,1.12,1.85,4.7-2.24,8.18-6.09,9.97-10.84.49-1.3-1.65-1.86-2.13-.57Z"/>
    <path class="cls-3" d="M441.5,61c-15.03.28-29.87,6.61-35.74,20.65-3.13,7.49-4.4,15.87-3.91,23.92.22,3.55,1.82,7.47,1.71,10.91-.19,5.94-7.68,7.03-12.06,9.03-6.07,2.78-12.14,6.63-14.88,12.85-3.17,7.21.26,13.98,4.26,20.08-8.17,4.59-12.89,13.07-12.25,22.28.09,1.37,2.31,1.38,2.21,0-.62-8.88,3.99-16.86,12.15-20.98.51-.26.71-1,.4-1.47-5.29-7.89-8.66-16.56-1.08-24.29,4.9-5,11.83-7.16,18.13-9.93,3.4-1.49,5.55-2.98,5.43-6.77-.1-3.56-1.47-7.19-1.75-10.78-.27-3.42-.21-6.88.17-10.29.82-7.23,2.96-14.94,7.53-20.81,4.46-5.74,11.45-8.98,18.5-10.76,13.87-3.5,41.08-1.42,41.56,17.24.03,1.38,2.25,1.38,2.21,0-.4-15.73-19.06-21.14-32.6-20.89Z"/>
    <path class="cls-3" d="M409.1,159.28c-.45-1.3-2.59-.74-2.13.57,3.6,10.42,2.36,25.21-11.47,27.15-1.4.2-.81,2.26.59,2.07,14.95-2.1,16.97-18.33,13.01-29.79Z"/>
    <path class="cls-5" d="M472.23,110.41c-.7-4.18.33-7.35,3.69-8.36,3.38-1.01,5.53,2.6,6.23,6.77.7,4.18-.05,7.71-3.69,8.35-3.45.61-5.53-2.6-6.23-6.77Z"/>
    <path class="cls-5" d="M424.31,121.21c-.65-3.87.38-6.82,3.68-7.78,3.31-.96,5.38,2.36,6.03,6.23.65,3.87-.11,7.15-3.68,7.78-3.37.6-5.38-2.36-6.03-6.23Z"/>
  </g>
</svg>