<?xml version="1.0" encoding="UTF-8"?>
<svg id="Layer_1" data-name="Layer 1" xmlns="http://www.w3.org/2000/svg" viewBox="0 0 914.82 1421.94">
  <defs>
    <style>
      .cls-1 {
        fill: #ffca9e;
      }

      .cls-2 {
        fill: #52767d;
      }

      .cls-3 {
        fill: #fca676;
      }

      .cls-4 {
        fill: #ffa185;
      }

      .cls-5 {
        fill: #fceae6;
      }

      .cls-6 {
        fill: #4f342f;
      }

      .cls-7 {
        fill: #de6f57;
      }
    </style>
  </defs>
  <path class="cls-5" d="M525.3,1046.18c-14.4,37.07-66.85,37.07-81.26,0l-142.88-367.66-160.44-412.82c-11.1-28.57,9.97-59.38,40.63-59.38h606.64c30.65,0,51.73,30.81,40.63,59.38l-160.44,412.82-142.88,367.66Z"/>
  <g>
    <path class="cls-1" d="M552.63,204.97c-1.93-8.66-6.61-16.55-7.72-25.42-1.28-10.23,1.97-20.57,4.16-30.49,2-9.08,3.84-18.25,4.23-27.55.73-17.45-5.21-34.4-19-45.93-19.42-16.24-51.93-26.54-77.04-19.24-14.66,4.26-30.96,15.81-38.67,28.73-7.7,12.9-11.3,27.58-17.39,41.18-3.09,6.91-6.96,13.14-11.57,19.18-14.21,18.62-5.85,38.64.59,59.16,6.88,21.91,11.96,43.59,12.12,66.66.17,25.8-8.26,50.18-10.92,75.65-.07.67.79,1.34,1.44,1.08,19.51-7.83,39.69-13.91,60.36-18.03,21.42-4.27,43.18-6.68,64.54-11.26,5.23-1.12,10.5-2.28,15.62-3.81,2.73-.82,5.43-1.69,7.3-3.93,4.55-5.45,2.23-14.42,1.97-20.73-.88-22.04,2.14-44,8.61-65.11.08-.27.04-.49-.04-.69,2.06-6.34,2.89-12.74,1.39-19.45Z"/>
    <path class="cls-4" d="M384.79,532.39c-.64-9.41-1.75-9.09-2.55-18.49-.52-6.09-.68-11.84-4.56-16.9-.68-.89-1.54-1.43-2.44-1.69-.73-.91-1.87-1.5-3.45-1.42-13.14.71-21.8,17.95-25.75,27.78-7.34,18.28-12.43,41.21-14.93,61.84-2.51,20.76-2.13,38.82-3.51,59.67-1.52,22.82-2.08,43.58-2.08,65.61,0,2.71,23.64-14.74,23.84-16.25,6.39-47.67,21.77-69.29,29.98-107.36,3.68-17.06,6.63-35.37,5.45-52.79Z"/>
    <path class="cls-4" d="M406.55,332.15c-10.97-12.18-34.37-12.69-47.89-4.88-.83.48-1.38,1.1-1.73,1.77-1.1.86-.78,5.57-.87,6.78-.32,4.22-.6,8.45-.77,12.68-.76,18.53-3.97,36.96-5.32,55.47-1.2,16.39-2.06,32.81-2.72,49.23-1.03,25.75-2.33,51.85-.78,77.6.03.58.28,8.18,1.37,8.01,9.42-1.42,18.79.59,28.03-1.65,2.05-.5,3.04-1.93,3.21-3.5.78-.51,1.42-1.27,1.77-2.37,15.38-47.64,23.99-97.73,27.67-147.77,1.19-16.16,10.13-37.95-1.96-51.37Z"/>
    <path class="cls-4" d="M649.51,320.32c.03-.53-.94-8.66-1.31-9.17-11.15-15.21-17.68-46.95-43.51-57.44-29.35-11.92-85.52,10.41-94.54-24.45-.25-.97-8.56,1.63-9.36,1.47-.71-.52-1.66-.72-2.79-.32-10.05,3.54-20.48,5.22-31.01,6.76-1.65.24-3.52-1.14-3.59.07-12.33,26.17-54.44,23.08-80.21,38.44-21.5,12.82-29.96,36.7-27.38,60.56.14,1.33.2,40.55.2,40.55,6.35-2.87,95.97-6.55,134.83-9.11,18.27-1.2,73.23,2.04,89.81-5.2,10.07-4.4,15.23-42.15,26.18-44.16,13.19-2.42,26.21,1.67,38.08,6.94,3.49,1.55,6.59-2.69,4.61-4.96Z"/>
    <path class="cls-4" d="M530.35,250.97c-13.22-5.06-19.22-16.33-19.64-29.9-.49-15.95,1.52-32.96,4.73-48.57.52-2.56-4.1-.17-6.15.38-1.15-.6-2.6-.58-3.78.64-9.41,9.71-27.32,15.13-39.81,19.61-2.51.9-2.81,3.67-1.72,5.34,1.44,12.54,3.2,26.66-.59,38.77-4.67,14.92-17.3,23.91-30.42,31.57-1.98,1.16,98.93-17.26,97.38-17.86Z"/>
    <path class="cls-7" d="M465.17,228.77c14.53,1.99,29.92-4.25,38.29-16.43,4.44-6.45,7.14-13.81,8.9-21.45.67-5.18,1.52-10.31,2.48-15.32.15-1.32.28-2.64.41-3.95-.84-.87-4.26.8-5.97,1.26-1.15-.6-2.6-.58-3.78.64-9.41,9.71-27.32,15.13-39.81,19.61-2.51.9-2.81,3.67-1.72,5.34,1.12,9.7,2.41,20.35,1.19,30.29Z"/>
    <path class="cls-4" d="M462.95,1013.98c-.04-.99-.37-1.8-.87-2.43-.92-2.66-4.77-4.58-7.68-2.07-11.14,9.58-23.05,18.16-35.69,25.86-2.51-1.98-7.56-.92-7.74,3.18-2.04,47.65,18.24,260.3-6.47,281.08-4.28,3.6,51.62-6.63,51.3-9.65-5.79-54.5,10.92-138.43,15.48-163.05,13.04-70.46-7.49-110.57-8.32-132.91Z"/>
    <path class="cls-4" d="M521.48,119.96c1.1-1.2-40.14-46.04-66.44-47.37-.15,0-.27.01-.41.02-1.06-.36-2.31-.24-3.33.78-19.85,19.59-25,60.57-13.74,91.55,4.64,12.77,9.87,25.4,19.76,35.09,5.67,5.55,13.12,10.23,21.28,10.96,8.65.77,18.82-4.15,24.74-9.83,18.63-17.84,25.61-52,18.13-81.2Z"/>
    <path class="cls-4" d="M558.05,521.62c1.01-32.92.75-60.52,10.05-92.14,1.85-6.28,3.7-12.57,5.52-18.87-.9.58-2.92,3.58-3.81,3.04-.28-.39-.67-.74-1.21-1.01-10.25-5.11-21.23-4.77-32.51-4.73-15.88.06-31.74.67-47.59,1.55-15.1.84-30.19,1.9-45.27,3.02-11.46.85-27.69-.71-37.6,5.42-1.95,1.21,1.71,19,1.81,22.46.18,5.95,3.45,18.1,4.11,24.03,3.07,27.82,2.75,46.17-.24,60.49,12.12,3.48,23.88,8.45,36.29,11.02,15.81,3.27,32.03,4.07,48.15,3.94,20.53-.17,40.49-2.8,60.41-6.05,0-.17,0-.33-.01-.51-2.15-1.87,1.79-7.92,1.91-11.65Z"/>
    <path class="cls-4" d="M587.8,1168.37c-.58-21.73-.64-43.55-1.82-65.26-.78-14.23-4.5-28.09-7.82-41.93-3.03-12.61-4.85-25.29-6.92-38.05-.65-3.98-5.49-3.82-7.73-1.33-11.67,4.38-23.62,9.87-36.1,11.46-1.71.22-2.69,1.1-3.08,2.22-.69.51-1.22,1.28-1.41,2.39-4.45,25.23-5.59,50.87-2.07,76.46,3.4,24.72,14.27,51.46,19.2,75.94,5.17,25.63,18.06,113.27,18.06,113.27,5.5,6.28,33.37,3.98,33.26-.21l-3.57-134.95Z"/>
    <path class="cls-4" d="M486.94,638.04c-4.78-12.26-13.36-22.21-23.41-29.23-22.98-16.06-55.78-18-76.92,2.47-1.85-.29-3.73.67-4.18,3.36-11.96,70.87-9.05,143.07-2.07,214.39,5.78,59.02,13.73,117.77,23.54,176.12-.39,11.41-1.26,22.83-.61,34.27,1.06,18.72,9.27,33.34,13.6,51,.74,3.01,3.24,3.81,5.3,3.08,1.36.59,2.96.49,4.35-.86,8.58-8.39,22.07-1.94,29.06-15.1,5.5-10.35,12.54-26.18,10.71-37.02-8.7-51.57,19.56-103.51,18.52-229.62-.34-41.97,4.95-83.77,6.26-125.72.49-15.84,1.66-32.25-4.15-47.13Z"/>
    <path class="cls-4" d="M573.36,1029.55c12.13-178.5,30.36-266.83-.88-417.21-.39-1.89-4.86-2.35-6.23-2.69-1.31-1.16-3.17-1.69-5.12-.77-31.73,14.87-68.87,30.94-85.7,64.7-2.65.7-5.86,4.58-3.09,6.91,7.67,6.46,2.7,27.03,2.92,58.58.22,31.47,5.83,95.91,9.25,127.19,3.21,29.38,7.85,58.63,14.55,87.39,3.63,15.59,7.84,31.02,12.7,46.24,4.54,14.2,11.65,27.71,8.67,55.22,16.8,67.66,51.1-.59,52.95-25.56Z"/>
    <path class="cls-7" d="M470.96,284.43c-7.54-1.49-15.01-3.25-22.42-5.26-1.42-.39-2.02,1.77-.61,2.15,7.41,2.01,14.88,3.77,22.42,5.26,1.43.28,2.05-1.87.61-2.15Z"/>
    <path class="cls-2" d="M590.07,359.24c.65-3.31-.89-6.68-3.84-8.42-11.59-6.83-38.31-20.63-46.45-22.26-61.19-12.27-117.36,8-132.65,12.45-9.95,2.9-13.66,32.98-14.06,39.52-1.38,22.85,11.64,54.7,13.73,54.83,41.55,2.57,124.08-1.54,158.57-6,4.98-.64,9.11-4.13,10.43-8.87,5.61-20.08,10.3-40.9,14.27-61.25Z"/>
    <path class="cls-2" d="M556.45,518.35c-86.46,5.58-135.67-5.24-143.65-2.64-6.42,2.09-36.08,111.85-32.12,112.83,46.88,11.54,56.52,50.34,96.72,54.33,2.13.21,20.62-48.37,97.99-54.91,5.9-.5-15.12-109.86-18.94-109.61Z"/>
    <path class="cls-4" d="M582.83,547.29c-8.87-5.42-21.49-12.45-31.55-15.46-3.17-.95-5.93,3.37-3.33,5.59,7.67,6.54,16.47,11.14,26.35,13.59.65.16,1.23.13,1.75,0,3.62,1.8,10.41-1.49,6.78-3.71Z"/>
    <path class="cls-4" d="M704.49,448.55c2.74-1.12,4.6-3.72,4.63-6.63.16-14.01-11.61-40.95-20.7-57.8-14.59-27.05-29.13-56.74-46.26-82.3,0,0-26.04-6.38-39-8.89-7.79-1.51-26.07-5.07-34.05-2.14-5.52,2.02-7.97,6.27-7.34,11.95,1.19,10.75-2.57,10.54,1.78,20.45,9.49,21.63,12.81-11.81,30.18,24.84,31.94,67.42,72.68,82.13,63.39,106.75,12.67,7.36,34.26-.85,47.38-6.23Z"/>
    <path class="cls-1" d="M510.39,112.25c-7.77-3.28-19.74-3.38-24.01,5.18-.66,1.33-.54,2.5.08,3.84.47,1.02,1.01,2.07,1.95,2.71,3.29,2.24,9.65-.89,13.06-1.61,3.05-.64,6.4-.84,9.22-2.26,3.51-1.76,3.67-6.19-.29-7.86Z"/>
    <path class="cls-1" d="M461.12,121.12c-2.65-2.64-8.13-3.87-11.21-4.14-4.6-.41-9.57.69-12.71,4.19-2.06,2.3-.97,5.62,1.62,7.05,2.42,1.34,5.03,1.03,7.72,1.15,4.84.22,11.23,2.46,14.89-1.94,1.6-1.92,1.45-4.56-.31-6.32Z"/>
    <path class="cls-4" d="M679.04,429.18c-17.55,14.96-27.68,35.57-40.51,54.38-16.66,24.42-36.46,46.53-57.48,67.43-3.39-.2,15.09,24.06,18.33,20.81,15-15.08,40.56-34.99,56.38-49.22,13.91-12.51,28.98-24.51,41.14-38.94,5.7-6.77,12.26-14.84,14.9-23.34,2.95-9.52-1.18-22.53-4.7-31.52-.84-2.14-28.06-.63-28.04.41Z"/>
    <path class="cls-1" d="M532.96,129.04c2.59-8.18,7.03-16.13,6.92-24.85-.1-7.68-4.19-13.1-10.35-17.48-8.38-5.96-17.29-11.42-26.01-16.88-7.35-4.6-15.29-8.1-24.05-5.49-.04.01-.07.04-.11.06-17.47-7.83-35.49,5.53-44.23,21.38-6.32,11.47-10.72,24.12-14.78,36.49-3.14,9.55-8.16,21.48-.04,29.98.53.56,1.22.37,1.62-.08,11.03,39.53,16.18-32.45,64.22-54.71,1.15-.53,2.26-.9,2.34.37.4,6.22-.4,10.62,3.5,17.29,6.76,11.55,16.44,15.73,29.05,18.05-.48.66.13,1.93,1.25,1.78,4.02-.54,7.79-1.83,11.3-3.82,1.09-.62.4-2.11-.63-2.07Z"/>
    <path class="cls-4" d="M460.97,1343.54c-5.81-36.14-4.69-42.8-6.45-70.09-.39-6.03-44.47,38.93-44.55,39.43-.15,1-.51,1.95-1.21,2.64-7.42,7.29-15.3,14.14-23.23,20.87-2.32,1.97-4.69,4.43-7.53,5.58-10.82,4.39-21.64,9.6-31.34,16.16-.57.38-1.12.77-1.67,1.18-1.88,1.42-2.63,4.16-1.4,6.21.71,1.18,1.92,2.05,3.65,2.11,7.22.26,27.21-.02,34.43.28,16.12.67,18.46-3.04,33.63-7.98,6.92-2.25,13.34-4.65,20.49-4.89,6.34-.21,27.18.87,25.19-11.5Z"/>
    <path class="cls-4" d="M382.28,777.17c-2.78-6.58-7.61-20.16-7.63-27.45-.02-7.96-8.46-20.15-13.71-29.62-2.39-4.31-4.96-8.56-7-13.05-1.64-3.59-5.89-17.23-6.15-23.36-.12-2.8.8,2.28-2.65,3.38-7.27,2.33-13.69,6.17-18.93,11.69-.59.63-2.43,49.04-1.47,67.52,2.15,11.66,20.34,40.07,34.06,42.61,1.88.35.54-6.24,7.87,4.08,2.93,4.12,9.7.59,7.14-3.86-14.31-24.88-14.32-41.19-15.28-55.28-.48-6.99,5.85-.93,6.63,2.41,1.72,4.83,5.18,16.61,8.36,20.73,3.21,4.15,10.73,4.92,8.74.2Z"/>
    <path class="cls-4" d="M584.21,547.82c-.11-.04-29.62-11-37.08-8.65-11.2,3.52-21.47,13.18-28.46,21.92-.55.68-.79,1.42-.82,2.14-1.29,3.2,3.01,6.83,5.77,3.83,6.47-7.05,25.15-18.27,23.08-14.55-2.04,1.18-4.01,2.56-5.89,4.25-6.93,6.22-12.66,14.06-18.09,21.53-1.69,2.32.16,4.57,2.42,5,1.2.66,2.78.77,4.07-.01.75.85,1.91,1.27,3.37.69,2.82-1.12,5.31-3.04,7.77-4.74.53-.37,5.76-4.44,5.74-2.02-.01,1.41-3.67,3.15-4.49,4.34-2.17,3.12,1.95,6.21,4.9,4.79,4.52-2.17,9.11-4.14,13.76-5.95,1.37-.53,2.94-.31,4.08.61,3.44,2.79,10.25,3.27,14.27,3.26,9.5-.02,18.77-8.55,24.03-15.65,1.09-1.47-17.3-20.82-18.44-20.76Z"/>
    <path class="cls-4" d="M629.1,1358.9c-4.5-6.45-9.36-12.81-15.16-18.07-2-1.82-3.81-3.83-5.35-6.08-3.26-4.77-7.26-11.09-9.87-14.9-6.88-10.03-7.44-22.33-8.07-34.24-.2-3.78-4.97-4.42-6.42-1.9-.59-.27-1.31-.38-2.18-.23-6.38,0-12.53.01-18.92.02-2.05-.53-3.41.26-4.06,1.47-1.46.24-2.68,1.36-2.53,3.36.87,11.57.38,23.24-1.58,34.66-1.03,6-.76,5.76-2.55,11.57-2.43,7.87-6.78,15.44,3.53,18.93,4.21,1.42,8.7,2.86,12.12,5.84,2.72,2.37,4.06,5.58,7.91,6.38,5.82,1.22,11.83.54,17.71,1.13,9.2.54,18.73.8,27.85-.8,3.06-.53,12.26-.44,7.57-7.16Z"/>
    <path class="cls-4" d="M532.4,124.06c-2.82-1.11-6.47-.39-9.22,2.18-6.76,6.31-6.45,14.28-7.62,22.48-.77,5.35,2.73,14.91,9.47,9.74,3.91-3,6.03-8.48,7.85-12.78,2.05-4.83,4.48-10.31,3.83-15.65-.38-3.1-2.09-5.1-4.31-5.97Z"/>
    <path class="cls-1" d="M375.61,402.32c.75,2.19,3.34,6.12,4.71,8,6.2,8.46,15.36,4.13,24.7,3.14,5.14-.54,27.53-1.26,30.45-6.39,8.37-14.71,11.33-31.86,7.79-48.39-1.82-8.52-5.89-17.61-5.73-26.38.16-8.99,4.24-18.81,7.3-27.16,8.56-23.38,21.83-51.76,20.56-78.5-.03-.66-2.91,3.32-3,2.67-1.86-12.59-14.15-19.31-15.63-32.25.82-.09,1.49-1.14.74-1.9-.33-.34-.68-.66-1.02-1-.09-1.02-.23-2.03-.29-3.06-.09-1.43-2.37-1.44-2.28,0,.01.19.04.38.05.58-8.19-8.05-16.75-15.72-25.73-22.94-1.13-.9-2.75.66-1.57,1.61-.51.06-21.62,50.67-21.49,51.31,4.68,23.35,6.3,33.66-2.2,72.44-4.58,20.89-16.19,43.23-22.07,63.84-2.6,9.13-3.05,17.68.29,26.66,2.05,5.5,2.47,11.99,4.42,17.71Z"/>
    <path class="cls-7" d="M472.74,163c-4.08-4.61-6.74-8.57-6.57-14.9.12-4.55.92-9.14,1.42-13.66.16-1.43-2.13-1.41-2.28,0-.64,5.79-2.18,12.21-1.23,18.01.79,4.84,3.87,8.53,7.05,12.13.96,1.09,2.57-.5,1.61-1.58Z"/>
    <path class="cls-7" d="M484.38,157.62c-2.22-1.86-4.82-3.08-7.72-3.5-1.44-.21-2.06,1.94-.61,2.15,2.51.36,4.78,1.31,6.71,2.93,1.11.93,2.73-.64,1.61-1.58Z"/>
    <path class="cls-7" d="M492.85,175.01c-1.67.84-3.39,1.43-5.14,1.87-7.85-1.75-16.55-5.97-22.28,1.97-.68.11-1.35.23-2.02.37-1.43.31-.83,2.46.61,2.15,6.06-1.31,12.31-.96,18.45-1.53,3.11-.29,6.21-.81,9.14-1.88.75-.27,2.77-.74,2.96-1.69.18-.92-.87-1.67-1.71-1.25Z"/>
    <path class="cls-7" d="M480.03,185.34c-2.28.47-4.57.7-6.91.71-1.47,0-1.47,2.24,0,2.23,2.53-.01,5.04-.28,7.51-.79,1.44-.3.83-2.45-.61-2.15Z"/>
    <path class="cls-7" d="M547.19,265.09c-9.69,4.47-19.6,6.63-30.04,8.6-8.08,1.53-15.78,3.59-22.17,8.88-1.12.93.5,2.5,1.61,1.58,7.44-6.16,17.02-7.53,26.28-9.23,8.86-1.63,17.3-4.14,25.46-7.9,1.33-.61.17-2.54-1.15-1.93Z"/>
    <path class="cls-7" d="M380.25,494.16c-3.81,9.97-6.35,20.2-7.7,30.76-.18,1.42,2.1,1.41,2.28,0,1.33-10.36,3.88-20.39,7.62-30.16.51-1.35-1.69-1.93-2.2-.59Z"/>
    <path class="cls-7" d="M552.46,556.71c-9.17,6.34-17.06,14.01-23.61,22.93-.86,1.17,1.12,2.28,1.97,1.13,6.31-8.6,13.95-16.01,22.79-22.13,1.19-.82.05-2.76-1.15-1.93Z"/>
    <path class="cls-7" d="M564.87,565.87c-5.64.93-10.68,3.49-14.74,7.42-1.05,1.01.57,2.59,1.61,1.58,3.81-3.68,8.46-5.97,13.73-6.84,1.44-.24.83-2.39-.61-2.15Z"/>
    <path class="cls-7" d="M478.6,687.82c.08-1.43-2.2-1.43-2.28,0-2.85,50.59-.65,101.3,6.54,151.48.2,1.42,2.4.81,2.2-.59-7.16-49.97-9.3-100.51-6.46-150.89Z"/>
    <path class="cls-7" d="M536.55,1008.88c-.74-1.31-2.71-.12-1.97,1.19,7.94,14.09,13.1,29.38,15.42,45.52.22,1.5,2.41.86,2.2-.63-2.34-16.33-7.62-31.83-15.65-46.08Z"/>
    <path class="cls-7" d="M568.97,1032.47c-.99,5.16-1.98,10.31-2.98,15.47-.29,1.49,1.91,2.12,2.2.63.99-5.16,1.98-10.31,2.98-15.47.29-1.49-1.91-2.12-2.2-.63Z"/>
    <path class="cls-7" d="M441.99,1017.3l-9.18,36.35c-.37,1.47,1.83,2.1,2.2.63l9.18-36.35c.37-1.47-1.83-2.1-2.2-.63Z"/>
    <path class="cls-7" d="M418.39,1064.17c-1.14-2.76-2.28-5.52-3.42-8.28-.58-1.4-2.54-.19-1.97,1.19,1.14,2.76,2.28,5.52,3.42,8.28.58,1.4,2.54.19,1.97-1.19Z"/>
    <path class="cls-7" d="M594.82,1364.18c-2.06-6.04-5.39-11.33-9.93-15.67-1.08-1.03-2.7.64-1.61,1.67,4.25,4.06,7.42,8.98,9.35,14.63.49,1.43,2.69.81,2.2-.63Z"/>
    <path class="cls-7" d="M612.07,1363.99c-3.07-5.91-7.03-11.15-11.85-15.64-1.09-1.02-2.71.65-1.61,1.67,4.68,4.36,8.51,9.42,11.49,15.16.7,1.34,2.67.15,1.97-1.19Z"/>
    <path class="cls-7" d="M623.63,1361.53c-2.28-4.82-5.72-8.79-10.06-11.72-1.23-.83-2.38,1.21-1.15,2.04,4.02,2.71,7.13,6.41,9.24,10.87.65,1.37,2.62.17,1.97-1.19Z"/>
    <path class="cls-7" d="M395.74,1350.79c-7.1,2.64-13.37,6.78-18.63,12.4-1.02,1.09.59,2.77,1.61,1.67,4.99-5.32,10.88-9.29,17.62-11.79,1.37-.51.78-2.8-.61-2.28Z"/>
    <path class="cls-7" d="M379.57,1349.56c-7.85,3.9-15.25,8.56-22.22,13.97-1.16.9-.02,2.96,1.15,2.04,6.97-5.41,14.37-10.07,22.22-13.97,1.32-.66.17-2.7-1.15-2.04Z"/>
    <path class="cls-7" d="M365.35,1351.1c-6.16,2.31-11.55,6.01-15.94,11.05-.98,1.13.63,2.81,1.61,1.67,4.12-4.73,9.15-8.27,14.94-10.44,1.37-.51.78-2.8-.61-2.28Z"/>
    <path class="cls-7" d="M529.89,129.33c-2.8,2.28-5.18,5.5-6.65,8.76-1.53,3.39.05,7.26-.95,10.88-.39,1.39,1.81,1.98,2.2.59.91-3.25-.12-6.56.64-9.65.82-3.35,3.74-6.85,6.38-9.01,1.13-.92-.49-2.49-1.61-1.58Z"/>
    <path class="cls-7" d="M528.98,137.06c-1.09-.96-2.7.61-1.61,1.58.76.68,1.09,1.7.63,2.65-.63,1.29,1.34,2.42,1.97,1.13.89-1.83.57-3.96-.99-5.35Z"/>
    <path class="cls-7" d="M360.79,801.5c-7.7-15.92-12.48-32.75-14.37-50.3-.18-1.69-2.82-1.05-2.64.62,1.91,17.79,6.83,34.85,14.62,50.97.74,1.54,3.12.25,2.38-1.29Z"/>
    <path class="cls-7" d="M353.87,797.58c-7.08-10.23-11.52-21.45-13.34-33.72-.25-1.69-2.89-1.05-2.64.62,1.85,12.47,6.4,23.99,13.6,34.38.96,1.39,3.36.12,2.38-1.28Z"/>
    <path class="cls-3" d="M509.54,73.54c-1.04-1.02-2.65.56-1.61,1.58,11.9,11.66,18.67,27.05,19.14,43.51.04,1.43,2.32,1.44,2.28,0-.48-17.06-7.48-33-19.81-45.09Z"/>
    <path class="cls-3" d="M430.26,156.19c1.13-.91-.49-2.48-1.61-1.58-10.2,8.21-12.28,21.53-10.64,33.73,2.37,17.68,8.72,34.09,7.7,52.24-1.92,34.39-27.19,63.7-24.06,98.85.13,1.42,2.41,1.43,2.28,0-2.94-33.03,19.35-60.81,23.49-92.68,2.01-15.5-.84-30.53-4.49-45.56-3.68-15.14-6.58-33.78,7.34-44.99Z"/>
    <path class="cls-3" d="M425.76,293.5c-7.61,24.24-14.17,51.03-1.28,74.74.69,1.27,2.66.14,1.97-1.13-12.58-23.15-5.9-49.41,1.51-73.03.43-1.38-1.77-1.96-2.2-.59Z"/>
    <path class="cls-3" d="M537.55,198.86c-2.25-5.42-5.73-10.13-7.09-15.92-1.42-6.06-1.27-12.36-1.15-18.54.03-1.44-2.25-1.44-2.28,0-.16,8.35-.25,16.91,3.08,24.76,2.04,4.81,5.23,9.02,6.57,14.13,1.72,6.55.81,13.23-2.06,19.32-.61,1.29,1.36,2.43,1.97,1.13,3.73-7.92,4.35-16.72.96-24.88Z"/>
    <path class="cls-3" d="M471.02,61.46c-1.46-.13-1.45,2.1,0,2.23,6.99.63,12.59,6.47,12.88,13.31.06,1.43,2.34,1.44,2.28,0-.35-8.12-6.9-14.79-15.16-15.54Z"/>
    <path class="cls-3" d="M455.25,82.45c-11.87,12.95-18.61,29.5-30.85,42.15-11.47,11.85-26.32,21.73-29.87,38.71-.29,1.4,1.91,2,2.2.59,3.76-18.01,20.61-27.68,32.07-40.73,10.67-12.15,17.12-27.2,28.06-39.14.98-1.07-.63-2.65-1.61-1.58Z"/>
    <path class="cls-3" d="M428.66,101c-2.89,6.54-4.89,13.25-5.98,20.3-.22,1.4,1.98,2.01,2.2.59,1.06-6.83,2.95-13.42,5.75-19.76.58-1.3-1.39-2.44-1.97-1.13Z"/>
    <path class="cls-6" d="M493.29,136.93c-.17-4.33,1.14-7.41,4.38-7.98,3.25-.58,4.83,3.36,5,7.68.17,4.33-.92,7.81-4.38,7.98-3.26.17-4.83-3.36-5-7.68Z"/>
    <path class="cls-6" d="M447.7,142.41c-.17-4.33,1.14-7.41,4.38-7.98,3.25-.58,4.83,3.36,5,7.68.17,4.33-.92,7.81-4.38,7.98-3.26.17-4.83-3.36-5-7.68Z"/>
  </g>
</svg>