<?xml version="1.0" encoding="UTF-8"?>
<svg id="Layer_1" data-name="Layer 1" xmlns="http://www.w3.org/2000/svg" viewBox="0 0 5052.39 1484.04">
  <defs>
    <style>
      .cls-1 {
        fill: #ffb085;
      }

      .cls-2 {
        fill: #e3855d;
      }

      .cls-3 {
        fill: #873b2d;
      }

      .cls-4 {
        fill: #9e5047;
      }

      .cls-5 {
        fill: #ffb2a2;
      }

      .cls-6 {
        fill: #4d3028;
      }

      .cls-7 {
        fill: #ffca9e;
      }

      .cls-8 {
        fill: #52767d;
      }

      .cls-9 {
        fill: #fca676;
      }

      .cls-10 {
        fill: #cc603f;
      }

      .cls-11 {
        fill: #ac5544;
      }

      .cls-12 {
        fill: #612b2c;
      }

      .cls-13 {
        fill: #565b78;
      }

      .cls-14 {
        fill: #fff;
      }

      .cls-15 {
        fill: #2b1f1b;
      }

      .cls-16 {
        fill: #e06a58;
      }

      .cls-17 {
        fill: #402b25;
      }

      .cls-18 {
        fill: #ffc6c4;
      }

      .cls-19 {
        fill: #5c4544;
      }

      .cls-20 {
        fill: #ffa185;
      }

      .cls-21 {
        fill: #fceae6;
      }

      .cls-22 {
        fill: #e68b75;
      }

      .cls-23 {
        fill: #4f342f;
      }

      .cls-24 {
        fill: #eb7754;
      }

      .cls-25 {
        fill: #783c3e;
      }

      .cls-26 {
        fill: #c26e62;
      }

      .cls-27 {
        fill: #523b35;
      }

      .cls-28 {
        fill: #de6f57;
      }
    </style>
  </defs>
  <ellipse class="cls-21" cx="4333.23" cy="661.58" rx="352.33" ry="444.93"/>
  <rect class="cls-21" x="3145.96" y="255.43" width="564.67" height="863.57" rx="45.05" ry="45.05"/>
  <path class="cls-21" d="M2754.68,429.73c2.73-12,4.21-24.42,4.33-37.14.97-103.47-90.1-189.19-202.66-190.63-114.88-1.47-208.51,83.7-208.51,188.97,0,14.11,1.68,27.87,4.88,41.1,15.19,62.94-6.45,128.83-55.83,174.61-64.72,60-104.7,142.59-104.7,233.77,0,183.22,162.37,332.3,361.69,332.08,199.3-.22,360.8-148.81,360.8-332.07,0-91.3-40.09-173.99-104.96-234.01-50.01-46.27-69.54-112.81-55.04-176.66Z"/>
  <path class="cls-21" d="M1760.29,1067.24c-14.4,37.07-66.85,37.07-81.26,0l-142.88-367.66-160.44-412.82c-11.1-28.57,9.97-59.38,40.63-59.38h606.64c30.65,0,51.73,30.81,40.63,59.38l-160.44,412.82-142.88,367.66Z"/>
  <path class="cls-21" d="M876.29,755.74c-12.39-16.99-12.39-37.93,0-54.93l132.25-181.4,152.84-209.64c26.7-36.62-6.67-82.39-60.07-82.39H489.96c-53.39,0-86.76,45.77-60.07,82.39l152.84,209.64,132.25,181.4c12.39,16.99,12.39,37.93,0,54.93l-132.25,181.4-152.84,209.64c-26.7,36.62,6.67,82.39,60.07,82.39h611.35c53.39,0,86.76-45.77,60.07-82.39l-152.84-209.64-132.25-181.4Z"/>
  <g>
    <path class="cls-20" d="M908.25,368.88c15.34-10.34,32.76-15.74,51.27-15.7.29,0,.56.04.82.08,1.9-1.3,4.45-7.55,6-5.04,15.39,24.8,49.34,66.17,62.63,100.6,1.78,4.62,3.8,9.18,5.58,13.72-.08.1-.18.17-.25.27-6.86,8.96-18.87,13.2-30.26,13.01-4.5-3.95-7.36,11.21-11.66,7.05-.6-.58-.51-9.06-3.99-12.07-56.19-48.68-76.63-94.81-91.54-103.59-2.8-1.38,8.03,3.93,11.39,1.66Z"/>
    <path class="cls-11" d="M915.59,216.49c.26-10.04-5.27-21.18-10.81-28.24-5.79-7.38-16.66-11.29-19.32-20.72-2.29-8.11-1.18-16.74-2.65-24.99-1.59-8.92-3.99-17.61-7.56-25.95-7.18-16.8-17.75-29.14-33.08-38.79-7.45-4.69-15.9-8.04-24.71-9.12-19.13-2.34-21.21,2.64-32.01,1.83-36.45-2.75-70.6,29.95-75.16,65.09-1.61,12.4,3.47,28.43-.85,40.19-3.36,9.15-18.75,13.85-25.07,21.69-10.83,13.44-11.76,31.83-.44,45.11.12.32.33.62.68.89,6.09,4.73,12.73,3.19,19.4.41,14.02-5.85,23.39-2.86,37.05,2.51,11.16,4.39,18.82,3.38,30.04-.17,7.82-2.48,15.52-5.39,23.5-7.35,10.84-2.66,19.69-1.13,30.12,2.42,6.9,2.35,11.92,3.59,18.95,1.26,8.27-2.74,14.2-8.54,23.31-9.72,9.84-1.27,18.81,3.36,28.58,2.94,11.17-.48,19.72-7.85,20.02-19.3Z"/>
    <path class="cls-20" d="M774.54,996.43c1.75-2.38,1.58-6.4-1.94-7.58-14.2-4.76-28.66-9.51-43.29-12.54-9.08-1.88-17.12-1.82-24.73,4.12-2.19.63-4.17,2.63-3.93,5.58,2.49,31.74-3.36,61.09-9.89,91.87-5.9,27.8-9.9,55.79-7.02,84.09,14.09,138.68-.72,172.46,2.76,169.62,10.97-8.95,22.97.21,33.51,9.57,1.22,4.46,6.83-61.83,11.54-89.94,4.75-28.34,18.14-54.97,23.14-83.25,4.88-27.61,1.47-56.71,2.96-84.65,1.59-29.88,9.77-57.93,16.9-86.89Z"/>
    <path class="cls-20" d="M949.98,319.27c-5.33-13.46-12.86-21.72-23.12-29.5-12.58-9.53-28.16-10.59-43.36-11.15-7.76-.28-15.57-.39-23.23-1.73-9.24-1.62-13.39-2.73-20.34-8.63-6.04-5.13-10.7-12.61-11.49-25.77-.08-1.38-5.71,6.14-6.76,6.48-12.96-1.6-25.71-1.29-38.62.7-1.19.18-2.01.71-2.55,1.4-.78.49-2.52-4.54-2.69-3.45-3.98,25.03-29.07,30.34-43.54,34.08-14.97,3.87-28.88,3.31-42.18,12.47-20.57,14.17-27.3,37.8-28.16,61.44-.06.29-.12.58-.13.9-.71,15.94-.45,31.84.77,47.76.12,1.51.82,2.63,1.79,3.36.75,3.19,4.78,5.52,7.56,2.4,14.84-16.65,57.39-29.81,58.85-29.64,23.57,2.68,47.28,2.9,70.86.15,22.63-2.64,44.9-7.73,67.75-7.55.47.39,1.05.69,1.76.89,11.81,3.23,22.65.61,34.14-2.9,14.61-4.47,51.64-9.17,66.94-9.92,1.23-.06-18.23-26.61-24.25-41.8Z"/>
    <path class="cls-20" d="M766.15,277.31c-1.16,1.2-.91,3.18.48,4.08,10.88,7.03,22.55,11.36,36.7,9.35,11.99-1.7,22.9-6.97,32.84-13.83,1.17-.81,1.42-2.43.67-3.65-7.2-11.57-8.79-26.07-8.49-39.37.36-16.11,3.45-31.77,5.49-47.75.23-1.83-.49-3.08-1.61-3.76-.96-1.22-2.49-1.95-4.42-1.41-17.09,4.73-34.17,9.46-51.26,14.19-.94-.02-1.85.22-2.58.71-.16.04-.31.09-.47.13-4.07,1.13-2.19,6.94.71,9.08.59.43.97,1.09,1.05,1.83,1.65,14.82,3.19,28.41,2.46,43.4-.57,11.69-4.9,20.07-11.57,27Z"/>
    <path class="cls-28" d="M774.21,205.08c.59.43.97,1.09,1.05,1.83,1.48,13.32,2.86,25.65,2.6,38.88,18.87,3.25,39.54-1.21,51.01-21.49,1.04-12.78,3.33-25.38,4.96-38.17.23-1.83-.49-3.08-1.61-3.76-.96-1.22-2.49-1.95-4.42-1.41-17.09,4.73-34.17,9.46-51.26,14.19-.94-.02-1.85.22-2.58.71l-.47.13c-4.07,1.13-2.19,6.94.71,9.08Z"/>
    <path class="cls-20" d="M720.83,384.15c-3.37-14.37-15.6-24.35-19.45-38.57-.38-1.39-1.63-1.8-2.72-1.54-.48-.32-.95-.63-1.43-.95-.51-1.92-3.39-3.47-5.6.83-4.52,8.79-15,12.17-24.41,9.17-.96-.31-1.15-.01-1.47.19-.87.25-1.62.93-1.67,2.09-2.05,52.38-2.92,104.8-2.67,157.22.03,5.77-.77,11.51-2.38,17.04-3.85,13.23-8.06,26.36-11.05,39.83-4.16,18.72-6.41,37.81-8.29,56.88-4.08,41.41-6.07,102.02-20.56,119.71-.33.4-1.51,3.59-1.4,3.97-.07.03-.14.06-.21.09-2.69,1.2,25.81-6.92,35.17-15.91,1.19.95,28.11-78.42,39.59-115.98,5.09-16.64,6.8-31.95,8.43-49.37,1.12-11.99.24-23.98-.23-35.97-.24-6.21.44-12.41,1.87-18.46,6.71-28.29,12.1-56.86,16-85.69,1.92-14.18,5.81-30.41,2.48-44.6Z"/>
    <path class="cls-20" d="M786.41,877.18c1.25-40.63,3.48-89.37,1.42-129.97-2.17-42.87-2.9-62.28-14.37-96.7-9.47-28.4-20.14-78.37-55.98-79.01-2.62-.05-4.17,1.85-4.58,3.98-1.62-.44-3.4.06-4.52,2.09-36.71,66.06-44.91,144.04-39.69,219.37,2.83,40.86,9.27,81.28,16.29,121.53,3.74,21.48,7.66,42.92,11.26,64.43,3.63,21.7,7.38,43.28,3.4,65.23-.46,2.55,36.5,48.56,39.33,43.06,16.71-32.43,33.72-65.53,40.51-102.16,6.76-36.46,5.8-74.82,6.94-111.83Z"/>
    <path class="cls-20" d="M981.67,1391.53c.12-.21.21-.43.26-.66.55-2.66-1.39-7.01-5.63-10.32-2.77-2.15-15.36-7.22-24.11-10.61-6.73-2.6-28.98-22.66-34.16-29.96-4.73-6.65-6.66-14.23-7.94-22.24-12.36-76.84-9.9-164.33-11.19-242.29,0-.54.03-1.08.11-1.62,1.14-7.9,2.65-23.07,2.16-31.14-1.23-20.05-5.25-32.12-4.13-52.34.16-2.85-1.75-4.46-3.87-4.75-1.56-.22-3-.99-4.28-1.93-12.53-9.22-24.66-18.99-36.22-29.51-10.66-9.7-20.28-21-32.12-29.18-3.22-2.22-12.14-10.24-12.14-9.34.07,16.69,5.93,48.38,8.62,64.86,2.79,17.1,7.82,33.7,10.74,50.76,3.2,18.71.48,36.31-.34,55.01-.72,16.54,1.38,33.07,3.29,49.51,6.7,57.72,33.3,94.22,41.78,191.11,1.32,15.02-8.5,36.4-4.74,50.8,2.6,9.96,22.03,7.64,29.42,7.27,5.92-.3,10.74-.25,16.52,1.43,8.59,2.49,16.9,6.43,25.91,7.21,6.6.58,39.64,1.98,42.06-2.07Z"/>
    <path class="cls-20" d="M832.89,182.54c-.02-4.41,1.57-9.43,2.8-12.75,2.4-6.49,7.21-11.08,13.51-13.57,5.64-2.23,9.6,3.42,9.02,8.9-.86,8.06-8.91,28.96-19.5,26.27-4.06-1.03-5.8-4.76-5.82-8.85Z"/>
    <path class="cls-28" d="M840.78,179.79c1.92-3.84,3.98-7.6,6.23-11.25,1.5-2.44,2.88-5.32,5.9-5.98,1.44-.31,2.05,1.9.61,2.21-3.01.66-5,5.64-6.41,8.08-1.54,2.65-2.98,5.36-4.35,8.1-.66,1.32-2.64.16-1.98-1.16Z"/>
    <path class="cls-20" d="M764.33,186.76c.02-4.41-1.57-9.43-2.8-12.75-2.4-6.49-7.21-11.08-13.51-13.57-5.64-2.23-9.6,3.42-9.02,8.9.86,8.06,8.91,28.96,19.5,26.27,4.06-1.03,5.8-4.76,5.82-8.85Z"/>
    <path class="cls-20" d="M900.98,597.31c.11-2.9-2.19-6.27-5.74-5.7-28.13,4.56-49.91,30.52-64.47,55.08-16.08,27.14-25.36,58.59-29.5,90.32-5.12,39.26-2.97,78.94.67,118.23,3.42,36.95,7.32,74.02,14.38,110.41,3.86,19.9,7.46,40.03,14.32,59.05,4.48,12.43,17.88,46.2,33.27,44.73,12.69-1.21,27.96-5.66,30.06-20.73,46.85-336.43,30.08-407.29,7.02-451.41Z"/>
    <path class="cls-20" d="M848.5,136.33c-1.73-18.18-6.6-37.19-20.31-49.24-12.2-10.73-30.57-12.89-45.73-8.1-19.81,6.26-34.56,23.99-36.45,44.77-1.48,16.21.55,33.22,5.01,48.85,4.72,16.55,14.4,41.14,26.02,51.88,12.46,11.52,33.46,11.52,46.51-.73,13.96-13.12,22.54-53.52,21.92-75.58-.13-4.54,3.48-7.05,3.02-11.84Z"/>
    <path class="cls-28" d="M901.03,351.29c-3.52,9.27-7.04,18.53-10.55,27.8-.52,1.38,1.69,1.98,2.21.61,3.52-9.27,7.04-18.53,10.55-27.8.52-1.38-1.69-1.98-2.21-.61Z"/>
    <path class="cls-28" d="M724.11,372.32c-5.12-5.03-10.26-10.22-12.48-17.21-.45-1.4-2.66-.8-2.21.61,2.36,7.39,7.65,12.9,13.07,18.23,1.05,1.03,2.68-.59,1.62-1.62Z"/>
    <path class="cls-20" d="M913.72,569.25c-4.41-2.24-7.35-4.49-17.51-15.21-4.51-4.76-10.34-8.38-15.6-12.23-5.27-3.86-7.68,7.02-2.34,10.93,4.65,3.4,5.13,3.16,9.31,7.13,4.85,4.61,8.7,10.68,12.81,15.97,4.01,5.16,19.23-3.58,13.32-6.59Z"/>
    <path class="cls-11" d="M781.77,139.14c-.36-1.82-1.56-3.47-3.37-3.94-5.72-1.48-11.28-.6-16.53,2.01-4.18,2.08-9.08,5.28-6.57,10.51,1.71,3.54,6.35,2.29,9.24,1.26,3.99-1.42,7.11-3.1,11.43-3.56,1.88-.2,3.91-.73,5.03-2.26.82-1.13,1.04-2.63.77-4.02Z"/>
    <path class="cls-11" d="M834.34,135.14c-4.03-3.04-11.5-4.05-14.97-4.02-3.7.04-8.55,1.56-9.24,5.76-.26,1.56.21,3.24,1.3,4.39,1.62,1.71,4.23,2.02,6.59,1.87,4.76-.31,8.96-.34,13.54,1.28,2.59.91,4.85-.71,5.37-3.29.51-2.55-.64-4.51-2.6-5.98Z"/>
    <path class="cls-16" d="M884.68,483.42c6.11-12.15,6.52-24.83,10.13-37.72,1.49-5.31,5.36-9.4,7.84-14.21,10.89-21.12,6.37-49.97-8.06-67.19-5.34-6.37-19.86-8.24-27.68-8.33-20.87-.24-41.41,6.28-61.64,10.59-13.47,2.87-34.07-5.63-51.31-7.64-8.79-1.03-18.23-2.48-26.93-.17-9.94,2.64-14.02,12.35-17.94,21.09-5.17,11.52-8.85,24.03-7.4,35.96,1.24,10.23,6.19,18.75,12.63,26.23,3.82,4.44,3.87,21.72,5.4,27.86,2.56,10.32,8.48,26.46,11.46,36.67,4.38,15.02-1.19,28.3-13.58,45.81-7.16,10.13-17.75,30.53-22.72,41.83-.99,2.24-1.15,5.19.65,6.86,21.29,19.78,61.65,70.01,82.28,121.97,3.82,9.62,24.22,20.41,35.24-2.57,43.71-91.12,69.69-107.17,90.65-116.84,7.46-3.44-9.42-31.82-16.11-43.63-6.6-11.65-12.12-25.09-12.05-38.88.06-12.05,3.74-26.91,9.15-37.67Z"/>
    <path class="cls-20" d="M909.02,574.28c13.28-8.35,39.32-48.12,57.73-69.99,5.49-6.52,26.4-29.16,18.75-36.01-3.29-2.95,15.52-17.06,27.95-23.37,5.33,2.21,10.71,4.26,16.33,5.63,5.03,10.69,11.09,23.18,7.62,37.21-1.42,5.71-50.56,64.9-109.16,100.77-1.06.65-11.33,1.82-11.57,1.32-2.19-4.71-5.69-6.86-8.31-10.95-.97-1.51-1.03-3.53.67-4.6Z"/>
    <path class="cls-11" d="M858.57,141.51c-.45-.54-.93-1.02-1.41-1.5-.36-5.5-.22-11.08.51-17.33.91-7.84.81-14.7-3.94-21.29-9.88-13.72-25.49-20.19-41.64-24.82-13.18-3.78-27.89-6.95-34.48,2.39-7.03,2.37-13.46,6.01-19.11,10.84-10.06,5.55-18.44,13.56-22.97,24.96-5.18,13.05-8.48,32.33-4.59,45.18,2.34-1.79,11.76,1.65,14.61,2.67,7.47,2.67,3.84-7.82,5.95-17.94,2.47-11.9,10.5-20.7,18.59-29.28.44-.46.92-.95,1.54-1.05,1.54-.26,3.48,5.13,4.32,6.29,9.67,13.5,28.62,13.29,43.47,12.88,1.5-.04,3.02-.1,4.48.26,8.83,2.19,7.23,17.18,10.43,23.6,3.98,7.96,10.06,14.61,14.21,22.46,4.75,8.97,5.7,19.08,3.74,28.99-.57,2.88,3.85,4.12,4.42,1.22,1.92-9.75,7.3-48.11,7.45-49.57.74-6.85-1.17-13.63-5.57-18.97Z"/>
    <path class="cls-28" d="M799.1,183.93c7.92-8.7,3.01-20.43.83-30.51-.31-1.44,1.97-1.69,2.28-.26,2.38,10.96,7.23,22.81-1.31,32.2-.99,1.09-2.79-.34-1.79-1.43Z"/>
    <path class="cls-28" d="M788.83,178.73c2.45-1.49,5.27-1.98,8.06-1.2,1.4.39,1.06,2.66-.36,2.26-2.17-.61-4.38-.41-6.33.78-1.25.76-2.63-1.07-1.37-1.84Z"/>
    <path class="cls-28" d="M802.18,205.4c-1.67.34-3.33.54-5.03.61-1.47.06-1.48,2.35,0,2.29,1.9-.08,3.78-.31,5.64-.69,1.44-.3.83-2.51-.61-2.21Z"/>
    <path class="cls-28" d="M756.44,184.01c-1.92-3.84-3.98-7.6-6.23-11.25-1.5-2.44-2.88-5.32-5.9-5.98-1.44-.31-2.05,1.9-.61,2.21,3.01.66,5,5.64,6.41,8.08,1.54,2.65,2.98,5.36,4.35,8.1.66,1.32,2.64.16,1.98-1.16Z"/>
    <path class="cls-28" d="M870.69,283.57c-17.51,2.77-35.06,5.78-51.07,13.75-1.32.66-.16,2.64,1.16,1.98,15.82-7.87,33.23-10.78,50.53-13.52,1.45-.23.84-2.44-.61-2.21Z"/>
    <path class="cls-28" d="M785.3,296.7c-14.36-3.99-29.03-6.02-43.93-6.09-1.48,0-1.48,2.29,0,2.29,14.7.07,29.16,2.08,43.32,6.01,1.42.4,2.03-1.82.61-2.21Z"/>
    <path class="cls-28" d="M688.6,504.28c-4.77,9.5-7.1,19.64-6.91,30.27.03,1.47,2.32,1.48,2.29,0-.18-10.25,2-19.95,6.6-29.12.66-1.31-1.32-2.48-1.98-1.16Z"/>
    <path class="cls-28" d="M708.11,1034.51c.05-14.76,2.82-29.4-.59-43.98-.36-1.52-2.6-1.02-2.24.51,3.53,15.08.3,30.26.55,45.52.24,14.33,6.94,27.1,7.46,41.26.06,1.55,2.35,1.71,2.29.14-.55-14.95-7.53-28.27-7.47-43.46Z"/>
    <path class="cls-28" d="M737.84,1034.1c-3.3,8.14-6.33,16.38-9.1,24.74-.49,1.48,1.68,2.26,2.17.78,2.77-8.36,5.8-16.61,9.1-24.74.58-1.44-1.59-2.21-2.17-.78Z"/>
    <path class="cls-28" d="M868.06,1076.77c-1.88-12.07-5.64-23.44-11.27-34.08-.73-1.38-2.76-.24-2.03,1.14,5.53,10.45,9.22,21.62,11.06,33.48.24,1.56,2.48,1.02,2.24-.54Z"/>
    <path class="cls-28" d="M895.16,1043.69c-3.79,17.92-7.99,35.73-12.59,53.42-.4,1.53,1.78,2.3,2.18.77,4.61-17.7,8.81-35.5,12.59-53.42.32-1.54-1.85-2.31-2.18-.77Z"/>
    <path class="cls-20" d="M655.57,719.08c-10.34,9.57-34.02,23.22-33.42,23.67-5.24,7.97-23.37,13.96-34,15.99-7.39,1.41-13.78,2.36-19.97,7.01-6.99,5.25-8.63,14.4-11.92,21.99-.25.58-7.91,9.79-9.67,11.96-4.64,5.69-.6,9.95,7.59,6.78.31-.12.64.11.62.44-.07,1.14,2.4,4.93,8.07,1.64,2.54-1.47,4.86-4.32,6.92-6.12,12.29-10.71,26.5-20.11,43.41-20.07,2.57,0,8.8-.28,9.72,3.07,1.31,4.76-9.58,10.59-12.37,12.35-3.88,2.46-6.8,5.16-6.94,9.97-.12,4.06,5.92,6.61,7.83,3.24,2.71-4.79,8.18-5.86,9.75-7.48,2.73-2.81,5.99-5.04,9.35-7.04,3.22-1.92,6.79-3.22,9.1-6.3,3.13-4.16,3.29-9.92,3.69-15.18.12-3.7.24-7.4.97-11.01.88-4.33,2.2-8.59,3.52-12.81,2.92-9.38,6.33-18.63,9.03-28.08.31-1.09.61-2.18.88-3.28.33-1.38-1.68-1.98-2.15-.75Z"/>
    <path class="cls-28" d="M597.42,772.3c-8.11,2.55-18.38,4.86-25.32,10.02-6.53,4.85-11.62,13.34-16.03,20.02-.81,1.24,1.17,2.38,1.98,1.16,4.36-6.62,9.1-14.64,15.6-19.37,6.73-4.91,16.51-7.14,24.39-9.61,1.4-.44.8-2.65-.61-2.21Z"/>
    <path class="cls-28" d="M575.31,770.37c-6.27,3.04-11.49,7.52-15.51,13.2-.85,1.21,1.13,2.35,1.98,1.16,3.79-5.36,8.79-9.52,14.69-12.38,1.33-.64.17-2.62-1.16-1.98Z"/>
    <path class="cls-20" d="M928.59,576.96c-2.65-2.42-5.62-4.38-8.95-5.72-3.37-1.36-10.66-3.35-11.07-3.59-2.93-1.73-5.69-3.76-8.57-5.57-1.98-1.24-4-2.42-6.05-3.54-2.59-1.42-4.7-2.76-6.9-4.73-2.04-1.82-4.06-3.65-6.2-5.36-3.88-3.1-8.85-6.74-14.1-6.38-8.35.57-17.14,11.51-22.16,17.31-4.32,4.98,5.91,6.59,10.26,1.58,2.82-3.25,6.58-6.62,11.04-7.63,2.54-.58,5.31.7,7.96,2.6,1.06.76,1.05,2.35-.05,3.05-.92.58-1.85,1.32-2.84,2.28-5.93,5.75-13.2,14.96-18.24,21.47-4.01,5.18,5.71,9.64,9.76,4.4.02-.03.05-.06.07-.09,1.79,2.25,7.08,1.1,9.52-1.68,4-4.56,6.4-7.02,11.85-9.23.3.5.2.34.5.84-5.42,4-9.04,12.25-10.88,18.47-1.88,6.35,7.69,4.32,9.56-2,.59-2.01,3.23-7.79,6.31-6.04,3.72,2.12,16.95,11.38,24.84,9.6,7.16-1.62,15.9-5.1,17.97-19.54,0-.04-3.51,1.24-3.51,1.2.37-.47.47-1.15-.11-1.68Z"/>
    <path class="cls-28" d="M892.41,560.87c-12.1-4.5-22.17,11.58-27.04,20.33-.72,1.29,1.26,2.45,1.98,1.16,4.26-7.65,13.8-23.24,24.45-19.28,1.38.52,1.98-1.7.61-2.21Z"/>
    <path class="cls-28" d="M953.4,1390.14c-3.51-3.72-7.6-6.6-12.21-8.64-1.36-.6-2.06,1.66-.71,2.26,4.24,1.88,8,4.57,11.23,7.98,1.03,1.09,2.73-.5,1.69-1.6Z"/>
    <path class="cls-28" d="M964.98,1389.82c-3.61-3.9-7.74-7.12-12.37-9.62-1.3-.7-2.55,1.28-1.24,1.99,4.45,2.41,8.44,5.47,11.92,9.23,1.02,1.1,2.72-.49,1.69-1.6Z"/>
    <path class="cls-28" d="M974.36,1387.81c-2.23-3.12-4.94-5.79-8.03-7.98-1.22-.87-2.46,1.13-1.24,1.99,2.94,2.08,5.46,4.62,7.58,7.59.88,1.23,2.57-.38,1.69-1.6Z"/>
    <path class="cls-20" d="M719.65,1368.68c3.54-27.11,3.14-32.48,2.85-42.74-1.08-4.88-3.64,2.41-8.05-1.2.29-.43.28-1.01-.34-1.35-9.07-4.95-8.8-27.47-27.29.6.09,1.5-3.43,14.07-4.51,15.5-7.15,9.42-12.78,19.56-18.88,29.69-3.72,6.17-7.01,8.89-10.75,15.01-.93,1.53-1.33,3.64-.31,5.1,3.79,5.44,13.37,3.29,18.71,3.84,14.6,1.51,27.32-.47,39.31.72,7.44,1.39,10.7-3.95,10.14-10.72-.4-4.77-1.5-9.61-.86-14.46Z"/>
    <path class="cls-28" d="M691.58,604.04c-8.01,22-13.93,44.64-17.7,67.74-.24,1.44,1.97,2.06,2.21.61,3.77-23.11,9.69-45.74,17.7-67.74.51-1.39-1.71-1.99-2.21-.61Z"/>
    <path class="cls-28" d="M705.91,1371.88c-1.74,4.95-3.13,10-4.16,15.17-.31,1.53,1.9,2.18,2.21.65,1.04-5.17,2.42-10.22,4.16-15.17.52-1.47-1.7-2.1-2.21-.65Z"/>
    <path class="cls-28" d="M691.79,1371.03c-2.18,5.16-3.82,10.49-4.88,16.04-.29,1.53,1.92,2.18,2.21.65,1.02-5.34,2.55-10.49,4.65-15.46.6-1.42-1.38-2.66-1.98-1.23Z"/>
    <path class="cls-28" d="M678.85,1373.83c-2.9,4.01-5.32,8.33-7.27,12.94-.6,1.42,1.38,2.66,1.98,1.23,1.94-4.62,4.36-8.93,7.27-12.94.9-1.24-1.09-2.45-1.98-1.23Z"/>
    <path class="cls-3" d="M736.85,167.34c-5.54,3.57-9.41,7.15-9.89,14.05-.34,4.88.93,10.16-2.54,14.29-2.46,2.92-6.49,4.27-9.82,5.9-10.49,5.14-15.89,16.51-9.65,27.3.74,1.28,2.72.12,1.98-1.16-3.63-6.28-3.04-14.55,2.17-19.85,4.04-4.12,10.05-5.14,14.6-8.51,3-2.23,4.74-5,5.34-8.7.59-3.62-.22-7.32.45-10.93.94-5.06,4.38-7.76,8.52-10.42,1.24-.8.09-2.78-1.16-1.98Z"/>
    <path class="cls-3" d="M752.65,228.09c-9.52-.75-15.45-9.56-12.87-18.69.4-1.42-1.81-2.03-2.21-.61-3.01,10.65,4.1,20.72,15.08,21.59,1.47.12,1.46-2.18,0-2.29Z"/>
    <path class="cls-3" d="M870.97,207.43c-3.3-7.76-10.69-14.2-16.14-20.39-.98-1.11-2.59.52-1.62,1.62,4.42,5.02,9.42,9.91,13.22,15.44,4.6,6.69,4.06,12.74.03,19.68-.74,1.28,1.24,2.43,1.98,1.16,3.3-5.67,5.22-11.16,2.52-17.51Z"/>
    <path class="cls-3" d="M783.55,86.35c-6.11,5.77-10.35,12.92-12.48,21.06-.37,1.43,1.84,2.04,2.21.61,2.04-7.78,6.04-14.52,11.89-20.04,1.07-1.01-.55-2.63-1.62-1.62Z"/>
    <path class="cls-3" d="M888.09,191.09c-4.14-6.97-10.14-12.6-17.61-15.86-2.68-1.17-6.23-1.53-7.33-4.67-.85-2.41-.19-5.99-.09-8.51.23-5.69.43-11.3-.25-16.97-2.28-19.12-12.36-36.71-29.62-45.92-1.3-.69-2.46,1.28-1.16,1.98,20.24,10.8,29.44,32.83,28.97,55.02-.11,5.4-2.8,15.36,2.83,18.95,3.52,2.25,7.91,2.95,11.47,5.38,4.5,3.07,8.04,7.08,10.82,11.75.75,1.27,2.74.12,1.98-1.16Z"/>
    <path class="cls-28" d="M816.18,194.15c-1.49.78-3,1.44-4.52,2.06-.23-.38-.65-.61-1.2-.43-3.86,1.29-7.68-.9-11.63-.27-3.56.57-7.06,2.5-10.38,3.87-1.14-.13-2.28-.27-3.43-.48-1.44-.26-2.06,1.95-.61,2.21,1.3.24,2.59.41,3.88.55.09.03.19.05.3.04,9.97,1.01,19.7-.86,28.74-5.57,1.31-.68.15-2.66-1.16-1.98Z"/>
    <path class="cls-6" d="M818.29,155.71c.02-4.41,1.57-7.49,5.07-7.93,3.5-.44,5.02,3.64,5,8.05-.02,4.41-1.36,7.91-5.07,7.93-3.5.02-5.02-3.64-5-8.05Z"/>
    <path class="cls-6" d="M769.15,158.89c-.11-4.41,1.36-7.53,4.84-8.07,3.49-.54,5.12,3.49,5.22,7.91.11,4.41-1.13,7.94-4.84,8.07-3.5.12-5.12-3.49-5.22-7.91Z"/>
  </g>
  <g>
    <path class="cls-7" d="M1787.61,226.03c-1.93-8.66-6.61-16.55-7.72-25.42-1.28-10.23,1.97-20.57,4.16-30.49,2-9.08,3.84-18.25,4.23-27.55.73-17.45-5.21-34.4-19-45.93-19.42-16.24-51.93-26.54-77.04-19.24-14.66,4.26-30.96,15.81-38.67,28.73-7.7,12.9-11.3,27.58-17.39,41.18-3.09,6.91-6.96,13.14-11.57,19.18-14.21,18.62-5.85,38.64.59,59.16,6.88,21.91,11.96,43.59,12.12,66.66.17,25.8-8.26,50.18-10.92,75.65-.07.67.79,1.34,1.44,1.08,19.51-7.83,39.69-13.91,60.36-18.03,21.42-4.27,43.18-6.68,64.54-11.26,5.23-1.12,10.5-2.28,15.62-3.81,2.73-.82,5.43-1.69,7.3-3.93,4.55-5.45,2.23-14.42,1.97-20.73-.88-22.04,2.14-44,8.61-65.11.08-.27.04-.49-.04-.69,2.06-6.34,2.89-12.74,1.39-19.45Z"/>
    <path class="cls-20" d="M1619.77,553.45c-.64-9.41-1.75-9.09-2.55-18.49-.52-6.09-.68-11.84-4.56-16.9-.68-.89-1.54-1.43-2.44-1.69-.73-.91-1.87-1.5-3.45-1.42-13.14.71-21.8,17.95-25.75,27.78-7.34,18.28-12.43,41.21-14.93,61.84-2.51,20.76-2.13,38.82-3.51,59.67-1.52,22.82-2.08,43.58-2.08,65.61,0,2.71,23.64-14.74,23.84-16.25,6.39-47.67,21.77-69.29,29.98-107.36,3.68-17.06,6.63-35.37,5.45-52.79Z"/>
    <path class="cls-20" d="M1641.53,353.21c-10.97-12.18-34.37-12.69-47.89-4.88-.83.48-1.38,1.1-1.73,1.77-1.1.86-.78,5.57-.87,6.78-.32,4.22-.6,8.45-.77,12.68-.76,18.53-3.97,36.96-5.32,55.47-1.2,16.39-2.06,32.81-2.72,49.23-1.03,25.75-2.33,51.85-.78,77.6.03.58.28,8.18,1.37,8.01,9.42-1.42,18.79.59,28.03-1.65,2.05-.5,3.04-1.93,3.21-3.5.78-.51,1.42-1.27,1.77-2.37,15.38-47.64,23.99-97.73,27.67-147.77,1.19-16.16,10.13-37.95-1.96-51.37Z"/>
    <path class="cls-20" d="M1884.49,341.39c.03-.53-.94-8.66-1.31-9.17-11.15-15.21-17.68-46.95-43.51-57.44-29.35-11.92-85.52,10.41-94.54-24.45-.25-.97-8.56,1.63-9.36,1.47-.71-.52-1.66-.72-2.79-.32-10.05,3.54-20.48,5.22-31.01,6.76-1.65.24-3.52-1.14-3.59.07-12.33,26.17-54.44,23.08-80.21,38.44-21.5,12.82-29.96,36.7-27.38,60.56.14,1.33.2,40.55.2,40.55,6.35-2.87,95.97-6.55,134.83-9.11,18.27-1.2,73.23,2.04,89.81-5.2,10.07-4.4,15.23-42.15,26.18-44.16,13.19-2.42,26.21,1.67,38.08,6.94,3.49,1.55,6.59-2.69,4.61-4.96Z"/>
    <path class="cls-20" d="M1765.33,272.03c-13.22-5.06-19.22-16.33-19.64-29.9-.49-15.95,1.52-32.96,4.73-48.57.52-2.56-4.1-.17-6.15.38-1.15-.6-2.6-.58-3.78.64-9.41,9.71-27.32,15.13-39.81,19.61-2.51.9-2.81,3.67-1.72,5.34,1.44,12.54,3.2,26.66-.59,38.77-4.67,14.92-17.3,23.91-30.42,31.57-1.98,1.16,98.93-17.26,97.38-17.86Z"/>
    <path class="cls-28" d="M1700.15,249.83c14.53,1.99,29.92-4.25,38.29-16.43,4.44-6.45,7.14-13.81,8.9-21.45.67-5.18,1.52-10.31,2.48-15.32.15-1.32.28-2.64.41-3.95-.84-.87-4.26.8-5.97,1.26-1.15-.6-2.6-.58-3.78.64-9.41,9.71-27.32,15.13-39.81,19.61-2.51.9-2.81,3.67-1.72,5.34,1.12,9.7,2.41,20.35,1.19,30.29Z"/>
    <path class="cls-20" d="M1697.93,1035.04c-.04-.99-.37-1.8-.87-2.43-.92-2.66-4.77-4.58-7.68-2.07-11.14,9.58-23.05,18.16-35.69,25.86-2.51-1.98-7.56-.92-7.74,3.18-2.04,47.65,18.24,260.3-6.47,281.08-4.28,3.6,51.62-6.63,51.3-9.65-5.79-54.5,10.92-138.43,15.48-163.05,13.04-70.46-7.49-110.57-8.32-132.91Z"/>
    <path class="cls-20" d="M1756.46,141.03c1.1-1.2-40.14-46.04-66.44-47.37-.15,0-.27.01-.41.02-1.06-.36-2.31-.24-3.33.78-19.85,19.59-25,60.57-13.74,91.55,4.64,12.77,9.87,25.4,19.76,35.09,5.67,5.55,13.12,10.23,21.28,10.96,8.65.77,18.82-4.15,24.74-9.83,18.63-17.84,25.61-52,18.13-81.2Z"/>
    <path class="cls-20" d="M1793.03,542.68c1.01-32.92.75-60.52,10.05-92.14,1.85-6.28,3.7-12.57,5.52-18.87-.9.58-2.92,3.58-3.81,3.04-.28-.39-.67-.74-1.21-1.01-10.25-5.11-21.23-4.77-32.51-4.73-15.88.06-31.74.67-47.59,1.55-15.1.84-30.19,1.9-45.27,3.02-11.46.85-27.69-.71-37.6,5.42-1.95,1.21,1.71,19,1.81,22.46.18,5.95,3.45,18.1,4.11,24.03,3.07,27.82,2.75,46.17-.24,60.49,12.12,3.48,23.88,8.45,36.29,11.02,15.81,3.27,32.03,4.07,48.15,3.94,20.53-.17,40.49-2.8,60.41-6.05,0-.17,0-.33-.01-.51-2.15-1.87,1.79-7.92,1.91-11.65Z"/>
    <path class="cls-20" d="M1822.78,1189.43c-.58-21.73-.64-43.55-1.82-65.26-.78-14.23-4.5-28.09-7.82-41.93-3.03-12.61-4.85-25.29-6.92-38.05-.65-3.98-5.49-3.82-7.73-1.33-11.67,4.38-23.62,9.87-36.1,11.46-1.71.22-2.69,1.1-3.08,2.22-.69.51-1.22,1.28-1.41,2.39-4.45,25.23-5.59,50.87-2.07,76.46,3.4,24.72,14.27,51.46,19.2,75.94,5.17,25.63,18.06,113.27,18.06,113.27,5.5,6.28,33.37,3.98,33.26-.21l-3.57-134.95Z"/>
    <path class="cls-20" d="M1721.92,659.11c-4.78-12.26-13.36-22.21-23.41-29.23-22.98-16.06-55.78-18-76.92,2.47-1.85-.29-3.73.67-4.18,3.36-11.96,70.87-9.05,143.07-2.07,214.39,5.78,59.02,13.73,117.77,23.54,176.12-.39,11.41-1.26,22.83-.61,34.27,1.06,18.72,9.27,33.34,13.6,51,.74,3.01,3.24,3.81,5.3,3.08,1.36.59,2.96.49,4.35-.86,8.58-8.39,22.07-1.94,29.06-15.1,5.5-10.35,12.54-26.18,10.71-37.02-8.7-51.57,19.56-103.51,18.52-229.62-.34-41.97,4.95-83.77,6.26-125.72.49-15.84,1.66-32.25-4.15-47.13Z"/>
    <path class="cls-20" d="M1808.34,1050.61c12.13-178.5,30.36-266.83-.88-417.21-.39-1.89-4.86-2.35-6.23-2.69-1.31-1.16-3.17-1.69-5.12-.77-31.73,14.87-68.87,30.94-85.7,64.7-2.65.7-5.86,4.58-3.09,6.91,7.67,6.46,2.7,27.03,2.92,58.58.22,31.47,5.83,95.91,9.25,127.19,3.21,29.38,7.85,58.63,14.55,87.39,3.63,15.59,7.84,31.02,12.7,46.24,4.54,14.2,11.65,27.71,8.67,55.22,16.8,67.66,51.1-.59,52.95-25.56Z"/>
    <path class="cls-28" d="M1705.94,305.5c-7.54-1.49-15.01-3.25-22.42-5.26-1.42-.39-2.02,1.77-.61,2.15,7.41,2.01,14.88,3.77,22.42,5.26,1.43.28,2.05-1.87.61-2.15Z"/>
    <path class="cls-8" d="M1825.05,380.3c.65-3.31-.89-6.68-3.84-8.42-11.59-6.83-38.31-20.63-46.45-22.26-61.19-12.27-117.36,8-132.65,12.45-9.95,2.9-13.66,32.98-14.06,39.52-1.38,22.85,11.64,54.7,13.73,54.83,41.55,2.57,124.08-1.54,158.57-6,4.98-.64,9.11-4.13,10.43-8.87,5.61-20.08,10.3-40.9,14.27-61.25Z"/>
    <path class="cls-8" d="M1791.43,539.41c-86.46,5.58-135.67-5.24-143.65-2.64-6.42,2.09-36.08,111.85-32.12,112.83,46.88,11.54,56.52,50.34,96.72,54.33,2.13.21,20.62-48.37,97.99-54.91,5.9-.5-15.12-109.86-18.94-109.61Z"/>
    <path class="cls-20" d="M1817.81,568.36c-8.87-5.42-21.49-12.45-31.55-15.46-3.17-.95-5.93,3.37-3.33,5.59,7.67,6.54,16.47,11.14,26.35,13.59.65.16,1.23.13,1.75,0,3.62,1.8,10.41-1.49,6.78-3.71Z"/>
    <path class="cls-20" d="M1939.47,469.61c2.74-1.12,4.6-3.72,4.63-6.63.16-14.01-11.61-40.95-20.7-57.8-14.59-27.05-29.13-56.74-46.26-82.3,0,0-26.04-6.38-39-8.89-7.79-1.51-26.07-5.07-34.05-2.14-5.52,2.02-7.97,6.27-7.34,11.95,1.19,10.75-2.57,10.54,1.78,20.45,9.49,21.63,12.81-11.81,30.18,24.84,31.94,67.42,72.68,82.13,63.39,106.75,12.67,7.36,34.26-.85,47.38-6.23Z"/>
    <path class="cls-7" d="M1745.37,133.31c-7.77-3.28-19.74-3.38-24.01,5.18-.66,1.33-.54,2.5.08,3.84.47,1.02,1.01,2.07,1.95,2.71,3.29,2.24,9.65-.89,13.06-1.61,3.05-.64,6.4-.84,9.22-2.26,3.51-1.76,3.67-6.19-.29-7.86Z"/>
    <path class="cls-7" d="M1696.1,142.19c-2.65-2.64-8.13-3.87-11.21-4.14-4.6-.41-9.57.69-12.71,4.19-2.06,2.3-.97,5.62,1.62,7.05,2.42,1.34,5.03,1.03,7.72,1.15,4.84.22,11.23,2.46,14.89-1.94,1.6-1.92,1.45-4.56-.31-6.32Z"/>
    <path class="cls-20" d="M1914.02,450.24c-17.55,14.96-27.68,35.57-40.51,54.38-16.66,24.42-36.46,46.53-57.48,67.43-3.39-.2,15.09,24.06,18.33,20.81,15-15.08,40.56-34.99,56.38-49.22,13.91-12.51,28.98-24.51,41.14-38.94,5.7-6.77,12.26-14.84,14.9-23.34,2.95-9.52-1.18-22.53-4.7-31.52-.84-2.14-28.06-.63-28.04.41Z"/>
    <path class="cls-7" d="M1767.94,150.1c2.59-8.18,7.03-16.13,6.92-24.85-.1-7.68-4.19-13.1-10.35-17.48-8.38-5.96-17.29-11.42-26.01-16.88-7.35-4.6-15.29-8.1-24.05-5.49-.04.01-.07.04-.11.06-17.47-7.83-35.49,5.53-44.23,21.38-6.32,11.47-10.72,24.12-14.78,36.49-3.14,9.55-8.16,21.48-.04,29.98.53.56,1.22.37,1.62-.08,11.03,39.53,16.18-32.45,64.22-54.71,1.15-.53,2.26-.9,2.34.37.4,6.22-.4,10.62,3.5,17.29,6.76,11.55,16.44,15.73,29.05,18.05-.48.66.13,1.93,1.25,1.78,4.02-.54,7.79-1.83,11.3-3.82,1.09-.62.4-2.11-.63-2.07Z"/>
    <path class="cls-20" d="M1695.95,1364.6c-5.81-36.14-4.69-42.8-6.45-70.09-.39-6.03-44.47,38.93-44.55,39.43-.15,1-.51,1.95-1.21,2.64-7.42,7.29-15.3,14.14-23.23,20.87-2.32,1.97-4.69,4.43-7.53,5.58-10.82,4.39-21.64,9.6-31.34,16.16-.57.38-1.12.77-1.67,1.18-1.88,1.42-2.63,4.16-1.4,6.21.71,1.18,1.92,2.05,3.65,2.11,7.22.26,27.21-.02,34.43.28,16.12.67,18.46-3.04,33.63-7.98,6.92-2.25,13.34-4.65,20.49-4.89,6.34-.21,27.18.87,25.19-11.5Z"/>
    <path class="cls-20" d="M1617.26,798.24c-2.78-6.58-7.61-20.16-7.63-27.45-.02-7.96-8.46-20.15-13.71-29.62-2.39-4.31-4.96-8.56-7-13.05-1.64-3.59-5.89-17.23-6.15-23.36-.12-2.8.8,2.28-2.65,3.38-7.27,2.33-13.69,6.17-18.93,11.69-.59.63-2.43,49.04-1.47,67.52,2.15,11.66,20.34,40.07,34.06,42.61,1.88.35.54-6.24,7.87,4.08,2.93,4.12,9.7.59,7.14-3.86-14.31-24.88-14.32-41.19-15.28-55.28-.48-6.99,5.85-.93,6.63,2.41,1.72,4.83,5.18,16.61,8.36,20.73,3.21,4.15,10.73,4.92,8.74.2Z"/>
    <path class="cls-20" d="M1819.19,568.88c-.11-.04-29.62-11-37.08-8.65-11.2,3.52-21.47,13.18-28.46,21.92-.55.68-.79,1.42-.82,2.14-1.29,3.2,3.01,6.83,5.77,3.83,6.47-7.05,25.15-18.27,23.08-14.55-2.04,1.18-4.01,2.56-5.89,4.25-6.93,6.22-12.66,14.06-18.09,21.53-1.69,2.32.16,4.57,2.42,5,1.2.66,2.78.77,4.07-.01.75.85,1.91,1.27,3.37.69,2.82-1.12,5.31-3.04,7.77-4.74.53-.37,5.76-4.44,5.74-2.02-.01,1.41-3.67,3.15-4.49,4.34-2.17,3.12,1.95,6.21,4.9,4.79,4.52-2.17,9.11-4.14,13.76-5.95,1.37-.53,2.94-.31,4.08.61,3.44,2.79,10.25,3.27,14.27,3.26,9.5-.02,18.77-8.55,24.03-15.65,1.09-1.47-17.3-20.82-18.44-20.76Z"/>
    <path class="cls-20" d="M1864.08,1379.96c-4.5-6.45-9.36-12.81-15.16-18.07-2-1.82-3.81-3.83-5.35-6.08-3.26-4.77-7.26-11.09-9.87-14.9-6.88-10.03-7.44-22.33-8.07-34.24-.2-3.78-4.97-4.42-6.42-1.9-.59-.27-1.31-.38-2.18-.23-6.38,0-12.53.01-18.92.02-2.05-.53-3.41.26-4.06,1.47-1.46.24-2.68,1.36-2.53,3.36.87,11.57.38,23.24-1.58,34.66-1.03,6-.76,5.76-2.55,11.57-2.43,7.87-6.78,15.44,3.53,18.93,4.21,1.42,8.7,2.86,12.12,5.84,2.72,2.37,4.06,5.58,7.91,6.38,5.82,1.22,11.83.54,17.71,1.13,9.2.54,18.73.8,27.85-.8,3.06-.53,12.26-.44,7.57-7.16Z"/>
    <path class="cls-20" d="M1767.38,145.12c-2.82-1.11-6.47-.39-9.22,2.18-6.76,6.31-6.45,14.28-7.62,22.48-.77,5.35,2.73,14.91,9.47,9.74,3.91-3,6.03-8.48,7.85-12.78,2.05-4.83,4.48-10.31,3.83-15.65-.38-3.1-2.09-5.1-4.31-5.97Z"/>
    <path class="cls-7" d="M1610.59,423.39c.75,2.19,3.34,6.12,4.71,8,6.2,8.46,15.36,4.13,24.7,3.14,5.14-.54,27.53-1.26,30.45-6.39,8.37-14.71,11.33-31.86,7.79-48.39-1.82-8.52-5.89-17.61-5.73-26.38.16-8.99,4.24-18.81,7.3-27.16,8.56-23.38,21.83-51.76,20.56-78.5-.03-.66-2.91,3.32-3,2.67-1.86-12.59-14.15-19.31-15.63-32.25.82-.09,1.49-1.14.74-1.9-.33-.34-.68-.66-1.02-1-.09-1.02-.23-2.03-.29-3.06-.09-1.43-2.37-1.44-2.28,0,.01.19.04.38.05.58-8.19-8.05-16.75-15.72-25.73-22.94-1.13-.9-2.75.66-1.57,1.61-.51.06-21.62,50.67-21.49,51.31,4.68,23.35,6.3,33.66-2.2,72.44-4.58,20.89-16.19,43.23-22.07,63.84-2.6,9.13-3.05,17.68.29,26.66,2.05,5.5,2.47,11.99,4.42,17.71Z"/>
    <path class="cls-28" d="M1707.72,184.06c-4.08-4.61-6.74-8.57-6.57-14.9.12-4.55.92-9.14,1.42-13.66.16-1.43-2.13-1.41-2.28,0-.64,5.79-2.18,12.21-1.23,18.01.79,4.84,3.87,8.53,7.05,12.13.96,1.09,2.57-.5,1.61-1.58Z"/>
    <path class="cls-28" d="M1719.36,178.68c-2.22-1.86-4.82-3.08-7.72-3.5-1.44-.21-2.06,1.94-.61,2.15,2.51.36,4.78,1.31,6.71,2.93,1.11.93,2.73-.64,1.61-1.58Z"/>
    <path class="cls-28" d="M1727.83,196.07c-1.67.84-3.39,1.43-5.14,1.87-7.85-1.75-16.55-5.97-22.28,1.97-.68.11-1.35.23-2.02.37-1.43.31-.83,2.46.61,2.15,6.06-1.31,12.31-.96,18.45-1.53,3.11-.29,6.21-.81,9.14-1.88.75-.27,2.77-.74,2.96-1.69.18-.92-.87-1.67-1.71-1.25Z"/>
    <path class="cls-28" d="M1715.01,206.4c-2.28.47-4.57.7-6.91.71-1.47,0-1.47,2.24,0,2.23,2.53-.01,5.04-.28,7.51-.79,1.44-.3.83-2.45-.61-2.15Z"/>
    <path class="cls-28" d="M1782.17,286.15c-9.69,4.47-19.6,6.63-30.04,8.6-8.08,1.53-15.78,3.59-22.17,8.88-1.12.93.5,2.5,1.61,1.58,7.44-6.16,17.02-7.53,26.28-9.23,8.86-1.63,17.3-4.14,25.46-7.9,1.33-.61.17-2.54-1.15-1.93Z"/>
    <path class="cls-28" d="M1615.23,515.22c-3.81,9.97-6.35,20.2-7.7,30.76-.18,1.42,2.1,1.41,2.28,0,1.33-10.36,3.88-20.39,7.62-30.16.51-1.35-1.69-1.93-2.2-.59Z"/>
    <path class="cls-28" d="M1787.44,577.77c-9.17,6.34-17.06,14.01-23.61,22.93-.86,1.17,1.12,2.28,1.97,1.13,6.31-8.6,13.95-16.01,22.79-22.13,1.19-.82.05-2.76-1.15-1.93Z"/>
    <path class="cls-28" d="M1799.85,586.93c-5.64.93-10.68,3.49-14.74,7.42-1.05,1.01.57,2.59,1.61,1.58,3.81-3.68,8.46-5.97,13.73-6.84,1.44-.24.83-2.39-.61-2.15Z"/>
    <path class="cls-28" d="M1713.58,708.89c.08-1.43-2.2-1.43-2.28,0-2.85,50.59-.65,101.3,6.54,151.48.2,1.42,2.4.81,2.2-.59-7.16-49.97-9.3-100.51-6.46-150.89Z"/>
    <path class="cls-28" d="M1771.53,1029.94c-.74-1.31-2.71-.12-1.97,1.19,7.94,14.09,13.1,29.38,15.42,45.52.22,1.5,2.41.86,2.2-.63-2.34-16.33-7.62-31.83-15.65-46.08Z"/>
    <path class="cls-28" d="M1803.95,1053.53c-.99,5.16-1.98,10.31-2.98,15.47-.29,1.49,1.91,2.12,2.2.63.99-5.16,1.98-10.31,2.98-15.47.29-1.49-1.91-2.12-2.2-.63Z"/>
    <path class="cls-28" d="M1676.97,1038.36l-9.18,36.35c-.37,1.47,1.83,2.1,2.2.63l9.18-36.35c.37-1.47-1.83-2.1-2.2-.63Z"/>
    <path class="cls-28" d="M1653.37,1085.23c-1.14-2.76-2.28-5.52-3.42-8.28-.58-1.4-2.54-.19-1.97,1.19,1.14,2.76,2.28,5.52,3.42,8.28.58,1.4,2.54.19,1.97-1.19Z"/>
    <path class="cls-28" d="M1829.8,1385.24c-2.06-6.04-5.39-11.33-9.93-15.67-1.08-1.03-2.7.64-1.61,1.67,4.25,4.06,7.42,8.98,9.35,14.63.49,1.43,2.69.81,2.2-.63Z"/>
    <path class="cls-28" d="M1847.05,1385.05c-3.07-5.91-7.03-11.15-11.85-15.64-1.09-1.02-2.71.65-1.61,1.67,4.68,4.36,8.51,9.42,11.49,15.16.7,1.34,2.67.15,1.97-1.19Z"/>
    <path class="cls-28" d="M1858.61,1382.6c-2.28-4.82-5.72-8.79-10.06-11.72-1.23-.83-2.38,1.21-1.15,2.04,4.02,2.71,7.13,6.41,9.24,10.87.65,1.37,2.62.17,1.97-1.19Z"/>
    <path class="cls-28" d="M1630.72,1371.86c-7.1,2.64-13.37,6.78-18.63,12.4-1.02,1.09.59,2.77,1.61,1.67,4.99-5.32,10.88-9.29,17.62-11.79,1.37-.51.78-2.8-.61-2.28Z"/>
    <path class="cls-28" d="M1614.55,1370.62c-7.85,3.9-15.25,8.56-22.22,13.97-1.16.9-.02,2.96,1.15,2.04,6.97-5.41,14.37-10.07,22.22-13.97,1.32-.66.17-2.7-1.15-2.04Z"/>
    <path class="cls-28" d="M1600.33,1372.17c-6.16,2.31-11.55,6.01-15.94,11.05-.98,1.13.63,2.81,1.61,1.67,4.12-4.73,9.15-8.27,14.94-10.44,1.37-.51.78-2.8-.61-2.28Z"/>
    <path class="cls-28" d="M1764.87,150.39c-2.8,2.28-5.18,5.5-6.65,8.76-1.53,3.39.05,7.26-.95,10.88-.39,1.39,1.81,1.98,2.2.59.91-3.25-.12-6.56.64-9.65.82-3.35,3.74-6.85,6.38-9.01,1.13-.92-.49-2.49-1.61-1.58Z"/>
    <path class="cls-28" d="M1763.96,158.12c-1.09-.96-2.7.61-1.61,1.58.76.68,1.09,1.7.63,2.65-.63,1.29,1.34,2.42,1.97,1.13.89-1.83.57-3.96-.99-5.35Z"/>
    <path class="cls-28" d="M1595.77,822.56c-7.7-15.92-12.48-32.75-14.37-50.3-.18-1.69-2.82-1.05-2.64.62,1.91,17.79,6.83,34.85,14.62,50.97.74,1.54,3.12.25,2.38-1.29Z"/>
    <path class="cls-28" d="M1588.85,818.65c-7.08-10.23-11.52-21.45-13.34-33.72-.25-1.69-2.89-1.05-2.64.62,1.85,12.47,6.4,23.99,13.6,34.38.96,1.39,3.36.12,2.38-1.28Z"/>
    <path class="cls-9" d="M1744.52,94.61c-1.04-1.02-2.65.56-1.61,1.58,11.9,11.66,18.67,27.05,19.14,43.51.04,1.43,2.32,1.44,2.28,0-.48-17.06-7.48-33-19.81-45.09Z"/>
    <path class="cls-9" d="M1665.24,177.25c1.13-.91-.49-2.48-1.61-1.58-10.2,8.21-12.28,21.53-10.64,33.73,2.37,17.68,8.72,34.09,7.7,52.24-1.92,34.39-27.19,63.7-24.06,98.85.13,1.42,2.41,1.43,2.28,0-2.94-33.03,19.35-60.81,23.49-92.68,2.01-15.5-.84-30.53-4.49-45.56-3.68-15.14-6.58-33.78,7.34-44.99Z"/>
    <path class="cls-9" d="M1660.74,314.56c-7.61,24.24-14.17,51.03-1.28,74.74.69,1.27,2.66.14,1.97-1.13-12.58-23.15-5.9-49.41,1.51-73.03.43-1.38-1.77-1.96-2.2-.59Z"/>
    <path class="cls-9" d="M1772.53,219.92c-2.25-5.42-5.73-10.13-7.09-15.92-1.42-6.06-1.27-12.36-1.15-18.54.03-1.44-2.25-1.44-2.28,0-.16,8.35-.25,16.91,3.08,24.76,2.04,4.81,5.23,9.02,6.57,14.13,1.72,6.55.81,13.23-2.06,19.32-.61,1.29,1.36,2.43,1.97,1.13,3.73-7.92,4.35-16.72.96-24.88Z"/>
    <path class="cls-9" d="M1706,82.52c-1.46-.13-1.45,2.1,0,2.23,6.99.63,12.59,6.47,12.88,13.31.06,1.43,2.34,1.44,2.28,0-.35-8.12-6.9-14.79-15.16-15.54Z"/>
    <path class="cls-9" d="M1690.23,103.52c-11.87,12.95-18.61,29.5-30.85,42.15-11.47,11.85-26.32,21.73-29.87,38.71-.29,1.4,1.91,2,2.2.59,3.76-18.01,20.61-27.68,32.07-40.73,10.67-12.15,17.12-27.2,28.06-39.14.98-1.07-.63-2.65-1.61-1.58Z"/>
    <path class="cls-9" d="M1663.64,122.06c-2.89,6.54-4.89,13.25-5.98,20.3-.22,1.4,1.98,2.01,2.2.59,1.06-6.83,2.95-13.42,5.75-19.76.58-1.3-1.39-2.44-1.97-1.13Z"/>
    <path class="cls-23" d="M1728.27,157.99c-.17-4.33,1.14-7.41,4.38-7.98,3.25-.58,4.83,3.36,5,7.68.17,4.33-.92,7.81-4.38,7.98-3.26.17-4.83-3.36-5-7.68Z"/>
    <path class="cls-23" d="M1682.69,163.47c-.17-4.33,1.14-7.41,4.38-7.98,3.25-.58,4.83,3.36,5,7.68.17,4.33-.92,7.81-4.38,7.98-3.26.17-4.83-3.36-5-7.68Z"/>
  </g>
  <g>
    <path class="cls-25" d="M2627.98,203.28c-8.45-16.62-27.71-32.03-45.68-38.26-8.09-2.81-17.31-3.34-25.01.82-4.01,2.17-6.88,5.4-9.91,8.69-6.28,6.81-11.73,8.75-21.2,6.71-17.72-3.83-35.44-4.03-46.3,12.84-7.92,12.3-8.17,35.72,5.38,44.5,1.06.69,2.09.67,2.94.25,6.85,8.26,17.73,14.65,27.57,15.46,8.77.72,18.77-.29,27.28-2.57,4.21-1.13,8.16-2.81,11.81-5.13,4.21-2.68,8.26-8.43,14.14-5.77,2.71,1.23,4.92,4.86,7.62,6.49,3.36,2.03,7.22,3.22,11.16,3.58,7.86.72,15.56-1.97,22.07-6.08,14.61-9.23,18.81-22.5,17.95-38.26.62-.89.82-2.05.21-3.26Z"/>
    <path class="cls-26" d="M2400.02,565.45c-6.51-7.99-12.39-16.34-17.44-25.28-12.24-21.63-15.72-49.49-27.69-71.76-.19-.35-.34-.71-.46-1.08-13.51-2.03-26.05-11.15-39.7-8.59-9.25,1.73-13.8-1.69-27.35,14.5-.91,22.63,11.21,33.42,19.39,45.02,23.9,33.93,54.93,63.11,90.15,85.89.08.05.16.08.23.12.75.84,2.17,1.78,3.36.87,5.6-4.27,13.94-21.51,13.94-21.51-2.23-6.05-10.39-13.23-14.43-18.18Z"/>
    <path class="cls-26" d="M2472.88,393.18c-.2-.86-.44-1.76-.7-2.66.11-.29.2-.6.23-.95,2.72-29.2-40.44-82.44-69.4-60.96-2.8,2.08-6.09.9-8.68-1.43-.07-.06-.11-.02-.21.1-19.76,21.75-39.09,43.89-57.36,66.84-17.46,21.92-40.41,46.39-48.37,73.44-.55,1.88-.85,3.78-1,5.69,6.83-5.44,15.65-8.75,24.11-10.55,14.3-3.04,29.72,4.49,43.89,6.65-2.15-4.48-.61-7.46.56-8.67,22.24-22.94,51.45-36.53,73.22-60.49,4.37-4.81,8.64-9.7,13.02-14.5,3.56-3.9,12.55-7.58,18-4.99,3.52,1.67,5.2,10.97,5.98,14.28,1,4.23,7.73,2.44,6.72-1.79Z"/>
    <path class="cls-26" d="M2543.38,1407.73c3.71-8.67-10.19-17.6-15.54-26.04-3.43-5.4-3.61-11.59-4.56-17.76-1.43-9.31-2.76-18.64-3.98-27.99,2.17-52.87,10.12-104.78,21.1-156.75,5.45-25.83,10.43-52.06,8.71-78.48-1.68-25.88-14.29-50.79-12.94-76.75.2-3.96-6.24-4.64-7.55-1.44-7.51-2.45-15.4-3.01-22.75-1.68-.69-.3-1.53-.42-2.5-.24-10.01,1.88-21.2,4.29-27.78,11.62-8.38,9.33-4.45,22.84-5.46,33.85-.72,7.82-2.11,15.51-3.79,23.14l-.79,3.06c-.07.29-.1.56-.1.83-5.02,21.57-11.87,42.78-11.94,65.22-.2,57.99,26.45,113.75,24.22,171.77-9.52,17.86-22.39,75.54-12.14,79.47,11.51,4.41,75.67,3.15,77.8-1.83Z"/>
    <path class="cls-26" d="M2715.42,364.44c-9.28-29.83-21.57-52.06-46.53-70.27-11.04-8.05-24.14-11.72-37.82-12.57-11.9-.74-25.12,1.4-36.98-.7-10.5-1.86-17.69-11.32-17.07-21.63.25-4.06.7-8.08.98-11.86.97-12.89,2.54-25.7,4.59-38.47,2.3-1.46,1.62-6.01-2.01-6.31-16.65-1.38-33.27-1.68-49.96-.9-3.97.19-4.42,5.53-1.32,6.57.43,12.68.73,25.37.84,38.06.06,6.44.6,13.3-.7,19.63-1.42,6.8-7.74,11.62-14.81,11.56-6.49-.05-13.49-1.99-19.19-2.89-7.39-1.16-14.87-2.14-22.37-2.24-13.25-.17-26.05,2.5-37.57,8.94-25.45,14.24-31.82,34.2-51.82,57.47-1.97,2.29,1.48,12.83,3.77,12.82.49,1.06,1.48,1.89,3,1.98,22.05,1.2,43.75,4.9,63.23,14.51,2.52,9.95,5.77,19.64,17.25,21.11,21.45,2.75,43.73,2.82,65.33,4.21,21.03,1.35,42.05,2.71,63.08,4.06,7.26.47,17.26,3.03,24.23.07,6.23-2.64,10.96-9.94,15.26-15.41,20.71-5.38,42.31-5.26,63.86-4.82,1.78.04,2.84-1.01,3.21-2.28,1.63-.49,10.15-8.61,9.51-10.64Z"/>
    <path class="cls-4" d="M2529.31,208.29c.43,12.68.73,25.37.84,38.06.03,3.11.17,6.32.16,9.53,12.71,1.81,25.46-2.74,35.24-11.36,6.84-6.02,11.58-13.47,15.02-21.53.62-4.69,1.28-9.37,2.03-14.05,2.3-1.46,1.62-6.01-2.01-6.31-16.65-1.38-33.27-1.68-49.96-.9-3.97.19-4.42,5.53-1.32,6.57Z"/>
    <path class="cls-26" d="M2559.13,737.34c-2.46-22.62-24.73-24.89-28.59-47.33-3.46-20.08-6.72-41.55-18.52-58.92-19.96-29.38-60.4-41.84-94.36-30.11-.35.12-.65.29-.92.48-1.4-.52-3.02-.21-3.86,1.51-34.25,70.27-27.88,151.75-10.62,226.35,18.25,78.86,54.42,150.91,68.09,231.02,1.31,7.69,2.37,15.43,3.11,23.2.18,1.88,1.63,2.95,3.16,3.18,11.86,7.31,26.91,4.64,37.42-4.19,12.15-10.21,16.95-26.42,19.68-41.19,8.4-45.38,11.25-92.39,12.38-138.42,1.19-48.5,18.28-117.34,13.03-165.59Z"/>
    <path class="cls-26" d="M2771.9,471.97c-7.39-34.53-28.83-62.54-47.5-91.61-16.21-25.24-22.28-57.29-45.76-77.62-1.12-.97-106.85,107.09-45.38,81.59,8.53-3.53,19.48,22.88,21.83,27.56,7.99,15.88,19.6,29.51,31.46,42.61,10.75,11.88,25.13,23.32,27.11,40.31.23,1.98-.05,4.02-.34,5.97-.2,1.32,20.44-13.01,30.51-10.91,11.64,2.42,22.97-3.05,26.09-14.32.63-.72,2.25-2.4,1.99-3.57Z"/>
    <path class="cls-26" d="M2697.89,704.08c-3.33-37.39-14.03-73.96-34.63-107.99-.46-.76-1.08-1.21-1.74-1.44-.58-1.42-1.99-2.41-3.91-1.7-58.56,21.58-91.25,76.9-106.08,133.11-9.09,34.48-13.25,70.19-17.24,105.5-4.27,37.85-7.3,75.84-9.06,113.88-1.36,29.34-2.12,58.95,2.25,87.93-1.02,12.05-1.89,24.36,0,35.88,2.19,13.29,10.31,24.03,19.18,33.96-.15.69-.08,1.46.35,2.25,6.36,11.74,22.15,10.13,31.97,3.58,15.02-10.02,18.78-28.28,23.78-44.06.32-1,.16-1.86-.27-2.54-3.98-6.31,9.29-37.9,11.57-45.17,4.91-15.66,10.65-31.05,16.76-46.28,12.1-30.19,25.76-59.73,37.43-90.09,21.7-56.43,34.9-117.64,29.63-176.81Z"/>
    <path class="cls-4" d="M2647,350.35c-3.16,12.45-11.46,22.68-16.55,34.36-.57,1.32,1.43,2.47,2.01,1.14,5.17-11.86,13.58-22.25,16.79-34.9.36-1.41-1.88-2.01-2.24-.6Z"/>
    <path class="cls-4" d="M2464.35,376.58c-7.1-9.28-11.87-19.68-14.21-31.01-.29-1.42-2.53-.82-2.24.6,2.38,11.52,7.22,22.1,14.45,31.54.88,1.15,2.9.03,2.01-1.14Z"/>
    <path class="cls-26" d="M2641.93,1373.54c-1.43-2.95-2.29-6.14-2.48-9.4-1.07-17.78-1.55-26.88-5.36-44.11-3.81-17.27-2.9-42.66-3.96-60.43-2.63-44.12,10.06-88.26,4.33-132.17-2.66-20.38-10.8-39.04-17.92-58.22-3.97-10.69-14.78-19.17-4.92-45.09,2.44-6.41-5.15-4.48-9.28-10.29-7.68-10.79-24.57,4.43-31.07,9.37-14.89,11.32-27.04,25.28-36.56,41.07-2.04-.51-4.45.51-4.25,3.1,3.65,47.52,7.34,95.48,20.01,141.71,12.14,44.31,42.67,88.59,37.79,135.71-2.2,6.72-4.08,13.5-5.22,20.55-1.18,7.34-1.79,14.98-5.65,21.58-.03.04-14.51,15.3-7.8,20.39,6.41,4.87,62.85.4,71.65-.64,4.77-.56,8.02-4.97,7.44-9.59-.87-6.97-4.05-18.01-6.73-23.55Z"/>
    <path class="cls-26" d="M2592.81,122.89c-6.58-13.02-18.98-21.49-37.3-21-18.78.51-38.72,8.14-50.22,22.44-11.84,14.73-14.09,34.17-11.77,52,1.46,11.17,4.61,22.21,9.37,32.54,6.88,14.93,15.82,28.34,34.29,30.77,20.93,2.76,41.82-6.04,49.23-21.83,11.02-23.46,14.31-50.92,11.63-76.35-.72-6.78-2.46-13.08-5.23-18.58Z"/>
    <path class="cls-14" d="M2554.17,196.05l-24.31,4.89c-.38.08-.6.29-.71.56-.48.36-.73,1.05-.18,1.6,2.78,2.81,6.63,5.57,10.89,4.94,6.15-.91,12.72-4.93,15.56-10.41.44-.86-.28-1.77-1.25-1.57Z"/>
    <path class="cls-6" d="M2667.79,600.43c-6.14-18.39-18.08-44.77-27.6-61.72-5.25-9.35-9.77-18.98-10.8-29.78-3.43-35.69,17.56-59.85,20.97-90.14,1.27-11.31-4.5-25.71-11.2-35.76-9.61-14.4-32.89-11.16-47.6-8-12.47,2.68-23.44,9.68-35.63,12.36-7.36,1.62-15.33-1.25-21.88-4.28-19.57-9.06-46.28-25.62-68.58-16.83-19.41,7.65-26.57,39.98-23.02,56.93,4.89,23.39,16.88,37.83,20.73,58.45,4.54,24.27-14.48,47.53-26.58,67.31-11.7,19.14-22.7,38.58-28.58,60.22-1.47,5.42,14.58,5.18,17.86,5.98,53.03,12.96,70.8,74.92,98.65,113.43,3.62,5.01,6.83,6.98,13.35,7.77,8.87,1.07,18.66-.77,20.1-3.19,12.7-21.4,23.56-57.04,41.25-80.45,34.86-46.13,69.62-49.17,68.56-52.32Z"/>
    <path class="cls-26" d="M2685.8,592.31c-3.18-6.58-10.83-17.95-16.7-23.16-7.3-6.48-16.28-11.58-23.78-18-1.76-1.5-5.05-1.15-6.18.94-2.87,5.27,3.41,13.49,7.29,16.55,5.23,4.13,11.99,5.93,17.99,8.72.71.33,1.4.44,2.05.41,2.69,3.72,4.55,7.85,6.7,12.3,1.9,3.95,14.57,6.24,12.64,2.23Z"/>
    <path class="cls-4" d="M2558.47,195.49c-1.13.16-2.26.29-3.45.39-4.39.13-7.71-1.05-12.1-.92-3.37.1-8.72-.77-11.62,1.06-2.64,1.67-2.91,4.45-3.12,4.72-.79,1.02-1.82,1.42-3.38,2.06-1.31.54-.18,2.38,1.12,1.85,3.08-1.27,5.38-3.23,8.66-4.16,6.55-1.86,13.55-2.26,20.34-2.46.03,0,.06,0,.13-.01,1.34-.13,2.68-.27,4.01-.46,1.4-.2.81-2.26-.59-2.07Z"/>
    <path class="cls-26" d="M2766.52,455.62c-2.39-6.08-14.42-13.31-24.73-5.92-11.42,8.18-23.77,28.73-26.39,41.28-20.3,97.15-36.48,122.43-34.85,123,7.47,2.6,14.94,5.19,22.4,7.79.37.13.72.18,1.05.19,1.49.75,3.43.61,4.51-1.21,15.14-25.71,38.35-59.53,51.13-86.41,5.4-11.35,12.52-28.46,14.1-41.02,1.63-13.01-2.73-25.62-7.22-37.69Z"/>
    <path class="cls-25" d="M2572.75,135.61c-1.8-1.45-4.58-2.48-5.99-3-4.59-1.7-9.74-2.41-14.57-1.24-2.67.65-5.2,2.38-5.41,5.28-.14,1.94.91,3.69,2.7,4.56,1.15.56,2.45.77,3.74.9,5.26.53,10.56.11,15.8-.39,1.61-.15,3.51-.05,4.63-1.4,1.52-1.84.69-3.43-.9-4.71Z"/>
    <path class="cls-25" d="M2518.23,142.16c-3.46-2.93-9.7-.64-12.95,1.47-4,2.59-6.7,6.17-8.5,10.45-.08.18-.12.36-.16.53-.41,1.7.03,3.27,1.82,4.08,2.05.93,3.56-.49,5.11-1.66,3.17-2.38,21.68-8.95,14.69-14.88Z"/>
    <path class="cls-26" d="M2698.9,608.98c-.54-.22-.96-.6-1.21-1.08-4.84-9.23-32.15-38.57-38.75-42.27-8.7-4.88-13.42-3.05-22.64,2.51-3.43,1.43-6.76,3.06-9.94,4.94-5.19,3.06-14.11,7.28-12.6,13.69.36,1.55,2.05,2.34,3.65,2.48,5.56.48,20.74-11.8,22.25-6.98.01.05,0,.1,0,.15-.04,1.09-25.35,13.66-26.05,22.77-.16,2.05,2.57,4.01,4.79,3.25.44-.15.86-.33,1.29-.5.22,1.94,1.6,3.09,3.76,3.32,4.21.44,9.16-.84,13.55-1.6-1.63.72-3.22,1.58-4.74,2.63-1.6,1.11-1.32,3.62,0,4.77,1.84,1.61,7.13.72,12.14-.64,6.84-1.86,14.08-.24,19.66,4.01,6.28,4.78,15.19,12.56,34.92,9.69,7.62-1.11,17.7-23,17.7-23,0-4.34-13.56,3.54-17.78,1.84Z"/>
    <path class="cls-26" d="M2490.11,559.07c-13.06-6.94-26.86-14.54-36.5-13.07-2.55.39-10.7,3-12.75,4.54.6-.77,1.23-1.53,1.82-2.31,2.46-3.24-.16-10.09-2.96-7.7-6.16,5.26-15.58,13.39-19.95,20.29-4.74,7.5-7.18,16.84-13.67,23.22-.97.96-22.3,10.43-21.55,11.74,7.09,12.48,19.2,14.54,20.76,14.67,7.3.6,11.94-7.01,15.11-9.74,1.23-1.05,2.14-2.35,2.92-3.75,1.13-2.02,5.76-3.88,7.56-2.53,2.8,2.09,3.14,4.52,7.26,8.44,2.56,2.43,11.86,3.78,10.69.67-1.96-5.24-3.72-9.26-6.29-12.69-.88-1.17.54-2.63,1.79-1.84,5.21,3.33,9.29,8.23,15.02,10.94,1.54.73,5.65,1.77,6.65.88,1.77-.72,3-2.65,1.68-4.68-3.55-5.46-7.24-10.97-12.61-14.91-1.82-1.33-3.84-2.37-5.92-3.27-1.05-.45-2.12-.87-3.19-1.27-.42-.16-3.6-.66-2.78-1.49.16-.16.39-.21.62-.25,3.16-.54,6.4.21,9.44,1.02,2.97.79,5.83,1.93,8.59,3.24,1.78.85,3.52,1.78,5.23,2.77,1.98,1.14,3.85,2.72,5.9,3.71,7.13,4.88,13.91-1.22,11.31-3.84-6.29-6.35-14.12-11.73-22.03-16.11-2.88-1.6-6.07-2.55-9.32-3.15-1.56-.29-3.14-.4-4.72-.53-1.23-.1-2.72.32-3.88-.2-1.12-.51-.13-.87.63-1.16,1.29-.49,2.62-.51,3.95-.83,1.73-.41,3.51-.53,5.28-.44,3.75.2,7.37,1.36,10.92,2.44,4.26,1.3,8.51,2.6,12.93,3.28,3.07.48,6.39,1.25,9.49.59,2.99-.64,6.62-4.52,2.57-6.67Z"/>
    <path class="cls-25" d="M2655.68,168.25c-2.23-1.97-4.73-3.75-7.46-5.27-2.96-1.65-7.36-3.2-9.09-6.36-1.2-2.18-1-5.95-1.45-8.34-1.66-8.66-4.57-16.6-9.96-23.76-5.86-7.76-13.48-13.63-22.15-17.46-.29-.13-.56-.3-.79-.51-7.13-6.34-16.13-10.08-25.81-10.93-.87-.08-3.82-3.78-4.69-4.46-2.18-1.71-4.58-3.17-7.08-4.39-4.18-2.02-8.77-3.6-13.4-4.26-10.91-1.55-28.51,2.54-34.95,12.6-.64,1.01-1.86,1.52-3.08,1.45-1.25-.08-2.78-.3-4.83-.53-16.03-1.81-30.63,5.18-37.63,19.44-3.31,6.73-4.74,14.27-4.69,21.7.04,6.14,2.9,12.46,2.51,18.78-.21,3.36-.69,5.61-3.67,6.94-2.91,1.3-6.72,1.32-9.8,2.61-12.33,5.19-22.85,16.6-26.11,29.31-3.75,14.61,4.08,27.64,16.44,33.58.6.29,1.09.72,1.43,1.28,7.05,11.75,21.47,23.08,35.62,14.39,5.36-3.29,8.44-8.93,8.05-15.03-.3-4.76-2.68-8.86-4.13-13.31-1.6-4.9-1.26-8.81.24-12.59.19-.12.38-.26.55-.42,5.11-4.75,8.58-10.45,9.33-17.38,1-9.25-5.83-18.25-.23-26.84,4.81-7.38,11.64-13.38,16.4-20.89.32-.5.63-1,.93-1.51,1.15-1.9,3.83-2.19,5.4-.6,6.89,7.04,23.88,3.22,32.26,1.28,3.25-.75,7.13-1.73,9.91.66,2.4,2.07,4.04,7.89,6.15,10.62,1.44,1.85,2.99,3.61,4.69,5.25,8.35,8.06,15.98,17.52,27.52,18.73,1.02.11,1.98.62,2.52,1.47,12.18,18.76,1.79,41.76-15.49,54.98-7.6,5.82,13.57,12.81,16.96,12.67,7.5-.3,13.56-5.01,19.62-8.8,15.8-1.07,30.73-8.26,38.22-22.41,7.96-15.05,3.62-31.18-8.24-41.67Z"/>
    <path class="cls-25" d="M2586.45,127.95c-1.69.04-2.7,1.08-3.05,2.31-.16.15-.32.32-.46.52-4.39,6-7.04,12.67-7.38,20.07-.15,3.36.17,6.71.97,9.99.41,1.68,1.49,3.49,1.72,5.16.64,4.62,1.45,2.31-2.01,4.4-6.12,3.71-11.51,4.74-15.96,11.06-3.77,5.36-5.61,12.01-4.83,18.48.7,5.8,3.4,9.51,7.65,13.36,2.19,1.98,2.69.53,4.22,3.58,1.39,2.75.21,2.44.46,4.92.25,2.5.04,4.32,1.12,6.72,5.43,12.1,19.22,10.04,29.9,5.88.72.87,1.86,1.41,3.3,1.08,30.86-7.09,24.31-35.23,26.15-59.27,1.61-21.05-18.33-48.84-41.8-48.25Z"/>
    <path class="cls-25" d="M2504.45,195.56c-7.09-7.65-4.27-18.27-1.6-27.09,1.48-4.89,2.3-9.4,1.82-14.55-.26-2.81-.85-5.59-1.77-8.27-.61-1.78-3.56-5.72-3.45-7.37.23-3.16-4.46-5.38-6.05-2.03-6.81,14.36-11.85,29.14-15.07,44.64-3.07,14.76-5.53,29.46-13.73,42.23-1.56-.36-14.75,4.58-15.21,6.54-2.01,8.68,5.19,17.1,12.19,21.54,7.49,4.75,17.15,5.18,25.49,2.46,9.63-3.14,14.29-10.5,21.66-16.59,3.74-3.09,5.82-8.14,6.48-12.85,1.46-10.43-3.71-21.05-10.77-28.66Z"/>
    <path class="cls-4" d="M2614.54,306.22c-14.45,1.34-28.35,4.91-41.59,10.68-1.36.59-.18,2.53,1.17,1.94,12.86-5.6,26.38-9.07,40.42-10.37,1.48-.14,1.49-2.39,0-2.25Z"/>
    <path class="cls-4" d="M2524.34,316.93c-7.31-4.98-15.09-9.09-23.35-12.4-1.38-.55-1.98,1.62-.62,2.17,8.07,3.23,15.65,7.3,22.79,12.17,1.23.84,2.39-1.11,1.17-1.94Z"/>
    <path class="cls-4" d="M2533.72,183.79c-8.81-8.18-7.37-18.23-5.07-28.78.29-1.34-1.84-1.92-2.13-.57-2.47,11.31-3.71,22.18,5.64,30.86,1.03.95,2.59-.56,1.56-1.51Z"/>
    <path class="cls-4" d="M2545.67,179.73c-2.15-2-4.71-3.42-7.59-4.17-1.38-.36-1.96,1.71-.59,2.07,2.52.66,4.74,1.86,6.62,3.62,1.02.96,2.59-.56,1.56-1.51Z"/>
    <path class="cls-4" d="M2548.01,211.61c-2.83,1.35-5.88,2.53-9.1,2.11-1.39-.19-1.99,1.88-.59,2.07,3.88.52,7.36-.68,10.81-2.32,1.28-.61.16-2.46-1.12-1.85Z"/>
    <path class="cls-4" d="M2550.78,1111.55c-6.23-12.07-14.09-24.3-18.31-37.19-4.47-13.64-.71-27.98-.62-41.92,0-.36-.14-.63-.35-.81-.86-74.21-1.48-148.69,7.73-222.49,2.73-21.9,6.38-43.69,11.05-65.28.31-1.41-1.93-2.02-2.24-.6-16.24,75.02-19.34,151.84-19.32,228.27,0,21.87.26,43.73.52,65.59,0,.19.05.35.12.49-.7,12.5-3.09,25.15.88,37.34,4.27,13.12,12.21,25.47,18.54,37.73.67,1.3,2.67.16,2.01-1.14Z"/>
    <path class="cls-4" d="M2573.82,1051.12c-.75,8.36-5.29,15.54-7.86,23.41-2.28,7.01-3.28,14.26-3.32,21.59,0,1.45,2.32,1.45,2.32,0,.05-8.47,1.5-16.75,4.57-24.7,2.61-6.76,5.96-13,6.62-20.3.13-1.44-2.19-1.43-2.32,0Z"/>
    <path class="cls-4" d="M2543.35,1157.72c-5.47-23.78-8.68-47.94-9.6-72.29-.05-1.44-2.38-1.45-2.32,0,.93,24.55,4.17,48.91,9.69,72.89.33,1.41,2.57.81,2.24-.6Z"/>
    <path class="cls-4" d="M2521.63,1058.29c-1.24,12.31-8.23,22.99-11.61,34.75-.4,1.4,1.84,1.99,2.24.6,3.45-11.98,10.43-22.79,11.69-35.35.14-1.44-2.18-1.43-2.32,0Z"/>
    <path class="cls-4" d="M2591.95,1387.04c-3.47,5.72-5.53,11.89-6.25,18.49-.16,1.44,2.17,1.43,2.32,0,.68-6.2,2.68-11.98,5.94-17.35.76-1.25-1.25-2.39-2.01-1.14Z"/>
    <path class="cls-4" d="M2607.76,1385.98c-3.44,6.28-4.89,13.08-4.24,20.17.13,1.43,2.46,1.44,2.32,0-.62-6.7.66-13.08,3.92-19.03.7-1.28-1.31-2.42-2.01-1.14Z"/>
    <path class="cls-4" d="M2624.27,1387.21c-.36-1.41-2.6-.81-2.24.6,1.23,4.85,1.33,9.68.27,14.57-.31,1.41,1.93,2.02,2.24.6,1.14-5.28,1.06-10.53-.27-15.77Z"/>
    <path class="cls-4" d="M2518.84,1384.18c-.69-1.29-2.69-.15-2.01,1.14,3.49,6.54,5.65,13.45,6.46,20.77.16,1.42,2.48,1.44,2.32,0-.86-7.72-3.11-15.01-6.78-21.91Z"/>
    <path class="cls-4" d="M2504.72,1387.73c-.38-1.4-2.62-.81-2.24.6,1.54,5.67,1.97,11.37,1.31,17.19-.16,1.44,2.16,1.43,2.32,0,.68-6.03.2-11.93-1.4-17.79Z"/>
    <path class="cls-4" d="M2484.74,1391.48c-.05-1.44-2.38-1.45-2.32,0,.18,5.08-.04,10.13-.65,15.18-.17,1.44,2.15,1.42,2.32,0,.61-5.05.83-10.1.65-15.18Z"/>
    <path class="cls-4" d="M2659.07,575.37c-4.5.13-8.84.93-13.08,2.43-1.39.49-.79,2.67.62,2.17,4.03-1.43,8.16-2.22,12.46-2.35,1.49-.04,1.5-2.29,0-2.25Z"/>
    <path class="cls-4" d="M2661.09,588.06c-14.39.87-27.57,6.5-37.9,16.24-1.07,1.01.57,2.6,1.64,1.59,9.88-9.32,22.49-14.75,36.26-15.58,1.49-.09,1.5-2.34,0-2.25Z"/>
    <path class="cls-4" d="M2667.81,601.18c-10.01-.97-19.61,1.33-28,6.68-1.24.79-.08,2.74,1.17,1.94,8.1-5.17,17.18-7.31,26.83-6.38,1.49.14,1.48-2.11,0-2.25Z"/>
    <path class="cls-4" d="M2439.77,585.57c-2.98-2.29-6.61-3.14-10.34-2.32-1.46.32-.84,2.49.62,2.17,2.85-.62,5.78-.02,8.08,1.75,1.16.89,2.81-.69,1.64-1.59Z"/>
    <path class="cls-4" d="M2436.83,551.76c-4.17,2.08-7.88,4.82-11.05,8.16-1.01,1.06.63,2.66,1.64,1.59,3.05-3.21,6.58-5.81,10.58-7.81,1.33-.66.16-2.61-1.17-1.94Z"/>
    <path class="cls-4" d="M2675.46,624.5c-6.43-1.67-7.92-10.53-14.27-11.67-6.45-1.15-15.11,2.86-20.98,4.89-1.4.49-.8,2.66.62,2.17,6.29-2.18,17.44-7.48,23.08-2.63,3.77,3.24,5.75,8.06,10.94,9.41,1.45.38,2.06-1.79.62-2.17Z"/>
    <path class="cls-12" d="M2611.4,189.53c-1.38-2.96-3.42-5.64-5.89-7.84-2.43-2.16-5.56-3.02-8.08-4.83-4.49-3.22-.17-10.48.81-14.74.82-3.54,1.26-7.15.61-10.75-1.26-6.93-6.14-12.44-10.77-17.57-.94-1.04-2.5.48-1.56,1.51,5.7,6.32,11.11,12.96,10.36,21.85-.34,4.06-1.72,7.98-2.93,11.85-.57,1.83-2.14,4.93-1.46,6.98.41,1.25,1.33,1.59,2.4,2.21,3.61,2.11,7.17,3.01,10.23,6.11,6.4,6.5,7.67,15.71,4.47,23.93-.07.17-.08.33-.07.47-3.78,11.05-10.69,21.07-22.64,24.78-1.35.42-.77,2.49.59,2.07,13-4.04,20.49-14.95,24.46-27.07.05-.16.06-.3.05-.44,2.17-6.07,2.2-12.58-.58-18.52Z"/>
    <path class="cls-12" d="M2629.54,185.23c-.74-1.17-2.66-.1-1.91,1.08,7.2,11.39,2.13,24.58-8.37,32.05-1.14.81-.03,2.67,1.12,1.85,11.49-8.17,17.05-22.49,9.17-34.98Z"/>
    <path class="cls-12" d="M2609.37,114.13c-1.16-.8-2.27,1.05-1.12,1.85,16.74,11.62,4.69,32.76-3.84,45.23-.79,1.15,1.13,2.23,1.91,1.08,9.31-13.62,20.93-35.74,3.04-48.16Z"/>
    <path class="cls-12" d="M2573.37,108.1c-1.84-7.03-12.35-10.55-18.88-11.16-1.42-.13-1.41,2.01,0,2.14,5.47.51,15.19,3.62,16.74,9.59.35,1.34,2.48.77,2.13-.57Z"/>
    <path class="cls-12" d="M2512.2,230.95c-1.6,4.24-4.78,7.57-8.96,9.56-1.28.61-.16,2.46,1.12,1.85,4.7-2.24,8.18-6.09,9.97-10.84.49-1.3-1.65-1.86-2.13-.57Z"/>
    <path class="cls-12" d="M2524.91,105.8c-15.03.28-29.87,6.61-35.74,20.65-3.13,7.49-4.4,15.87-3.91,23.92.22,3.55,1.82,7.47,1.71,10.91-.19,5.94-7.68,7.03-12.06,9.03-6.07,2.78-12.14,6.63-14.88,12.85-3.17,7.21.26,13.98,4.26,20.08-8.17,4.59-12.89,13.07-12.25,22.28.09,1.37,2.31,1.38,2.21,0-.62-8.88,3.99-16.86,12.15-20.98.51-.26.71-1,.4-1.47-5.29-7.89-8.66-16.56-1.08-24.29,4.9-5,11.83-7.16,18.13-9.93,3.4-1.49,5.55-2.98,5.43-6.77-.1-3.56-1.47-7.19-1.75-10.78-.27-3.42-.21-6.88.17-10.29.82-7.23,2.96-14.94,7.53-20.81,4.46-5.74,11.45-8.98,18.5-10.76,13.87-3.5,41.08-1.42,41.56,17.24.03,1.38,2.25,1.38,2.21,0-.4-15.73-19.06-21.14-32.6-20.89Z"/>
    <path class="cls-12" d="M2492.51,204.09c-.45-1.3-2.59-.74-2.13.57,3.6,10.42,2.36,25.21-11.47,27.15-1.4.2-.81,2.26.59,2.07,14.95-2.1,16.97-18.33,13.01-29.79Z"/>
    <path class="cls-15" d="M2555.64,155.22c-.7-4.18.33-7.35,3.69-8.36,3.38-1.01,5.53,2.6,6.23,6.77.7,4.18-.05,7.71-3.69,8.35-3.45.61-5.53-2.6-6.23-6.77Z"/>
    <path class="cls-15" d="M2507.72,166.02c-.65-3.87.38-6.82,3.68-7.78,3.31-.96,5.38,2.36,6.03,6.23.65,3.87-.11,7.15-3.68,7.78-3.37.6-5.38-2.36-6.03-6.23Z"/>
  </g>
  <g>
    <path class="cls-27" d="M3343.57,312.36c1.96,10.04-.33,20.1-2.13,29.99-1.86,10.23-4.84,25.08,3.6,33.38,5.53,5.44,14.75,4.87,21.81,3.92,8.12-1.09,16.03-3.37,23.88-5.66,4.46-1.3,8.93-2.4,13.41-3.33.99-.3,1.98-.6,2.99-.88,8.15-2.24,16.26-2.98,24.35-2.51,5.52-.24,11.08-.25,16.71.03,17.87.88,35.43,4.54,53.29,5.43,6.39.32,13.65.42,20.67-.54,15.45-10.02,22.63-27.5,9.76-46.79-1.83-2.74-1.95-5.44-1.04-7.7-.35.86,2.04-.62,1.99-.59,1.77-1.08-7.6-54.9-10.24-69.89-4.08-23.13,1.66-98.45-24-134.51-8.53-11.99-21.86-21.87-35.8-26.94-42.8-15.56-84.22,18-98.09,56.05-10.53,28.89-20.48,136.03-21.55,169.94.17.13.32.32.37.61Z"/>
    <path class="cls-19" d="M3500.77,375c-18.15-.98-35.99-4.51-54.15-5.42,1.37.34,2.74.67,4.12,1.07,16.31,4.76,31.66,12.27,49.13,9.7,6.24-.92,12.15-2.76,17.39-5.37-5.65.41-11.31.28-16.49,0Z"/>
    <path class="cls-1" d="M3607.24,418.69c-7.06-13-14.64-25.85-19.8-39.77-4.28-11.54-7.49-31.45-15.99-41.66-.84-1.01-42.51-12.36-59.97-.89-13.88,9.12-14.76,29.9-7.87,43.51,5.24,10.36,15.33,16.92,21.82,26.4,6.94,10.13,11.16,21.79,16.79,32.63,6.98,13.41,13.81,39.8,23.7,44.03,11.2,4.8,32.97,2.34,43.89-2.68,1.04-.48,1.32-1.36,1.13-2.19.02-.08.07-.13.08-.22,3.67-25.92,8.29-36.93-3.78-59.17Z"/>
    <path class="cls-1" d="M3585.94,382.43c-5.28-32.5-11.97-61.82-41.86-78.03-14.49-7.85-34.36-9.41-50.12-13.72-8.91-2.44-17.46-5.39-23.93-12.41-.03-.03-.05-.05-.08-.08-4.42-4.82-6.39-11.46-5.83-18.02.26-3.05.59-6,.88-8.71,1.67-15.91,3.87-31.75,6.48-47.53.58-3.5-3.56-5.39-5.58-3.72-15.83-1.08-35.83-4.2-50.77,1.03-2.85,1-2.88,4.5-1.26,6.08.65,15.74,1.19,31.55.28,47.19-.46,8.02-2.39,18.94-8.49,24.07-5.32,4.47-13.65,4.15-21.75,5.75-14.26,2.83-29,2.3-43.36,4.51-26.89,4.14-42.45,18.93-57.26,41-.37.55-.53,1.1-.57,1.61-2.84,3.37-5.34,7.14-4.63,10.74,1.09,5.56,10.04,9.69,14.18,12.05,20.28,11.58,29.46,28.57,38.31,49.73,1.09,2.6,3.86,2.11,5.3.37,27.45,2.83,54.98,4.77,82.56,5.64,25.44.8,51.34,1.78,75.8-6.49,1.2-.41,1.89-1.26,2.18-2.23,13.01-8.65,26.44-15.38,42.25-17.2,13.59-1.56,47.9,2.4,47.24-1.64Z"/>
    <path class="cls-2" d="M3414.17,254.52c-.07,1.17-.22,2.33-.42,3.48,17.84,10.67,40.93,1.46,52.25-15.34,1.52-12.95,3.36-25.86,5.49-38.73.58-3.5-3.56-5.39-5.58-3.72-15.83-1.08-35.83-4.2-50.77,1.03-2.85,1-2.88,4.5-1.26,6.08.65,15.74,1.19,31.55.28,47.19Z"/>
    <path class="cls-1" d="M3541.01,1054.65c-.31-13.98-2.37-28.17-.74-41.96,6.9-58.65,6.84-117.81,4.38-176.71-2.49-59.59-3.99-121.54-18.94-177.88-4.9-18.47-7.27-37.54-11.68-56.15-.68-2.88-4.06-2.94-5.77-1.33-.83-.04-1.68.27-2.42,1.07-15.45,16.86-30.9,33.73-45.95,50.92-13.08,14.93-28.89,30.32-38.15,47.89-9.16,17.4.52,31.09-.25,12.36-.38-9.17,9.65,150.14,31.21,243.39,10.37,44.85,27.84,90.44,27.23,136.82-.03,2.69,24.94,3.71,26.96,3.66,14.59-.36,29.4-5.96,32.56-21.19,1.42-6.86,1.71-13.85,1.55-20.9Z"/>
    <path class="cls-1" d="M3411.24,678.38c-7.84-22.21-3.92-42.34-20.27-60.68-14.1-15.82-35.75-24.91-57.15-19.92-1.08.25-1.8.85-2.2,1.59-1.65-.54-3.74-.09-4.61,1.88-30.72,69.13-30.94,145.54-25.73,219.45,5.63,79.78,15.69,148.08,24.83,227.55.32,2.82,43.51,34.84,45.84,31.18,27.32-42.75,30.9-81.97,36.05-131.08,10.99-104.83,10.41-249.67,3.24-269.98Z"/>
    <path class="cls-1" d="M3370.45,361.74c-16.17-20.84-76.39-46.35-77.07-45.44-15.38,20.51-80.91,109.7-96.21,130.66-6.46,8.72-14.38,17.35-18,27.76-6.61,19.05,20.44,48.11,21.69,47.21,18.09,6.99,50.13,1.38,43.08-22.66-5.93-20.19,2.21-12.94,60.04-76.33,9.11-9.99,18.14-16.21,29.8-22.91,14.37-8.27,26.31-19.65,36.02-33.02,1.38-1.18,2.09-3.43.65-5.27Z"/>
    <path class="cls-2" d="M3343.07,387.82c-3.63-7.6-7.25-15.2-10.88-22.81-.64-1.34-2.63-.17-1.99,1.16,3.63,7.6,7.25,15.2,10.88,22.81.64,1.34,2.63.17,1.99-1.16Z"/>
    <path class="cls-1" d="M3487.26,156.59c-.08-20.93-4.93-42.07-21.88-53.02-16.18-10.45-37.29-8.12-52.16,3.59-18.87,14.85-24.89,38.62-23.82,61.71,1.07,23.16,6.83,51.93,22.12,70.05,8.29,9.82,21.43,13.62,33.76,10.45,10.91-2.8,18.41-5.6,24.44-15.3,6.43-10.35,11.15-26.45,13.52-38.26,2.59-12.9,4.07-26.04,4.02-39.21Z"/>
    <path class="cls-18" d="M3507.45,548.39c-3.21-27.78-3.14-48.86-.3-76.66.06-.6-.02-1.11-.2-1.55,19.03-23.05,16.56-76.79,6.16-90.85-6.18-8.35-164.76-8.17-173.56-.62-5.38,4.61-12.18,44.94-10.83,55.69,1.28,10.21,4.63,19.39,9.3,28,.41,23.79,3.97,47.78-.59,71.02-4.11,20.95-16.55,68.08-19.78,83.71-.61,2.97.92,5.93,3.69,7.16,17.85,7.91,36.77,21.55,48.08,36.54,11.56,15.33,23.08,31.07,31.05,48.63,2.4,5.28,4.09,11.47,9.43,14.61,5.89,3.46,17.5,3.94,23.45.64,7.45-4.13,12.31-16.25,16.73-23.19,5.53-8.7,11.12-17.37,17.35-25.59,14.53-19.16,29.01-32.66,49.32-45.07,7.13-4.35-6.3-56.35-9.31-82.47Z"/>
    <path class="cls-1" d="M3311.05,617.67c-33.05-46.01-44.47-72.21-63.49-111.24-30.25-62.09-49.44-60.59-50.39-59.47-12.23,14.37-24.43,30.18-19.03,50.44,5.05,18.97,89.73,120.21,108.55,134.43,5.83,8.18,25.02-13.23,24.36-14.15Z"/>
    <path class="cls-1" d="M3382.53,1202.61c2.9-24.09,9.62-59.48,10.1-83.73.36-18.13-3.46-36.04-4.14-54.06-.24-6.27.7-12.52,2.71-18.46,5.56-16.4,11.14-36.31,11.68-55.01.08-2.6-10.76,6.55-10.53,9.11-10.59-6.12-21.62-11.54-33.24-16.01-10.82-4.16-23.87-9.92-35.92-8.76-1.18.11-1.7.83-1.74,1.62-.87.16-3.81-3.26-3.72-2.22,1.53,17.64,12.73,70.33,3.57,100.17-8.61,39.2-9.71,90.29-2.61,129.92,8.3,46.38,17.21,92.2,16.6,141.02-.04.02,21.98-5.07,32.37-7.23,2.95-.61,5.17-3.05,5.48-6.04,2.83-26.9,6.62-107.36,9.38-130.34Z"/>
    <path class="cls-2" d="M3496,306.63c-9.91,2.93-19.88,6.51-30.01,8.56-7.16,1.45-14.59,1.51-20.05,6.98-1.05,1.05.58,2.68,1.63,1.63,5.92-5.93,15.58-5.37,23.21-7.38,8.67-2.28,17.23-5.04,25.83-7.58,1.42-.42.82-2.65-.61-2.22Z"/>
    <path class="cls-2" d="M3419.83,318.25c-8.42-4.06-17.02-7.71-25.79-10.96-1.39-.52-2,1.71-.61,2.22,8.58,3.18,16.99,6.75,25.24,10.73,1.33.64,2.5-1.35,1.16-1.99Z"/>
    <path class="cls-1" d="M3549.32,1183.38c1.09-21.71,4.09-43.51,2.32-65.23-1.47-18.08-4.21-36.13-6.84-54.15-.71-4.83-1.04-9.71-1.1-14.6-.14-11.53-3.27-33.47-1.43-55.79.1-1.2-77.01,9.29-76.61,10.51,10.9,32.71,13.81,58.62,12.15,85.78-.86,14.04-3.29,28-2.69,42.08.51,11.82,2.76,23.55,5.74,35.08,6.58,25.47,10.16,50.24,16.1,75.86,6.39,27.56,19.75,84.55,21.13,118.46.09,2.21,37.24,1.93,37.08-.21-3.45-45.94-8.21-130.85-5.85-177.79Z"/>
    <path class="cls-1" d="M3613.32,451.99c-1.8-11.47-8.79-20.8-15.03-30.25-16.6-25.15-59.36-101.73-76.08-125.63-11.69-16.72-26.51-14.17-36.46,2.72-.4.68-.4,1.33-.18,1.89-.02.38.03.77.24,1.19,24.53,47.76,29.38,72.1,44.19,123.65,4,13.93,6.48,24.9,14.07,37.51,7.02,11.65,19.72,23.53,31.82,28.59,8.61,3.6,31.1,2.88,33.83-8.85,2.14-9.21,5.09-21.28,3.6-30.81Z"/>
    <path class="cls-1" d="M3516.9,282.28c-2.38-2.18-4.99-4.09-7.95-5.55-3.94-1.95-8.77-2.45-13.06-3.9-4.73-1.6-7.83-5.12-12.3-7.12-2.89-1.29-6.02-2.32-8.2-4.72-1.79-1.97-2.43-4.44-3.58-6.78-.91-1.84-1.95-3.25-3.17-4.33-2.35-2.06-6.09-.68-6.54,2.41-.47,3.2,1.5,22.55,1.24,26-.64,8.39.78,17.78,6.05,24.78,5.38,7.13,14.43,7.56,22.58,8.75.33.21,38.04-.91,38.05-3.7,0-5.83-7.74-17.57-13.1-25.83Z"/>
    <path class="cls-1" d="M3338.09,690.92c-.15-2.76-1.02-5.45-1.99-8.21-1.12-3.19-2.18-6.44-2.84-9.78-1.73-8.72.58-17.91-1.85-26.45-4.15-14.56-26.49-36.86-32.07-41.31-1.31-1.05-25.6,15.19-24.29,16.23,6.44,5.13,21.12,19.27,21.08,27.16-.02,4.08-4.39,14.72-5.26,18.7-2.52,11.55-6.92,23.36-6.35,35.53.58,12.46,6.42,24.02,9.89,35.71.29.96,3.25,4.45,3.92,8.15.45,2.49,4.16,2.45,4.64,0,1.24-6.29,1.21-7.94.79-14.04.21.67,3.42,3.77,3.62,4.44,1.03,3.3,5.27-3.52,5.11-6.48-.61-11.16-5.28-21.05-3.26-32.06,1.6-8.71,5.32-16.93,8.39-25.12.54-1.44,3.58-4.01,6.55,5.48.95,3.04,1.59,6.17,2.68,9.16,1.03,2.82,2.33,5.52,4.13,7.85.84,1.09,2.1,2.61,3.37,3.09,2.14.82,2.39-.71,3.05-2.7.61-1.84.79-3.6.7-5.34Z"/>
    <path class="cls-27" d="M3475.82,146.33c-3.21-2.71-9.26-3.59-12.76-4.17-5.73-.95-12.34-.21-15.3,5.49-2.32,4.46,2.52,7.35,6.36,7.23,3.27-.1,6.54-.13,9.8-.1,3.2.03,7.11.83,10.24.3,2.92-.49,4.56-4.17,3.27-6.76-.37-.75-.93-1.41-1.61-1.98Z"/>
    <path class="cls-27" d="M3423.72,146.53c-5.03-4.78-11.85-4.43-18.04-2.32-5.43,1.85-13.43,5.01-14.53,11.25-.64,3.61,3.29,6.05,6.41,4.83,6.38-2.5,12.45-4.29,19.37-3.89,4.77.28,11.53-5.37,6.79-9.87Z"/>
    <path class="cls-1" d="M3333.6,1403.82c7.43-3.21,14.95-3.55,23.03-4.68,6.43-.9,8.63.22,14.77-2.75,3.99-1.93,5.02-6.21,4.43-10.43-1.71-12.18-4.44-20.77-4.37-23.75.43-17.77,3.13-43.59,4.54-66.31.18-2.98-28.51,10.5-41.94,10.8,0,0,2.58,37.08.36,50.39-.74,4.43-3.49,8.38-7.55,10.92-18.69,11.67-43.82,20.71-61.5,34.09-10.99,8.32,8.96,12.62,12.68,12.69,12.38.25,32.41-3.27,44.26-6.72,3.85-1.12,7.58-2.65,11.29-4.26Z"/>
    <path class="cls-1" d="M3598.74,1407.48c-1.35-4.14-6.93-9.74-8.5-10.63-5.12-2.92-10.61-5.24-15.75-8.17-3.75-2.14-14.32-18.43-17.4-22.63-1.06-1.44-1.74-3.12-1.92-4.88l-3.45-53.15c-.32-2.33-38.28,1.7-36.49,4.71,2.36,16.34,2.31,38.47,2.86,48.56.33,6-2.38,12.17-3.55,18-1.38,6.84-2.57,13.77-2.39,20.77.07,2.71,2.36,3.11,4.31,4.14,3.15,1.66,3.51,2.78,5.85,5.54,1.99,2.36,5.13,2.04,7.88,2.79,17.65,4.8,55.68,2.47,66.72-.79,2.17-.64,2.48-2.28,1.83-4.25Z"/>
    <path class="cls-27" d="M3503.27,136.54c-2.15-12.62-11.77-21.66-21.06-29.79-10.89-9.53-23.12-16.77-37.61-18.82-1.59-.22-2.91.29-3.9,1.15-1.17.18-2.24.77-2.88,1.77-.25.38-.59.69-1.04.77-33.51,6.05-63.66,41.74-64.96,74.77-.16,4.16.14,8.37.84,12.48.73,4.36,3.48,9.61,3.47,13.93-.02,3.79.84,1.25-2.55,4.99-1.04,1.15-2.29,2.14-3.29,3.35-2.58,3.08-4.4,6.65-5.88,10.36-6.46,16.27-4.8,34.44,2.01,50.22.14.32.19.67.14,1.01-.22,1.61-.46,3.21-.64,4.83-.63,5.9,8.6,5.85,9.23,0,0-.08.02-.16.03-.24,1.48-1.21,2.35-3.23,1.47-5.4-.11-.95-.22-1.87-.34-2.82,3.11-19.57,8.08-14.81,17.84-32.24,6.63-11.85-2.72-29.61-1.54-42.28,1.46-15.63,13.61-25.86,22.03-38.76,7.04-10.78,15.48-20.26,25.61-27.81.96-.72,2.33-.29,2.78.82,5.38,13.45,14.08,25.34,24.93,35.25.37.34.59.82.58,1.33-.22,33.4,3.95,68.97,26.16,93.53.11.13.24.21.36.32.07.07.14.13.22.2.15.12.29.23.44.32.08.05.17.1.26.15.18.1.36.18.55.25.1.04.21.06.32.09.12.03.24.07.36.09,2.57.54,5.74-.9,5.95-4.32,2.15-35.75,6.19-73.94.14-109.5Z"/>
    <path class="cls-2" d="M3435.95,198.5c-7.99-6.7-5.02-18.56-4.1-27.58.15-1.48-2.16-1.46-2.31,0-1,9.76-3.82,22,4.77,29.21,1.13.95,2.77-.68,1.63-1.63Z"/>
    <path class="cls-2" d="M3447.66,193.08c-1.98-.98-4.09-1.48-6.3-1.43-1.48.03-1.49,2.34,0,2.31,1.8-.04,3.52.32,5.14,1.12,1.33.66,2.5-1.33,1.16-1.99Z"/>
    <path class="cls-2" d="M3454.35,212.75c-1.23.34-2.39.85-3.49,1.57-.92.23-1.84.45-2.76.64-.06-.04-.1-.09-.17-.13-3.22-1.46-6.73-2.41-10.29-2.35-3.8.06-7.78,1.51-11.5,2.41-.86.21-1.74.41-2.61.3-.89-.12-1.98-.5-2.56.19-.5.6-.07,1.6.63,1.94,1.42.7,4.35.67,5.93.85,2.72.31,5.47.46,8.21.44,5.51-.05,11.01-.81,16.33-2.21.32-.09.53-.27.66-.49.71-.39,1.43-.72,2.23-.94,1.43-.4.82-2.62-.61-2.22Z"/>
    <path class="cls-2" d="M3439.09,224.28c-2.04.72-4.16,1-6.31.71-1.45-.2-2.08,2.02-.61,2.22,2.58.35,5.08.16,7.54-.71,1.39-.49.79-2.72-.61-2.22Z"/>
    <path class="cls-2" d="M3338.16,687.24c-1.26-5.22-5.18-11.6-4.08-17.08.03-.16.02-.31,0-.45,1.81-16.17-3.2-32.05-14.13-44.26-.99-1.11-2.62.53-1.63,1.63,10.8,12.07,15.66,28.16,13.27,44.19-.03.21,0,.4.06.57,0,2.73.91,5.29,1.8,8.01,1.81,5.54,3.71,10.83,3.08,16.61-.15,1.4-1.63,2.27-2.89,1.65-6.98-3.45-5.6-28.85-13.81-26.76-.39-.2-.87-.19-1.27.22-2.98,3.11-4.06,7.18-5.49,11.16-2.03,5.65-4.48,11.35-5.33,17.33-.65,4.54-.18,9.13.66,13.61,1.37,7.31,5.21,15.8.55,22.59-.23-.04-.47-.03-.73.1-.14.07-1.39-1.65-1.53-1.88-.46-.77-.76-1.58-.96-2.45-.22-.98-1.31-1-1.89-.47-.46.1-.85.44-.81,1.06.23,3.74,1.29,12.95-3.26,14.42-1.41.46-.8,2.68.61,2.22,4.69-1.52,5.29-7.4,5.18-12.35.82,1.04,1.82,1.81,2.93,1.69.4.46,1.07.63,1.55.02,6.39-8.05,1.9-17.58.37-26.56-1.16-6.82-.53-13.18,1.66-19.73,1.92-5.72,3.57-13.82,7.6-18.53.06-.02.11-.02.17-.05,2.88-1.45,7.42,18.66,8.39,20.79,1.76,3.86,4.76,7.51,9.31,5.89.54-.19.77-.64.78-1.1.01-.04.04-.07.05-.11.89-4.07.72-7.94-.25-11.98Z"/>
    <path class="cls-2" d="M3303.39,727.42c-1.98-7.54-4.58-15.4-5.3-23.17-.74-7.99,1.69-16.64,3.46-24.43.33-1.45-1.9-2.06-2.22-.61-1.74,7.7-4.13,16.19-3.67,24.14.48,8.25,3.42,16.73,5.51,24.69.38,1.43,2.6.83,2.22-.61Z"/>
    <path class="cls-2" d="M3522.26,391.6c-7.61-27.25-17.54-53.76-29.7-79.31.39-.65.09-1.76-.93-1.85-5.68-.49-12.43-.19-17.36-3.46-5.76-3.81-7.81-10.92-8.43-17.4-1.13-11.79-.59-23.65-1.95-35.47-.17-1.46-2.48-1.47-2.31,0,.96,8.33,1.53,16.68,1.64,25.06.09,6.71-.13,13.68,2.37,20.04,4.46,11.34,14.16,12.51,24.83,13.43-.04.22-.04.46.08.71,12.09,25.41,21.95,51.76,29.51,78.86.4,1.43,2.62.82,2.22-.61Z"/>
    <path class="cls-2" d="M3601.92,437.63c-6.23-18.52-16.02-34.71-28.26-49.85-6.87-8.5-13.57-16.95-19.25-26.31-4.95-8.15-9.61-16.47-14.14-24.86-4.22-7.81-9.68-15.9-12.63-24.29-.88-2.49-.59-4.64-1.09-7.1-.3-1.45-2.52-.84-2.22.61.43,2.13,0,4.21.69,6.3.8,2.42,2.37,4.8,3.52,7.07,11.35,22.48,23.46,45.41,39.46,65.22,13.46,16.65,24.83,33.35,31.71,53.81.47,1.4,2.7.8,2.22-.61Z"/>
    <path class="cls-2" d="M3481,276.03c-1.88-4.53-3.77-9.06-5.65-13.6-.56-1.35-2.79-.76-2.22.61,1.88,4.53,3.77,9.07,5.65,13.6.56,1.35,2.79.76,2.22-.61Z"/>
    <path class="cls-2" d="M3496.96,278.1c-2.77-2.81-5.63-5.52-8.59-8.14-1.11-.98-2.74.64-1.63,1.63,2.95,2.62,5.81,5.33,8.59,8.14,1.04,1.06,2.68-.57,1.63-1.63Z"/>
    <path class="cls-2" d="M3508.88,280.13c-1.09-1.71-2.4-3.22-3.98-4.5-1.14-.93-2.78.69-1.63,1.63,1.42,1.16,2.63,2.48,3.61,4.03.79,1.25,2.79.09,1.99-1.16Z"/>
    <path class="cls-2" d="M3347.98,1086.48c-4.79-10.84-10.24-21.63-14.19-32.81-3.93-11.13-4.34-22.91-4.64-34.59-.04-1.48-2.35-1.49-2.31,0,.31,11.88.73,23.89,4.73,35.21,4.02,11.38,9.55,22.33,14.43,33.36.6,1.35,2.59.18,1.99-1.16Z"/>
    <path class="cls-2" d="M3366.83,1044.35c-3.59,6.74-5.4,14-5.37,21.64,0,1.48,2.31,1.49,2.31,0-.02-7.26,1.65-14.07,5.06-20.48.7-1.31-1.29-2.48-1.99-1.16Z"/>
    <path class="cls-2" d="M3538.11,1039.9c-1.74,14.55-4.09,29-7.03,43.36-.3,1.45,1.93,2.07,2.22.61,2.99-14.56,5.35-29.22,7.11-43.97.18-1.47-2.13-1.46-2.31,0Z"/>
    <path class="cls-2" d="M3508.33,1059.56c-1.96-7.75-5.02-15.04-9.2-21.85-.77-1.26-2.77-.11-1.99,1.16,4.08,6.66,7.06,13.73,8.97,21.3.36,1.44,2.59.83,2.22-.61Z"/>
    <path class="cls-2" d="M3318.68,1394.4c-6.93,3.73-12.61,8.99-16.71,15.45-.76,1.2,1.23,2.3,1.99,1.1,3.9-6.16,9.27-11.11,15.88-14.67,1.29-.69.13-2.57-1.16-1.88Z"/>
    <path class="cls-2" d="M3295.86,1399.32c-4.49,3.35-8.35,7.29-11.58,11.74-.84,1.16,1.16,2.25,1.99,1.1,3.13-4.3,6.89-8.06,11.22-11.3,1.16-.87-.48-2.4-1.63-1.54Z"/>
    <path class="cls-2" d="M3284.9,1399.71c-5.61,1.97-10.24,5.4-13.59,10.08-.83,1.16,1.16,2.25,1.99,1.1,2.99-4.18,7.2-7.32,12.21-9.08,1.38-.48.78-2.59-.61-2.1Z"/>
    <path class="cls-2" d="M3544.68,1399.17c-1.13-.95-2.77.67-1.63,1.63,3.94,3.32,6.41,7.7,7.25,12.78.24,1.46,2.46.84,2.22-.61-.9-5.43-3.64-10.25-7.85-13.8Z"/>
    <path class="cls-2" d="M3572.66,1412.39c-2.07-5.16-5.37-9.42-9.85-12.71-1.2-.88-2.35,1.12-1.16,1.99,3.94,2.9,6.96,6.79,8.79,11.33.55,1.36,2.78.77,2.22-.61Z"/>
    <path class="cls-2" d="M3589.77,1411c-2.66-4.3-5.98-8.07-9.94-11.22-1.15-.91-2.79.71-1.63,1.63,3.81,3.03,7.02,6.61,9.58,10.75.78,1.26,2.77.1,1.99-1.16Z"/>
    <path class="cls-17" d="M3389.36,219.21c0-7.57,1.39-15.04,2.77-22.45.24-1.31-1.77-1.88-2.01-.56-1.23,6.62-2.48,13.28-2.79,20.02-.32,7.14.86,14.15,1.43,21.24,1.14,14.06-1.03,28.43-2.18,42.44-.11,1.34,1.98,1.33,2.09,0,1.09-13.34,3.13-27.01,2.33-40.41-.41-6.78-1.64-13.48-1.64-20.29Z"/>
    <path class="cls-17" d="M3497.66,183.81c.91-11.57,2.23-23.29-.61-34.71-2.81-11.32-8.92-21.47-14.88-31.37-.69-1.15-2.5-.1-1.8,1.05,5.87,9.74,11.92,19.72,14.67,30.87,2.94,11.89,1.26,24.07.38,36.1-1.76,24.27,5.27,48.82.15,72.85-.28,1.31,1.73,1.87,2.01.56,5.29-24.82-1.89-50.26.08-75.35Z"/>
    <path class="cls-17" d="M3486.19,244.16c-2.21-6.83-3.78-13.77-4.74-20.89-.18-1.33-2.19-.76-2.01.56.96,7.11,2.53,14.06,4.74,20.89.41,1.27,2.43.73,2.01-.56Z"/>
    <path class="cls-17" d="M3388.82,123.98c-9.88,11.8-16.06,26.23-17.26,41.61-.7,9.02.25,18.1.89,27.1.73,10.29,1.45,20.57,2.18,30.86.09,1.33,2.18,1.34,2.09,0-1.22-17.31-3.46-34.89-3.3-52.25.16-16.87,6.04-32.9,16.88-45.84.86-1.02-.61-2.51-1.48-1.48Z"/>
    <path class="cls-6" d="M3454.54,172.74c-.2-5.04,1.33-8.63,5.1-9.3,3.78-.67,5.62,3.91,5.82,8.95.2,5.04-1.08,9.09-5.1,9.3-3.8.19-5.62-3.91-5.82-8.95Z"/>
    <path class="cls-6" d="M3408.22,174.3c-.2-5.04,1.33-8.63,5.1-9.3,3.78-.67,5.62,3.91,5.82,8.95s-1.08,9.09-5.1,9.3c-3.8.19-5.62-3.91-5.82-8.95Z"/>
  </g>
  <g>
    <path class="cls-24" d="M4529.64,290.79c-3.34-2.35-14.65-7.18-14.9-11.99-.04-.86.27-1.69.59-2.49,3.42-8.68,8.83-17.9,8.59-27.38-.49-19.56-15.5-34.3-31.67-43.12-10.16-5.54-21.56-8.35-31.7-13.78-14.46-7.74-10.83-21.67-13.46-35.25-6.83-35.42-36.48-58.61-70.34-64.54-4-.7-7.54-2.87-9.93-6.15-5.86-8.03-23.43-21.15-64.37-7.93-22.04,7.12-34.81,21.69-45.89,40.83-.39.68-.75,1.39-1.04,2.12-2.38,6.17-2.96,12.62-7.79,17.2-4.86,4.6-10.82,6.56-16.54,9.96-10.13,6.02-19.27,13.82-26.25,23.35-10.11,13.8-14.57,30.74-12.15,47.13,1.08,7.28-3.53,14.2-10.57,16.34-11.04,3.36-21.67,7.96-30.3,15.78-11.95,10.83-17.45,27.28-15.44,43.19.91,7.24,3.34,14.22,7.33,20.35,3.78,5.8,9.96,10.66,6.26,19.07-2.69,6.1-10.22,9.17-15.78,11.93-14.66,7.29-24.03,18.63-22.67,35.8,3.07,38.59,49.97,43.94,78.75,33.38,9.68-3.55,18.54-9.06,28.26-12.47,14.23-5,25.36-1.32,34.72,9.87,11.58,13.84,20.55,26.54,39.46,30.24,16.55,3.24,33.37-.59,48.36-7.76,21.48-10.29,38.57-29.68,60.79-38.07,24.19-9.13,38.53,13.65,59.14,21,14.88,5.31,32.31,4.08,42.98-8.67,3.91-4.67,6.73-10.54,7.08-16.7.62-10.86-12.55-23.12-1.64-32.81,2.19-1.94,6.87-2.94,9.46-4.33,3.89-2.09,7.63-4.48,11.05-7.28,5.71-4.67,10.57-10.36,13.25-17.31,3.79-9.85,2.06-20.44-3.48-29.26-2.89-4.6-6.36-7.6-10.13-10.25Z"/>
    <path class="cls-5" d="M4519.01,743.19c-3.92-25.42-3.49-50.62-4.64-76.29-1.02-22.73-.24-45.86-2.75-68.48-2.23-20.03-11.05-39.77-12.59-59.77-.08-3.51-.19-7.03-.3-10.54,0-.41,0-.81.02-1.22.01-.31-.02-.58-.07-.84-.91-28.81,3.5-69.28.91-98-2.85-31.7-12.21-73.38-29.28-98.35-1.59-2.32,3.22,12.36,1.66,13.78-17.79-3.37-39.99-6.59-51.3,10.72-12.39,18.97-8.44,49.06-5.72,70.07,3.77,29.19,12.99,57.22,23.21,84.71,4.66,12.54,5.14,25.46,7.39,38.6-.88,33.85,2.44,67.52,9.46,100.7,7.96,37.63,40.33,113.36,48.38,138.71,1.66,5.23,11.33-22.54,15.88-26.99,3.97-3.88.41-12.42-.26-16.79Z"/>
    <path class="cls-5" d="M4234.95,290.73c-12.42,1.49-37.96,21.07-47.65,31.47-12.89,13.84-28.11,24.43-42.33,36.69-8.51,7.34-16.57,15.18-24.25,23.38-19.49,20.79-36.73,43.65-52.91,67.07-9.16,13.26-13.89,38.91,8.23,42.79,11.88,2.09,59.3,10.83,52.67.76-17.25-26.17,36.95-43.42,63.73-59.99,30.4-18.81,56.33-33.55,67.14-62.53,8.27-22.15-15.2-80.79-24.65-79.65Z"/>
    <path class="cls-5" d="M4485.35,411.44l-.76-7.33c-.55-17.7-1.77-35.63-5.14-52.91-3.14-16.13-11.88-28.37-26.3-36.35-11.98-6.63-25.08-9.23-38.35-11.92-11.66-2.36-29.31-2.66-39.12-9.49-11.65-8.12-8.47-25.9-7-37.91,1.39-11.3,2.9-22.58,4.51-33.84,1.46-2.47.25-6.74-3.61-7.08-15.23-1.34-30.45-1.83-45.71-1.54-3.16.06-6.23-.64-9.27-1.48-2.44-.68-5.25.41-5.3,3.29-1.13,1.37-1.37,3.39-.69,4.96.81,1.89,1.6,3.8,1.81,5.85,2.17,21.2,11.61,60.27-18.12,66.98-4.74,1.07-9.82,1.34-15.13.84-14.08-1.33-28.03-6.08-42.22-2.77-12.99,3.03-22.99,12.3-31.82,21.8-11.26,12.13-21.49,25.18-30.99,38.73-1.7,2.43-.42,4.77,1.64,5.81.39,1.15,1.32,2.1,2.95,2.41,15.68,2.97,31.72,1.39,47.43,4.28,9.76,1.79,19.04,4.87,27.73,9.26,3.49,1.76,11.45,3.83,9.25,7.07-12.77,18.89-16.5,39.52-12.8,36.14,29.64-27.12,51.58,6.91,89.05,21.14,16.58,6.29,65.32-4.22,82.7-10.19,15.67-5.38,30.22-12.16,46.25-12.12,4.22.01,8.14,1.72,11.79,3.85,2.61,1.53,6.81.34,6.74-3.59,0-.21-.01-.43-.01-.64.53-.99.72-2.17.5-3.25Z"/>
    <path class="cls-22" d="M4310.42,225.68c1.19,11.64,4.56,28.64,2.45,42.73,10.24,4.89,23.31,3.63,34.11.57,6.93-1.96,14.38-4.88,19.52-10.13.74-.75,1.41-1.55,2.06-2.36.04-.32.08-.66.12-.97,1.39-11.3,2.9-22.57,4.51-33.84,1.46-2.47.25-6.74-3.61-7.08-15.23-1.34-30.45-1.83-45.71-1.54-3.16.06-6.23-.64-9.27-1.48-2.44-.68-5.25.41-5.3,3.29-1.13,1.37-1.37,3.39-.69,4.96.81,1.89,1.6,3.8,1.81,5.85Z"/>
    <path class="cls-5" d="M4421.88,1103.48c1.78-9.35,1.33-20.14,2.41-27.26,3.3-21.83,7.72-43.47,11.48-65.23,10-57.89,24.25-157.77,29.54-216.31,6.37-70.51,4.88-103.5-11.5-172.68-.89-3.76-6.23-2.63-6.43.72-31.72,22.64-61.13,49.43-84.94,80.38-12.05,15.66-13.45,31.53-14.94,50.69-1.78,22.92-3.01,45.88-3.68,68.86-1.31,44.52-.56,89.1,2.27,133.55,1.46,22.94,3.46,45.85,6.02,68.7,2.19,19.61,3.29,40.69,8.89,59.68,4.75,16.14,15.92,29.86,32.58,34.5,6.8,1.89,12.11,4.67,18.55,1.08,5.7-3.18,8.38-9.51,9.75-16.69Z"/>
    <path class="cls-5" d="M4264.2,1340.98c13.58.25,27.22.19,40.58-1.52-.44-51.53.8-103.14,9.46-154.05,4.13-24.25,9.05-48.69,5.81-73.37-3.29-25.05-9.67-47.94-7.09-73.53.31-3.12-3.22-3.91-5.24-2.41-8.15-3.14-16.29-6.28-24.44-9.41-6.29-2.42-14.97-7.54-21.77-8.01-10.38-.71-11.96,10.56-13.27,18.55-5.63,34.48-7.4,69.98-10.85,104.74-3.42,34.48-.03,66.15,6.61,100.01,6.48,33.05,13.33,66.02,20.19,99Z"/>
    <path class="cls-5" d="M4291.78,1403.22c1.38-1.57,2.84-2.88,5.2-4.08,3.52-1.79,7.52-2.86,10.1-6.06,2.81-3.47,2.78-9.36,2.84-13.55.09-6.84-.72-13.71-1.64-20.48-.95-6.98-3.36-14.48-3.51-21.49,0-.07-3.08.07-3.08,0-13.05,1.29-21.9-5.01-35.14-5.18.05.18-4.74-2.01-4.55-2,.14,0,1.61,8.82,2.5,13.76.39,2.17.16,4.39-.69,6.43-3.96,9.55-10.07,21.66-22.13,32.26-3.19,2.81-15.11,13.05-18.37,16.46-2.97,3.09-15.01,3.27-11.01,11.77,1.26,2.67,8.52,2.47,10.81,2.64,7.41.54,14.57,1.17,21.99.98,8.18-.21,16.35-.61,24.51-1.17,7.02-.48,14.72-1.11,19.53-7.04.97-1.2,1.79-2.27,2.65-3.24Z"/>
    <path class="cls-5" d="M4428.02,1340.7c-13.54,1-27.17,1.71-40.61.74-2.42-51.47-6.53-102.94-18.01-153.29-5.47-23.98-12.07-38.95-10.21-63.77,1.89-25.19,2.67-37.1-.68-49.64-.81-3.03,7-37.41,9.1-36.03,7.96-3.59,15.92-7.17,23.88-10.76,6.14-2.77,14.52-8.36,21.29-9.21,10.33-1.29,19.56,9.41,18.44,17.43-3.4,24.5,7.11,69.81,12.49,104.33,5.33,34.23,3.71,66.05-1.04,100.23-4.63,33.36-9.64,66.66-14.66,99.97Z"/>
    <path class="cls-5" d="M4472.68,1415.2c-1.05-4.08-3.49-7.19-6.45-9.92-5.39-4.98-12.53-8.68-16.22-14.7-6.68-10.92-16.39-23.58-21.17-35.96-.89-2.31-1.21-4.89-.96-7.43.61-6.09,1.61-17.18,1.74-17.2.19-.02-4.47,2.99-4.43,2.77-13.21,1.11-21.7,9.43-34.8,8.75,0,.09-3.08.12-3.08.21-3.35,33.86-4.48,40.41-6.66,53.12-1.03,6.05,2.26,12.05,7.26,12.76,5.19.73,8.58,4.27,12.63,6.41,3.1,1.64,4.48,4.15,6.85,6.94.06.07.12.14.19.22,1.51,1.73,3.51,2.71,5.58,2.73.79,0,1.58.03,2.37.08,11.16.69,26.25.51,37.37-.02,6.38-.29,23.08,4.09,19.77-8.76Z"/>
    <path class="cls-22" d="M4393.65,309.37c-14.6,1.17-28.76,4.64-42.25,10.36-1.29.55-.58,2.63.72,2.07,13.32-5.65,27.27-9.08,41.7-10.24,1.41-.11,1.25-2.3-.17-2.19Z"/>
    <path class="cls-22" d="M4324.45,319.53c-14.54-4.56-29.38-7.87-44.48-9.9-1.4-.19-1.61,2-.21,2.19,14.91,2.01,29.57,5.26,43.93,9.77,1.35.42,2.12-1.63.77-2.06Z"/>
    <path class="cls-5" d="M4279.07,181.08c-5.21,2.41-7.07,6.05-6.68,11.84.64,9.42,6.46,21.75,16.54,24.05,7.21,1.64,10.16-5.53,10.4-11.41.38-9.36-7.13-30.43-20.26-24.47Z"/>
    <path class="cls-5" d="M4314.06,1004.49c.19-7.58.68-15.15,1.85-22.67,4.21-27.02,9.78-53.7,12.94-80.94,6.82-58.75,8.5-118.09,4.96-177.12,2.31.05,4.64-2.21,3.09-4.72-13.51-21.84-29.58-41.95-48.23-59.63-16.94-16.05-36.97-33.58-59.19-41.81-1.06-1.24-3.2-1.62-4.67-.6-.91.53-1.49,1.55-1.61,2.62-25.01,64.92-20.91,135.55-13.9,203.47,7.02,68.02,17.87,135.59,32.25,202.43,3.9,18.11,3.32,38.03,1.19,56.31-1.33,11.46,11.45,27.82,19.13,36.63,5.44,6.23,15.6,14.61,24.56,13.58,10.39-1.19,8.86-14.25,10.59-22.04,3.39-15.28,10.73-29.38,13.9-44.62,4.18-20.08,2.64-40.55,3.16-60.88Z"/>
    <path class="cls-5" d="M4367.2,107.81c-12.55-7.82-27.78-8.62-43.55-4.46-13.25,3.49-25.54,11.05-32.58,23.08-16.01,27.35-10.16,60.4,1.65,88.57,10.27,24.52,32.94,47.4,60.87,37.66,28.92-10.09,37-43.82,40.07-70.78,1.61-14.1,1.18-28.71-3.26-42.29-2.14-6.56-5.22-12.8-9.24-18.41-4.1-5.73-8.81-10.14-13.97-13.35Z"/>
    <path class="cls-13" d="M4457.27,649.8c8.34-9.89-2.92-57.53-11.8-85.79-4.8-15.26-11.25-79.09-5.42-90.02,2.99-5.59,9.38-15.35,11.73-27.58,2.2-11.46.24-23.25-3-34.26-7.01-23.78-13.37-42.54-21.75-65.68-5.41-14.96-21.31-47.97-29.8-49.65-1.02-.2-22.65-9.27-23.33-8.76-1.33.63-2.93,2.35-1.81,3.98,36.5,53.18,44.84,88.81,33.92,94.43-43.62,22.46-139.71,7.86-138.5-8.88,2.51-34.86,39.95-92.89,39.39-93.63-.62-1.84-26.45,9.56-26.63,10.34-24.76,31.29-39.79,66.88-53.04,105.34-6.14,17.83-10.69,39.97-4.14,58.43,2.37,6.69,6.2,12.17,10.86,16.84,4.58,4.59,3.64,49.39-.51,60.95-10.1,28.15-20.07,73.64-20.03,99.87,0,2.07,4.1,2.47,5.92,3.2,10.83,4.32,42.89,17.57,73.48,69.09,10.64,17.93,15.71,25.86,29.02,41.58,9.87,11.65,37.95,10.54,45.58,1.16,20.53-25.24,42.54-57.19,67.8-77.41,1.91-1.53,23.88-22.65,22.07-23.55Z"/>
    <path class="cls-22" d="M4378.3,1096.56c-6.38-12.75-10.29-26.35-11.64-40.55-.13-1.4-2.33-1.41-2.2,0,1.38,14.59,5.38,28.56,11.94,41.66.63,1.26,2.53.15,1.9-1.11Z"/>
    <path class="cls-22" d="M4396.54,1074.59c.26-1.38-1.86-1.97-2.12-.58-1.65,8.84-2.3,17.71-1.89,26.7.06,1.41,2.26,1.42,2.2,0-.4-8.79.19-17.46,1.81-26.12Z"/>
    <path class="cls-22" d="M4306.28,1062.41c-5.86,14.49-10.67,29.34-14.41,44.51-.34,1.37,1.78,1.96,2.12.58,3.74-15.18,8.55-30.02,14.41-44.51.53-1.31-1.59-1.88-2.12-.58Z"/>
    <path class="cls-22" d="M4274.76,1085.91l-7.2-28.77c-.34-1.37-2.46-.79-2.12.58,2.4,9.59,4.8,19.18,7.2,28.77.34,1.37,2.46.79,2.12-.58Z"/>
    <path class="cls-22" d="M4274.93,1389.87c-5.29,6.43-9.07,13.68-11.27,21.71-.37,1.37,1.74,1.95,2.12.58,2.1-7.67,5.65-14.6,10.7-20.74.89-1.08-.66-2.65-1.55-1.55Z"/>
    <path class="cls-22" d="M4258.1,1392.07c-5.59,4.6-9.95,10.32-12.9,16.93-.57,1.28,1.32,2.4,1.9,1.11,2.88-6.46,7.09-12,12.55-16.49,1.09-.9-.47-2.44-1.55-1.55Z"/>
    <path class="cls-22" d="M4240.6,1395.31c-5.08,3.09-9.04,7.54-11.45,12.98-.57,1.28,1.32,2.4,1.9,1.11,2.27-5.11,5.88-9.28,10.66-12.19,1.21-.73.1-2.63-1.11-1.9Z"/>
    <path class="cls-22" d="M4432.23,1421.38c-1.78-6.65-4.24-12.9-7.4-18.74-.78-1.44-2.68-.09-1.9,1.36,3.06,5.65,5.45,11.64,7.18,18.09.44,1.64,2.56.94,2.12-.72Z"/>
    <path class="cls-22" d="M4451.44,1417.73c-1.93-6.3-5.2-11.52-9.68-15.4-1.16-1-2.25,1.33-1.11,2.33,3.97,3.45,6.96,8.2,8.67,13.79.49,1.61,2.62.91,2.12-.72Z"/>
    <path class="cls-23" d="M4305.4,169.31c-.2-5.04,1.33-8.63,5.1-9.3,3.78-.67,5.62,3.91,5.82,8.95.2,5.04-1.08,9.09-5.1,9.3-3.8.19-5.62-3.91-5.82-8.95Z"/>
    <path class="cls-23" d="M4359.28,164.7c-.2-5.04,1.33-8.63,5.1-9.3,3.78-.67,5.62,3.91,5.82,8.95.2,5.04-1.08,9.09-5.1,9.3-3.8.19-5.62-3.91-5.82-8.95Z"/>
    <path class="cls-24" d="M4377.81,136.02c-6.36-5.52-23.13-9.83-25.59,2.1-1.76,8.55,14.86,8.38,19.66,8.47,2.82.05,6.92.27,8.53-2.62,1.53-2.76-.5-6.13-2.6-7.95Z"/>
    <path class="cls-24" d="M4318.85,138.2c-3.52-3.75-10.26-2.87-14.45-1.04-4.77,2.08-9.77,5.86-12.22,10.53-3.88,7.39,7.81,7.42,11.67,6.3,4.92-1.42,22.56-7.73,15-15.79Z"/>
    <path class="cls-22" d="M4465.47,1418.21c-1.78-5.12-4.53-9.54-8.09-13-1.1-1.07-2.66.83-1.55,1.91,3.43,3.34,6.03,7.52,7.75,12.46.55,1.59,2.45.22,1.9-1.36Z"/>
    <path class="cls-24" d="M4454.05,222.84c-3.66-6.89-10.13-10.63-15.19-16.28-8.42-9.4-2.75-20.16-2.59-31.12.1-7.11-1.7-14.3-5.23-20.49-4.56-7.98-13.18-13.05-16.06-21.97-.26-.8-.82-1.26-1.45-1.43-1.27-.35-2.37-1.11-2.84-2.34-.84-2.22-1.75-4.42-2.72-6.6-5.76-12.91-22.6-12.44-34.18-20.46-10.91-7.56-15.96-27.05-29.5-28.53-26.24-2.87-57.77,16.16-72.9,36.59-12.83,17.32-13.98,37.59-15.13,58.05-.06,1.07-.57,2.1-1.44,2.73-11.47,8.37-28.1,9.1-37.02,21.21-3.93,5.33-4.73,11.31-4.23,17.8.37,4.87,2.88,10.86,1.66,15.53-1.71,6.53-5.28,6.79-9.82,10.03-9.47,6.75-15.87,18.63-11.64,30.26,2.1,5.77,6.24,9.56,11.25,12,1.01.49,1.72,1.44,1.93,2.55.13.69.6,1.3,1.5,1.53,3.53.91,6.9.74,10.06-.19.42-.12.87-.17,1.31-.14,1.4.12,2.79.2,4.15.23,1.45.03,2.14-1.09,2.11-2.21-.04-1.05.55-2.03,1.37-2.67,3.89-3.01,7.3-6.87,10.12-10.64,4.11-5.49,6.35-11.59,9.65-17.5,3.75-6.73,7.58-9.28,15.6-9.5,2.44-.07,4.5.83,7,.47,17.16-2.5,18.2-26.35,17.09-47.42-.06-1.09.38-2.11,1.17-2.86.74-.71,1.47-1.45,2.17-2.22,3.78-4.17,6.75-9.11,8.7-14.39,1.16-3.14,1.22-6.71,2.37-9.75,4.46-11.85,7.6-10.28,15.81-12.98,18.71-6.15,27.22-21.35,36.88-36.33,1.72-2.67,5.79-2.04,6.62,1.02,2.03,7.42,5.84,16.59,7.26,18.75,5.12,7.75,13.96,12.27,18.53,20.59.86,1.57,1.62,3.2,2.3,4.86.18.43.27.9.29,1.37.16,7.43-1.81,14.76-6.13,21.35-5.39,8.21-12.89,13.87-16.08,23.5-3.73,11.26-2.17,26.35,8.11,32.77,1.46.91,2.13,2.64,1.64,4.29-2.22,7.61.66,15.83,7.47,20.84,9,6.63,19.95,5.74,30.23,2.84,1.03-.29,2.15-.16,3.03.45.19.13.43.24.7.31,25.65,6.45,49.12-19.29,36.07-43.89Z"/>
    <path class="cls-5" d="M4146.87,528.86c-8.41-14.19-14.47-29.52-22.32-44-7.47-13.79-15.57-22.85-29.89-29.46-3.31-1.53-23.02-12.4-25.52-8.64-20.7,31.17-3.64,67.77,18.09,93.07,29.09,33.87,98.69,96.57,100.7,95.88,8.85-3.03,15.59-9.52,19.06-18.2.61-1.53-42.46-58.86-60.13-88.66Z"/>
    <path class="cls-5" d="M4610.22,785.12c-7.51-5.87-14.71-13.31-24.81-13.43-4.22-.05-8.45.25-12.69.68-17.28-1.83-32.97-8.5-48.25-16.22-6.34-3.32-6.2-21.53-6.52-20.75-2.46,5.85-10.86,20.64-13.32,26.5-1.72,4.09-5.27,9.33-5.02,13.85.03.54.24.94.52,1.27,2.18,7.65,2.18,14.7,10.04,18.79,6.4,3.33,14.72,4.83,21.6,7.04l22.62,7.28c.69.22,1.27.1,1.72-.2,2.67.38,5.74.47,7.14-1.39,1.73-2.3-.6-5.34-2.13-7.11-4.93-5.74-12.65-4.31-18.75-7.79-1.05-.6-2.07-1.37-2.54-2.48-2.75-6.45,10.63-3.59,13.04-3.44,10.36.63,16.51,3.89,25,9.08,4.88,2.98,10.43,5.35,15.89,7.03,2.58.79,5.82,1.91,8.72,1.59,2.11-.24,8.35-2.81,4.37-5.19-6.64-3.98-11.43-9.6-17.57-14.07-2.14-1.56-4.61-2.75-7.2-3.76,5.12,1.99,11.36,2.24,16.72,4.27,2.29.86,4.69,2.51,7.19,2.65,1.79.1,7.33-1.77,4.22-4.2Z"/>
    <path class="cls-5" d="M4241.07,583.86c-.83-.19-1.09-1.27-.44-1.82,2.98-2.49,6.33-2.49,9.79-1.27,6.07,1.55,12.2,6.22,17.76,3.92,1.13-.47,1.43-1.93.54-2.76-3.07-2.9-6.1-5.76-9.5-8.56-3.02-2.48-8.43-4.97-12.56-5.65-4.39-.73-8.76,1.89-12.64,5.46-.55.51-1.39-.08-1.11-.78.8-1.97,1.37-4.01,1.57-6.18.16-1.81-2.58-3.02-3.75-1.55-3.95,4.97-9.06,10-11.86,15.76-1.24,2.55-1.57,5.32-2.34,8.02-1.5,5.26-3.68,11.08-7.07,15.44-1.98,2.54-5.33,4.84-8.47,2.79-2.18-1.43-3.16-3.96-5.02-5.68-.08-.07-13.91,30.39-13.77,30.54,4.43,4.89,7.08,10.26,13.24,13.72,12.34,6.93,24.72-11.07,29.66-19.85,1.22-2.17,1.38-4.87,3.1-6.76,2.56-2.81,8.24.55,10.89,2.87,3.27,2.86,7.88,4.99,11.41,7.59,1.63,1.2,3.66-.77,3.23-2.48-1.52-6-5.77-12.18-10.52-16.15-.69-.58-1.45-1.03-2.23-1.43-1.25-3.82,7.97,1.12,12.02,1.42,5.41.41,9.98,4.02,13.54-2.73.11-.2,5.12-3.69,3.66-6.53-4.67-5.68-18.64-14.96-29.14-17.33Z"/>
    <path class="cls-22" d="M4582.81,782.06c-11.81-.71-22.71-.21-34.28,2.24-1.38.29-.8,2.41.58,2.12,11.37-2.41,22.13-2.86,33.7-2.16,1.41.08,1.41-2.11,0-2.2Z"/>
    <path class="cls-22" d="M4593.66,798.07c-5.74-3.77-11.48-7.55-17.22-11.33-1.18-.78-2.29,1.12-1.11,1.9,5.74,3.78,11.48,7.55,17.22,11.33,1.18.78,2.29-1.12,1.11-1.9Z"/>
    <path class="cls-22" d="M4265.02,604.46c-9.46-7.55-20.25-15.31-32.95-11.66-1.36.39-.78,2.51.58,2.12,11.92-3.43,22,4.06,30.81,11.09,1.09.87,2.66-.67,1.55-1.55Z"/>
    <path class="cls-22" d="M4236.91,605.63c-2.32-.23-4.64-.47-6.96-.7-1.41-.14-1.4,2.06,0,2.2,2.32.23,4.64.47,6.96.7,1.4.14,1.4-2.06,0-2.2Z"/>
    <path class="cls-22" d="M4230.85,575.9c-5.98,4.01-10.76,9.3-14.09,15.69-.65,1.25,1.24,2.36,1.9,1.11,3.16-6.05,7.64-11.1,13.31-14.9,1.17-.78.07-2.69-1.11-1.9Z"/>
    <path class="cls-22" d="M4459.49,514.16c-.64-1.26-2.53-.15-1.9,1.11,6.56,13.03,9.23,27.27,7.91,41.79-.13,1.41,2.07,1.4,2.2,0,1.35-14.91-1.48-29.54-8.21-42.9Z"/>
    <path class="cls-22" d="M4335.6,196.73c-7.38-7.64-3.93-18.22-2.66-27.58.19-1.38-1.93-1.98-2.12-.58-1.4,10.32-4.85,21.35,3.22,29.72.98,1.02,2.53-.53,1.55-1.55Z"/>
    <path class="cls-22" d="M4347.93,192.49c-1.93-.52-3.86-1.04-5.79-1.56-1.37-.37-1.95,1.75-.58,2.12,1.93.52,3.86,1.04,5.79,1.56,1.37.37,1.95-1.75.58-2.12Z"/>
    <path class="cls-22" d="M4357.09,213.23c-9.96-4.57-22.51-7.44-30.8,1.6-.45.19.16,2.68.81,2.68.12.05,19.2-.97,28.57-1.8.15.03,1.7-2.36,1.42-2.48Z"/>
    <path class="cls-14" d="M4342.82,213.55c-3.16.15-17.54-.08-17.71,3.11-.02.29.15.49.38.62-.01.1,0,.22.06.35,1.98,4.29,11.64,5.08,16.75,4.56,3.89-.39,14.68-5.72,15.52-7.58,1.47-3.26-12.54-1.17-14.99-1.06Z"/>
    <path class="cls-22" d="M4346.81,229.38c-2.25.39-5.52,1.59-7.59.22-1.18-.79-2.28,1.12-1.11,1.9,2.67,1.78,6.39.5,9.28,0,1.39-.24.8-2.36-.58-2.12Z"/>
    <path class="cls-10" d="M4422.8,295.62c-8.62-.74-10.23-10.59-13.43-16.83-2.19-4.27-5.23-7.16-9.68-8.96-5.49-2.23-12.14-2.58-16.36-7.21-4.66-5.11-4.22-13.16-3.89-19.58.07-1.41-2.12-1.41-2.2,0-.31,6.1-.56,13.05,2.65,18.53,3.05,5.21,8.38,7.06,13.88,8.66,4.07,1.19,8.21,2.4,11.14,5.65,3.02,3.36,4.04,7.96,5.91,11.97,2.4,5.13,6.06,9.47,11.97,9.98,1.41.12,1.4-2.08,0-2.2Z"/>
    <path class="cls-10" d="M4483.95,294.52c-2.96-1.94-6.11-3.57-9.39-4.89-1.65-.66-3.62-1.01-5.2-1.79-3.98-1.98-3.96-5.97-2.92-9.71,1.77-6.39,1.8-13.09.25-19.54-3.1-12.9-12.27-24.11-24.78-28.81-7.73-2.9-18.25-3.94-22.38-12.1-2.46-4.87-1.52-10.86-1-16.1.54-5.46,1.29-10.89,1.92-16.34,2.22-19.23,2.56-39.87-10.06-55.82-.88-1.11-2.42.46-1.55,1.55,12.68,16.03,11.46,37.18,9.17,56.31-1.68,14.01-7.09,32.35,8.82,39.64,6.59,3.02,13.93,3.96,20.21,7.73,7,4.2,12.36,10.86,15.49,18.34,3.14,7.51,4.04,15.92,1.99,23.84-1.1,4.26-3.23,9.48,1.58,12.18,4.11,2.3,9.11,3.03,13.33,5.36,4.08,2.26,7.85,5.05,11.15,8.35,7,6.99,11.38,15.94,11.45,25.91.01,1.41,2.21,1.42,2.2,0-.11-14.26-8.63-26.44-20.29-34.1Z"/>
    <path class="cls-10" d="M4483.44,230.24c-.84-1.12-2.74-.03-1.9,1.11,10.37,13.87,6.29,31.22,2.18,46.59-.37,1.37,1.75,1.95,2.12.58,4.25-15.91,8.31-33.95-2.4-48.28Z"/>
    <path class="cls-10" d="M4285.05,220.69c-1.18,11.33-9.87,15.77-19.87,18.22-5.83,1.43-12.13,2.95-16.32,7.6-4.02,4.47-4.17,10.42-4.38,16.11-.36,9.43-1.68,20.64-11.67,24.73-1.29.53-.72,2.65.58,2.12,5.9-2.42,9.69-7.29,11.55-13.33,2.9-9.43-1.17-22.67,7.16-29.62,7.1-5.92,17.33-4.91,25.12-9.51,5.97-3.53,9.32-9.55,10.02-16.33.15-1.4-2.05-1.39-2.2,0Z"/>
    <path class="cls-10" d="M4291.8,104.74c-23.08,13.05-38.91,37.02-42.56,63.23-.95,6.81-1.07,13.72-.27,20.56.41,3.5,1.21,6.96,1.43,10.49.4,6.4-2.47,10.27-8.02,13.19-13.6,7.16-26.4,15.71-36.38,27.58-10.64,12.66-17.36,28.28-17.71,44.91-.03,1.41,2.17,1.41,2.2,0,.45-21.08,11.49-39.89,27.11-53.53,7.63-6.67,16.19-11.94,25.13-16.66,7.09-3.74,10.46-8.03,9.82-16.3-.66-8.65-2.37-16.75-1.64-25.5.77-9.29,3.18-18.47,6.94-27,7.24-16.4,19.44-30.23,35.06-39.07,1.23-.7.12-2.59-1.11-1.9Z"/>
    <path class="cls-10" d="M4227.03,208.27c-2.59-6.5-3.82-13.19-3.69-20.19.03-1.41-2.17-1.41-2.2,0-.13,7.19,1.11,14.08,3.77,20.77.52,1.3,2.64.73,2.12-.58Z"/>
    <path class="cls-10" d="M4347.72,83.19c-1.38-.26-1.97,1.86-.58,2.12,9.81,1.85,15.56,10.98,12.82,20.62-.39,1.36,1.73,1.94,2.12.58,3.04-10.72-3.37-21.25-14.36-23.32Z"/>
    <path class="cls-22" d="M4462.11,655.43c2.03,7.58,3.71,15.23,5.04,22.96.23,1.31-1.79,1.88-2.01.56-1.33-7.73-3.01-15.38-5.04-22.96-.35-1.3,1.67-1.85,2.01-.56Z"/>
  </g>
</svg>