<?xml version="1.0" encoding="UTF-8"?>
<svg id="Layer_1" data-name="Layer 1" xmlns="http://www.w3.org/2000/svg" viewBox="0 0 914.82 1421.94">
  <defs>
    <style>
      .cls-1 {
        fill: #ffb085;
      }

      .cls-2 {
        fill: #e3855d;
      }

      .cls-3 {
        fill: #4d3028;
      }

      .cls-4 {
        fill: #402b25;
      }

      .cls-5 {
        fill: #ffc6c4;
      }

      .cls-6 {
        fill: #5c4544;
      }

      .cls-7 {
        fill: #fceae6;
      }

      .cls-8 {
        fill: #523b35;
      }
    </style>
  </defs>
  <rect class="cls-7" x="175.07" y="217.83" width="564.67" height="863.57" rx="45.05" ry="45.05"/>
  <g>
    <path class="cls-8" d="M372.69,274.77c1.96,10.04-.33,20.1-2.13,29.99-1.86,10.23-4.84,25.08,3.6,33.38,5.53,5.44,14.75,4.87,21.81,3.92,8.12-1.09,16.03-3.37,23.88-5.66,4.46-1.3,8.93-2.4,13.41-3.33.99-.3,1.98-.6,2.99-.88,8.15-2.24,16.26-2.98,24.35-2.51,5.52-.24,11.08-.25,16.71.03,17.87.88,35.43,4.54,53.29,5.43,6.39.32,13.65.42,20.67-.54,15.45-10.02,22.63-27.5,9.76-46.79-1.83-2.74-1.95-5.44-1.04-7.7-.35.86,2.04-.62,1.99-.59,1.77-1.08-7.6-54.9-10.24-69.89-4.08-23.13,1.66-98.45-24-134.51-8.53-11.99-21.86-21.87-35.8-26.94-42.8-15.56-84.22,18-98.09,56.05-10.53,28.89-20.48,136.03-21.55,169.94.17.13.32.32.37.61Z"/>
    <path class="cls-6" d="M529.88,337.41c-18.15-.98-35.99-4.51-54.15-5.42,1.37.34,2.74.67,4.12,1.07,16.31,4.76,31.66,12.27,49.13,9.7,6.24-.92,12.15-2.76,17.39-5.37-5.65.41-11.31.28-16.49,0Z"/>
    <path class="cls-1" d="M636.35,381.09c-7.06-13-14.64-25.85-19.8-39.77-4.28-11.54-7.49-31.45-15.99-41.66-.84-1.01-42.51-12.36-59.97-.89-13.88,9.12-14.76,29.9-7.87,43.51,5.24,10.36,15.33,16.92,21.82,26.4,6.94,10.13,11.16,21.79,16.79,32.63,6.98,13.41,13.81,39.8,23.7,44.03,11.2,4.8,32.97,2.34,43.89-2.68,1.04-.48,1.32-1.36,1.13-2.19.02-.08.07-.13.08-.22,3.67-25.92,8.29-36.93-3.78-59.17Z"/>
    <path class="cls-1" d="M615.06,344.84c-5.28-32.5-11.97-61.82-41.86-78.03-14.49-7.85-34.36-9.41-50.12-13.72-8.91-2.44-17.46-5.39-23.93-12.41-.03-.03-.05-.05-.08-.08-4.42-4.82-6.39-11.46-5.83-18.02.26-3.05.59-6,.88-8.71,1.67-15.91,3.87-31.75,6.48-47.53.58-3.5-3.56-5.39-5.58-3.72-15.83-1.08-35.83-4.2-50.77,1.03-2.85,1-2.88,4.5-1.26,6.08.65,15.74,1.19,31.55.28,47.19-.46,8.02-2.39,18.94-8.49,24.07-5.32,4.47-13.65,4.15-21.75,5.75-14.26,2.83-29,2.3-43.36,4.51-26.89,4.14-42.45,18.93-57.26,41-.37.55-.53,1.1-.57,1.61-2.84,3.37-5.34,7.14-4.63,10.74,1.09,5.56,10.04,9.69,14.18,12.05,20.28,11.58,29.46,28.57,38.31,49.73,1.09,2.6,3.86,2.11,5.3.37,27.45,2.83,54.98,4.77,82.56,5.64,25.44.8,51.34,1.78,75.8-6.49,1.2-.41,1.89-1.26,2.18-2.23,13.01-8.65,26.44-15.38,42.25-17.2,13.59-1.56,47.9,2.4,47.24-1.64Z"/>
    <path class="cls-2" d="M443.28,216.93c-.07,1.17-.22,2.33-.42,3.48,17.84,10.67,40.93,1.46,52.25-15.34,1.52-12.95,3.36-25.86,5.49-38.73.58-3.5-3.56-5.39-5.58-3.72-15.83-1.08-35.83-4.2-50.77,1.03-2.85,1-2.88,4.5-1.26,6.08.65,15.74,1.19,31.55.28,47.19Z"/>
    <path class="cls-1" d="M570.13,1017.06c-.31-13.98-2.37-28.17-.74-41.96,6.9-58.65,6.84-117.81,4.38-176.71-2.49-59.59-3.99-121.54-18.94-177.88-4.9-18.47-7.27-37.54-11.68-56.15-.68-2.88-4.06-2.94-5.77-1.33-.83-.04-1.68.27-2.42,1.07-15.45,16.86-30.9,33.73-45.95,50.92-13.08,14.93-28.89,30.32-38.15,47.89-9.16,17.4.52,31.09-.25,12.36-.38-9.17,9.65,150.14,31.21,243.39,10.37,44.85,27.84,90.44,27.23,136.82-.03,2.69,24.94,3.71,26.96,3.66,14.59-.36,29.4-5.96,32.56-21.19,1.42-6.86,1.71-13.85,1.55-20.9Z"/>
    <path class="cls-1" d="M440.36,640.78c-7.84-22.21-3.92-42.34-20.27-60.68-14.1-15.82-35.75-24.91-57.15-19.92-1.08.25-1.8.85-2.2,1.59-1.65-.54-3.74-.09-4.61,1.88-30.72,69.13-30.94,145.54-25.73,219.45,5.63,79.78,15.69,148.08,24.83,227.55.32,2.82,43.51,34.84,45.84,31.18,27.32-42.75,30.9-81.97,36.05-131.08,10.99-104.83,10.41-249.67,3.24-269.98Z"/>
    <path class="cls-1" d="M399.57,324.14c-16.17-20.84-76.39-46.35-77.07-45.44-15.38,20.51-80.91,109.7-96.21,130.66-6.46,8.72-14.38,17.35-18,27.76-6.61,19.05,20.44,48.11,21.69,47.21,18.09,6.99,50.13,1.38,43.08-22.66-5.93-20.19,2.21-12.94,60.04-76.33,9.11-9.99,18.14-16.21,29.8-22.91,14.37-8.27,26.31-19.65,36.02-33.02,1.38-1.18,2.09-3.43.65-5.27Z"/>
    <path class="cls-2" d="M372.19,350.22c-3.63-7.6-7.25-15.2-10.88-22.81-.64-1.34-2.63-.17-1.99,1.16,3.63,7.6,7.25,15.2,10.88,22.81.64,1.34,2.63.17,1.99-1.16Z"/>
    <path class="cls-1" d="M516.38,119c-.08-20.93-4.93-42.07-21.88-53.02-16.18-10.45-37.29-8.12-52.16,3.59-18.87,14.85-24.89,38.62-23.82,61.71,1.07,23.16,6.83,51.93,22.12,70.05,8.29,9.82,21.43,13.62,33.76,10.45,10.91-2.8,18.41-5.6,24.44-15.3,6.43-10.35,11.15-26.45,13.52-38.26,2.59-12.9,4.07-26.04,4.02-39.21Z"/>
    <path class="cls-5" d="M536.56,510.8c-3.21-27.78-3.14-48.86-.3-76.66.06-.6-.02-1.11-.2-1.55,19.03-23.05,16.56-76.79,6.16-90.85-6.18-8.35-164.76-8.17-173.56-.62-5.38,4.61-12.18,44.94-10.83,55.69,1.28,10.21,4.63,19.39,9.3,28,.41,23.79,3.97,47.78-.59,71.02-4.11,20.95-16.55,68.08-19.78,83.71-.61,2.97.92,5.93,3.69,7.16,17.85,7.91,36.77,21.55,48.08,36.54,11.56,15.33,23.08,31.07,31.05,48.63,2.4,5.28,4.09,11.47,9.43,14.61,5.89,3.46,17.5,3.94,23.45.64,7.45-4.13,12.31-16.25,16.73-23.19,5.53-8.7,11.12-17.37,17.35-25.59,14.53-19.16,29.01-32.66,49.32-45.07,7.13-4.35-6.3-56.35-9.31-82.47Z"/>
    <path class="cls-1" d="M340.17,580.08c-33.05-46.01-44.47-72.21-63.49-111.24-30.25-62.09-49.44-60.59-50.39-59.47-12.23,14.37-24.43,30.18-19.03,50.44,5.05,18.97,89.73,120.21,108.55,134.43,5.83,8.18,25.02-13.23,24.36-14.15Z"/>
    <path class="cls-1" d="M411.65,1165.02c2.9-24.09,9.62-59.48,10.1-83.73.36-18.13-3.46-36.04-4.14-54.06-.24-6.27.7-12.52,2.71-18.46,5.56-16.4,11.14-36.31,11.68-55.01.08-2.6-10.76,6.55-10.53,9.11-10.59-6.12-21.62-11.54-33.24-16.01-10.82-4.16-23.87-9.92-35.92-8.76-1.18.11-1.7.83-1.74,1.62-.87.16-3.81-3.26-3.72-2.22,1.53,17.64,12.73,70.33,3.57,100.17-8.61,39.2-9.71,90.29-2.61,129.92,8.3,46.38,17.21,92.2,16.6,141.02-.04.02,21.98-5.07,32.37-7.23,2.95-.61,5.17-3.05,5.48-6.04,2.83-26.9,6.62-107.36,9.38-130.34Z"/>
    <path class="cls-2" d="M525.12,269.03c-9.91,2.93-19.88,6.51-30.01,8.56-7.16,1.45-14.59,1.51-20.05,6.98-1.05,1.05.58,2.68,1.63,1.63,5.92-5.93,15.58-5.37,23.21-7.38,8.67-2.28,17.23-5.04,25.83-7.58,1.42-.42.82-2.65-.61-2.22Z"/>
    <path class="cls-2" d="M448.95,280.66c-8.42-4.06-17.02-7.71-25.79-10.96-1.39-.52-2,1.71-.61,2.22,8.58,3.18,16.99,6.75,25.24,10.73,1.33.64,2.5-1.35,1.16-1.99Z"/>
    <path class="cls-1" d="M578.44,1145.78c1.09-21.71,4.09-43.51,2.32-65.23-1.47-18.08-4.21-36.13-6.84-54.15-.71-4.83-1.04-9.71-1.1-14.6-.14-11.53-3.27-33.47-1.43-55.79.1-1.2-77.01,9.29-76.61,10.51,10.9,32.71,13.81,58.62,12.15,85.78-.86,14.04-3.29,28-2.69,42.08.51,11.82,2.76,23.55,5.74,35.08,6.58,25.47,10.16,50.24,16.1,75.86,6.39,27.56,19.75,84.55,21.13,118.46.09,2.21,37.24,1.93,37.08-.21-3.45-45.94-8.21-130.85-5.85-177.79Z"/>
    <path class="cls-1" d="M642.44,414.4c-1.8-11.47-8.79-20.8-15.03-30.25-16.6-25.15-59.36-101.73-76.08-125.63-11.69-16.72-26.51-14.17-36.46,2.72-.4.68-.4,1.33-.18,1.89-.02.38.03.77.24,1.19,24.53,47.76,29.38,72.1,44.19,123.65,4,13.93,6.48,24.9,14.07,37.51,7.02,11.65,19.72,23.53,31.82,28.59,8.61,3.6,31.1,2.88,33.83-8.85,2.14-9.21,5.09-21.28,3.6-30.81Z"/>
    <path class="cls-1" d="M546.02,244.69c-2.38-2.18-4.99-4.09-7.95-5.55-3.94-1.95-8.77-2.45-13.06-3.9-4.73-1.6-7.83-5.12-12.3-7.12-2.89-1.29-6.02-2.32-8.2-4.72-1.79-1.97-2.43-4.44-3.58-6.78-.91-1.84-1.95-3.25-3.17-4.33-2.35-2.06-6.09-.68-6.54,2.41-.47,3.2,1.5,22.55,1.24,26-.64,8.39.78,17.78,6.05,24.78,5.38,7.13,14.43,7.56,22.58,8.75.33.21,38.04-.91,38.05-3.7,0-5.83-7.74-17.57-13.1-25.83Z"/>
    <path class="cls-1" d="M367.2,653.32c-.15-2.76-1.02-5.45-1.99-8.21-1.12-3.19-2.18-6.44-2.84-9.78-1.73-8.72.58-17.91-1.85-26.45-4.15-14.56-26.49-36.86-32.07-41.31-1.31-1.05-25.6,15.19-24.29,16.23,6.44,5.13,21.12,19.27,21.08,27.16-.02,4.08-4.39,14.72-5.26,18.7-2.52,11.55-6.92,23.36-6.35,35.53.58,12.46,6.42,24.02,9.89,35.71.29.96,3.25,4.45,3.92,8.15.45,2.49,4.16,2.45,4.64,0,1.24-6.29,1.21-7.94.79-14.04.21.67,3.42,3.77,3.62,4.44,1.03,3.3,5.27-3.52,5.11-6.48-.61-11.16-5.28-21.05-3.26-32.06,1.6-8.71,5.32-16.93,8.39-25.12.54-1.44,3.58-4.01,6.55,5.48.95,3.04,1.59,6.17,2.68,9.16,1.03,2.82,2.33,5.52,4.13,7.85.84,1.09,2.1,2.61,3.37,3.09,2.14.82,2.39-.71,3.05-2.7.61-1.84.79-3.6.7-5.34Z"/>
    <path class="cls-8" d="M504.93,108.74c-3.21-2.71-9.26-3.59-12.76-4.17-5.73-.95-12.34-.21-15.3,5.49-2.32,4.46,2.52,7.35,6.36,7.23,3.27-.1,6.54-.13,9.8-.1,3.2.03,7.11.83,10.24.3,2.92-.49,4.56-4.17,3.27-6.76-.37-.75-.93-1.41-1.61-1.98Z"/>
    <path class="cls-8" d="M452.84,108.94c-5.03-4.78-11.85-4.43-18.04-2.32-5.43,1.85-13.43,5.01-14.53,11.25-.64,3.61,3.29,6.05,6.41,4.83,6.38-2.5,12.45-4.29,19.37-3.89,4.77.28,11.53-5.37,6.79-9.87Z"/>
    <path class="cls-1" d="M362.72,1366.23c7.43-3.21,14.95-3.55,23.03-4.68,6.43-.9,8.63.22,14.77-2.75,3.99-1.93,5.02-6.21,4.43-10.43-1.71-12.18-4.44-20.77-4.37-23.75.43-17.77,3.13-43.59,4.54-66.31.18-2.98-28.51,10.5-41.94,10.8,0,0,2.58,37.08.36,50.39-.74,4.43-3.49,8.38-7.55,10.92-18.69,11.67-43.82,20.71-61.5,34.09-10.99,8.32,8.96,12.62,12.68,12.69,12.38.25,32.41-3.27,44.26-6.72,3.85-1.12,7.58-2.65,11.29-4.26Z"/>
    <path class="cls-1" d="M627.86,1369.89c-1.35-4.14-6.93-9.74-8.5-10.63-5.12-2.92-10.61-5.24-15.75-8.17-3.75-2.14-14.32-18.43-17.4-22.63-1.06-1.44-1.74-3.12-1.92-4.88l-3.45-53.15c-.32-2.33-38.28,1.7-36.49,4.71,2.36,16.34,2.31,38.47,2.86,48.56.33,6-2.38,12.17-3.55,18-1.38,6.84-2.57,13.77-2.39,20.77.07,2.71,2.36,3.11,4.31,4.14,3.15,1.66,3.51,2.78,5.85,5.54,1.99,2.36,5.13,2.04,7.88,2.79,17.65,4.8,55.68,2.47,66.72-.79,2.17-.64,2.48-2.28,1.83-4.25Z"/>
    <path class="cls-8" d="M532.39,98.95c-2.15-12.62-11.77-21.66-21.06-29.79-10.89-9.53-23.12-16.77-37.61-18.82-1.59-.22-2.91.29-3.9,1.15-1.17.18-2.24.77-2.88,1.77-.25.38-.59.69-1.04.77-33.51,6.05-63.66,41.74-64.96,74.77-.16,4.16.14,8.37.84,12.48.73,4.36,3.48,9.61,3.47,13.93-.02,3.79.84,1.25-2.55,4.99-1.04,1.15-2.29,2.14-3.29,3.35-2.58,3.08-4.4,6.65-5.88,10.36-6.46,16.27-4.8,34.44,2.01,50.22.14.32.19.67.14,1.01-.22,1.61-.46,3.21-.64,4.83-.63,5.9,8.6,5.85,9.23,0,0-.08.02-.16.03-.24,1.48-1.21,2.35-3.23,1.47-5.4-.11-.95-.22-1.87-.34-2.82,3.11-19.57,8.08-14.81,17.84-32.24,6.63-11.85-2.72-29.61-1.54-42.28,1.46-15.63,13.61-25.86,22.03-38.76,7.04-10.78,15.48-20.26,25.61-27.81.96-.72,2.33-.29,2.78.82,5.38,13.45,14.08,25.34,24.93,35.25.37.34.59.82.58,1.33-.22,33.4,3.95,68.97,26.16,93.53.11.13.24.21.36.32.07.07.14.13.22.2.15.12.29.23.44.32.08.05.17.1.26.15.18.1.36.18.55.25.1.04.21.06.32.09.12.03.24.07.36.09,2.57.54,5.74-.9,5.95-4.32,2.15-35.75,6.19-73.94.14-109.5Z"/>
    <path class="cls-2" d="M465.06,160.9c-7.99-6.7-5.02-18.56-4.1-27.58.15-1.48-2.16-1.46-2.31,0-1,9.76-3.82,22,4.77,29.21,1.13.95,2.77-.68,1.63-1.63Z"/>
    <path class="cls-2" d="M476.77,155.49c-1.98-.98-4.09-1.48-6.3-1.43-1.48.03-1.49,2.34,0,2.31,1.8-.04,3.52.32,5.14,1.12,1.33.66,2.5-1.33,1.16-1.99Z"/>
    <path class="cls-2" d="M483.47,175.15c-1.23.34-2.39.85-3.49,1.57-.92.23-1.84.45-2.76.64-.06-.04-.1-.09-.17-.13-3.22-1.46-6.73-2.41-10.29-2.35-3.8.06-7.78,1.51-11.5,2.41-.86.21-1.74.41-2.61.3-.89-.12-1.98-.5-2.56.19-.5.6-.07,1.6.63,1.94,1.42.7,4.35.67,5.93.85,2.72.31,5.47.46,8.21.44,5.51-.05,11.01-.81,16.33-2.21.32-.09.53-.27.66-.49.71-.39,1.43-.72,2.23-.94,1.43-.4.82-2.62-.61-2.22Z"/>
    <path class="cls-2" d="M468.2,186.69c-2.04.72-4.16,1-6.31.71-1.45-.2-2.08,2.02-.61,2.22,2.58.35,5.08.16,7.54-.71,1.39-.49.79-2.72-.61-2.22Z"/>
    <path class="cls-2" d="M367.28,649.65c-1.26-5.22-5.18-11.6-4.08-17.08.03-.16.02-.31,0-.45,1.81-16.17-3.2-32.05-14.13-44.26-.99-1.11-2.62.53-1.63,1.63,10.8,12.07,15.66,28.16,13.27,44.19-.03.21,0,.4.06.57,0,2.73.91,5.29,1.8,8.01,1.81,5.54,3.71,10.83,3.08,16.61-.15,1.4-1.63,2.27-2.89,1.65-6.98-3.45-5.6-28.85-13.81-26.76-.39-.2-.87-.19-1.27.22-2.98,3.11-4.06,7.18-5.49,11.16-2.03,5.65-4.48,11.35-5.33,17.33-.65,4.54-.18,9.13.66,13.61,1.37,7.31,5.21,15.8.55,22.59-.23-.04-.47-.03-.73.1-.14.07-1.39-1.65-1.53-1.88-.46-.77-.76-1.58-.96-2.45-.22-.98-1.31-1-1.89-.47-.46.1-.85.44-.81,1.06.23,3.74,1.29,12.95-3.26,14.42-1.41.46-.8,2.68.61,2.22,4.69-1.52,5.29-7.4,5.18-12.35.82,1.04,1.82,1.81,2.93,1.69.4.46,1.07.63,1.55.02,6.39-8.05,1.9-17.58.37-26.56-1.16-6.82-.53-13.18,1.66-19.73,1.92-5.72,3.57-13.82,7.6-18.53.06-.02.11-.02.17-.05,2.88-1.45,7.42,18.66,8.39,20.79,1.76,3.86,4.76,7.51,9.31,5.89.54-.19.77-.64.78-1.1.01-.04.04-.07.05-.11.89-4.07.72-7.94-.25-11.98Z"/>
    <path class="cls-2" d="M332.51,689.83c-1.98-7.54-4.58-15.4-5.3-23.17-.74-7.99,1.69-16.64,3.46-24.43.33-1.45-1.9-2.06-2.22-.61-1.74,7.7-4.13,16.19-3.67,24.14.48,8.25,3.42,16.73,5.51,24.69.38,1.43,2.6.83,2.22-.61Z"/>
    <path class="cls-2" d="M551.37,354.01c-7.61-27.25-17.54-53.76-29.7-79.31.39-.65.09-1.76-.93-1.85-5.68-.49-12.43-.19-17.36-3.46-5.76-3.81-7.81-10.92-8.43-17.4-1.13-11.79-.59-23.65-1.95-35.47-.17-1.46-2.48-1.47-2.31,0,.96,8.33,1.53,16.68,1.64,25.06.09,6.71-.13,13.68,2.37,20.04,4.46,11.34,14.16,12.51,24.83,13.43-.04.22-.04.46.08.71,12.09,25.41,21.95,51.76,29.51,78.86.4,1.43,2.62.82,2.22-.61Z"/>
    <path class="cls-2" d="M631.03,400.04c-6.23-18.52-16.02-34.71-28.26-49.85-6.87-8.5-13.57-16.95-19.25-26.31-4.95-8.15-9.61-16.47-14.14-24.86-4.22-7.81-9.68-15.9-12.63-24.29-.88-2.49-.59-4.64-1.09-7.1-.3-1.45-2.52-.84-2.22.61.43,2.13,0,4.21.69,6.3.8,2.42,2.37,4.8,3.52,7.07,11.35,22.48,23.46,45.41,39.46,65.22,13.46,16.65,24.83,33.35,31.71,53.81.47,1.4,2.7.8,2.22-.61Z"/>
    <path class="cls-2" d="M510.12,238.43c-1.88-4.53-3.77-9.06-5.65-13.6-.56-1.35-2.79-.76-2.22.61,1.88,4.53,3.77,9.07,5.65,13.6.56,1.35,2.79.76,2.22-.61Z"/>
    <path class="cls-2" d="M526.07,240.5c-2.77-2.81-5.63-5.52-8.59-8.14-1.11-.98-2.74.64-1.63,1.63,2.95,2.62,5.81,5.33,8.59,8.14,1.04,1.06,2.68-.57,1.63-1.63Z"/>
    <path class="cls-2" d="M537.99,242.54c-1.09-1.71-2.4-3.22-3.98-4.5-1.14-.93-2.78.69-1.63,1.63,1.42,1.16,2.63,2.48,3.61,4.03.79,1.25,2.79.09,1.99-1.16Z"/>
    <path class="cls-2" d="M377.09,1048.89c-4.79-10.84-10.24-21.63-14.19-32.81-3.93-11.13-4.34-22.91-4.64-34.59-.04-1.48-2.35-1.49-2.31,0,.31,11.88.73,23.89,4.73,35.21,4.02,11.38,9.55,22.33,14.43,33.36.6,1.35,2.59.18,1.99-1.16Z"/>
    <path class="cls-2" d="M395.95,1006.75c-3.59,6.74-5.4,14-5.37,21.64,0,1.48,2.31,1.49,2.31,0-.02-7.26,1.65-14.07,5.06-20.48.7-1.31-1.29-2.48-1.99-1.16Z"/>
    <path class="cls-2" d="M567.23,1002.31c-1.74,14.55-4.09,29-7.03,43.36-.3,1.45,1.93,2.07,2.22.61,2.99-14.56,5.35-29.22,7.11-43.97.18-1.47-2.13-1.46-2.31,0Z"/>
    <path class="cls-2" d="M537.45,1021.97c-1.96-7.75-5.02-15.04-9.2-21.85-.77-1.26-2.77-.11-1.99,1.16,4.08,6.66,7.06,13.73,8.97,21.3.36,1.44,2.59.83,2.22-.61Z"/>
    <path class="cls-2" d="M347.79,1356.81c-6.93,3.73-12.61,8.99-16.71,15.45-.76,1.2,1.23,2.3,1.99,1.1,3.9-6.16,9.27-11.11,15.88-14.67,1.29-.69.13-2.57-1.16-1.88Z"/>
    <path class="cls-2" d="M324.98,1361.72c-4.49,3.35-8.35,7.29-11.58,11.74-.84,1.16,1.16,2.25,1.99,1.1,3.13-4.3,6.89-8.06,11.22-11.3,1.16-.87-.48-2.4-1.63-1.54Z"/>
    <path class="cls-2" d="M314.01,1362.11c-5.61,1.97-10.24,5.4-13.59,10.08-.83,1.16,1.16,2.25,1.99,1.1,2.99-4.18,7.2-7.32,12.21-9.08,1.38-.48.78-2.59-.61-2.1Z"/>
    <path class="cls-2" d="M573.8,1361.58c-1.13-.95-2.77.67-1.63,1.63,3.94,3.32,6.41,7.7,7.25,12.78.24,1.46,2.46.84,2.22-.61-.9-5.43-3.64-10.25-7.85-13.8Z"/>
    <path class="cls-2" d="M601.78,1374.8c-2.07-5.16-5.37-9.42-9.85-12.71-1.2-.88-2.35,1.12-1.16,1.99,3.94,2.9,6.96,6.79,8.79,11.33.55,1.36,2.78.77,2.22-.61Z"/>
    <path class="cls-2" d="M618.88,1373.41c-2.66-4.3-5.98-8.07-9.94-11.22-1.15-.91-2.79.71-1.63,1.63,3.81,3.03,7.02,6.61,9.58,10.75.78,1.26,2.77.1,1.99-1.16Z"/>
    <path class="cls-4" d="M418.48,181.61c0-7.57,1.39-15.04,2.77-22.45.24-1.31-1.77-1.88-2.01-.56-1.23,6.62-2.48,13.28-2.79,20.02-.32,7.14.86,14.15,1.43,21.24,1.14,14.06-1.03,28.43-2.18,42.44-.11,1.34,1.98,1.33,2.09,0,1.09-13.34,3.13-27.01,2.33-40.41-.41-6.78-1.64-13.48-1.64-20.29Z"/>
    <path class="cls-4" d="M526.77,146.22c.91-11.57,2.23-23.29-.61-34.71-2.81-11.32-8.92-21.47-14.88-31.37-.69-1.15-2.5-.1-1.8,1.05,5.87,9.74,11.92,19.72,14.67,30.87,2.94,11.89,1.26,24.07.38,36.1-1.76,24.27,5.27,48.82.15,72.85-.28,1.31,1.73,1.87,2.01.56,5.29-24.82-1.89-50.26.08-75.35Z"/>
    <path class="cls-4" d="M515.31,206.56c-2.21-6.83-3.78-13.77-4.74-20.89-.18-1.33-2.19-.76-2.01.56.96,7.11,2.53,14.06,4.74,20.89.41,1.27,2.43.73,2.01-.56Z"/>
    <path class="cls-4" d="M417.94,86.39c-9.88,11.8-16.06,26.23-17.26,41.61-.7,9.02.25,18.1.89,27.1.73,10.29,1.45,20.57,2.18,30.86.09,1.33,2.18,1.34,2.09,0-1.22-17.31-3.46-34.89-3.3-52.25.16-16.87,6.04-32.9,16.88-45.84.86-1.02-.61-2.51-1.48-1.48Z"/>
    <path class="cls-3" d="M483.65,135.15c-.2-5.04,1.33-8.63,5.1-9.3,3.78-.67,5.62,3.91,5.82,8.95.2,5.04-1.08,9.09-5.1,9.3-3.8.19-5.62-3.91-5.82-8.95Z"/>
    <path class="cls-3" d="M437.34,136.71c-.2-5.04,1.33-8.63,5.1-9.3,3.78-.67,5.62,3.91,5.82,8.95s-1.08,9.09-5.1,9.3c-3.8.19-5.62-3.91-5.82-8.95Z"/>
  </g>
</svg>